<svg xmlns="http://www.w3.org/2000/svg" viewBox="-191.349 -493.006 1028.349 728.08">
  <switch>
    <g class="land">
        <g class="region" id="australia" title="Australia">
            <path id="path3366" d="M325.627-185.68c1.308-.792.221-2.055-.132-3.053-1.145.882-.615 2.114.132 3.053"/>
            <path id="path3368" d="M348.808-163.776c.939-.381.865-1.38.396-2.085-.133.691-.28 1.38-.396 2.085"/>
            <path id="path3294" d="M195.986-270.736c.66-1.322.469-2.731 0-4.082-1.086 1.468-.455 2.556 0 4.082"/>
            <path id="path3298" d="M203.812-266.89c.19-.19.396-.382.601-.587-.559-.397-.764-.206-.601.587"/>
            <path id="path3310" d="M232.539-261.928c.384-.44.778-.866 1.19-1.292-.778.03-1.218.499-1.19 1.292"/>
            <path id="path3312" d="M232.937-266.684c1.086-.412 2.144-1.057 2.774-2.07-.764.969-2.202.924-2.774 2.07"/>
            <path id="path3318" d="M236.593-269.444c1.674-.969 2.964-3.024 3.081-4.961-.321 1.937-2.112 3.346-3.081 4.961"/>
            <path id="path3288" d="M173.32-264.894a4.145 4.145 0 0 0 1.483-.498c-.279-1.028-1.571-1.176-1.571-2.292a6.826 6.826 0 0 0-.705-1.277c.133-.69 0-1.395-.146-2.07-1.542.559-1.792 1.557-1.938 3.055-.147 1.115-1.821 1.805-1.233 2.979 1.467-.367 2.643-.514 4.066.103"/>
            <path id="path3290" d="M181.629-270.237c-.308-1.336-1.791-1.35-2.084 0-.998-1.35-2.511.059-3.817-.323-.528-.162-2.203-2.247-2.613-1.013-.764 2.349 2.261 8.119 5.183 7.458 1.658-.367 5.006-2.555 5.534-4.287.234-.749 1.556-3.039-.411-3.436-1.395-.278-2.701-.16-1.792 1.601"/>
            <path id="path3334" d="M249.364 77.081a3.103 3.103 0 0 0 1.202-1.188c-.793 0-1.231.412-1.202 1.188"/>
            <path id="path3336" d="M251.566 75.995c.543-.131 2.289-1.601 1.129-2.069-.983-.396-3.567.147-3.229 1.572.807-.324 1.513-.163 2.1.497"/>
            <path id="path3286" d="M172.029 23.513c1.041-.293 1.848-1.085 2.7-1.687 1.394-.984 2.114-.337 3.61-.425 1.205-.149 2.203-1.513.427-1.746-.236 0-.412.233-.515.453-.675.557-1.937-.484-2.672-.47 2.584-2.436-7.984-.455-8.454-.321-1.043.293-4.022 1.967-2.407 3.406 2.084 1.876 5.299-1.471 7.311.79"/>
            <path id="path3300" d="M225.111 102.832c.134 1.085.808 2.304-.586 2.876 1.731.412 1.291-1.688 2.524-2.04 1.659-.528 2.556 1.82.836 2.438.427-2.204-1.584-.353-1.453.733.134 1.275 1.205 1.057 1.763.147-.5 2.788 2.348-2.013 2.76-2.673-1.791-.161-.528-1.058.265-1.967.938-1.146 2.084-2.1 3.053-3.215.821-.91 1.291-2.043 2.261-2.819.821-.677 2.319-1.425 2.555-2.57.498 1.026.176 2.204-.515 3.057 1.498-.56 1.806-2.38 2.38-3.673.807-1.834 2.143-3.434 3.184-5.153 1.41-2.303 5.314-6.208 2.819-8.482-1.262-1.147-1.659 1.262-3.024 1.011-1.791-.351-2.612.499-4.139 1.264-.705.367-8.34-.821-6.271 2.055-1.1.381-1.424 0-.983-.998-2.583-.147-5.02 2.056-7.428.132-.85-.675-5.168-2.745-4.653-3.86-1.498.674-4.301.646-4.858-1.293-2.76 2.747-3.612 5.551-4.814 9.102-.97 2.805 1.79 7.134-1.117 9.22.338-.234.69-.44 1.086-.586-.146 1.409.778 3.097-.791 4.036.351-1.042 0-2.13-.603-2.95-3.422 3.332-1.526 8.132-1.776 12.081 1.043-.616 1.995.396 3.067.132.573 1.498-1.248 1.865-1.981.809a56.48 56.48 0 0 0-1.086 2.069c1.438-.264 3.994.794 5.138-.396.176 3.892 4.021-.134 4.814-.776 1.205-1 1.438-1.47 1.733-2.791.205-1.057 1.424-.147 1.086.807 1.967.222 4.728-3.947 4.756-5.65"/>
            <path id="path3306" d="M211.842 70.051c-.295.5-.56.967-.793 1.496 2.26-.146 4.933-3.169 4.933-5.489 0-1.907-1.675.146-1.925.337-.998.807-2.32 2.275-2.215 3.656"/>
            <path id="path3338" d="M250.758 70.051c-.132.615-.689 3.11.456 3.155 2.349.132 2.349-2.365 3.61-3.551-1.364-.221-1.409-1.79-2.274-2.57-1.116.661-1.321 1.88-1.792 2.966"/>
            <path id="path3348" d="M-36.944-5.216c2.658 0 5.432-2.92 6.533-5.151 1.262-2.526-.25-6.254 2.378-8.118-.633.514-.94 1.291-.793 2.07 0-.793.499-1.175 1.292-.984-.675-2.186 1.057-4.153 1.762-5.958 1.526-3.934.836-7.21.176-11.23-.617-3.729-2.012-7.811-.969-11.598.983-3.61 2.715-8.602 2.115-12.317-.236-1.543-1.086-2.922-1.146-4.506 0-1.631 0-3.055-.617-4.611-.617-1.497-1.981-2.833-2.07-4.463-.133-1.893.807-3.7.881-5.578.16-3.64-.999-7.472-2.967-10.51-.835-1.278-1.834-2.643-2.127-4.184-.294-1.395.91-2.1.808-3.392.307 1.013 0 1.997-.208 2.98.779-.821 1.072-1.953 1.103-3.068-.207 1.38.646 2.671.381 4.051.484-2.686.324 1.557.205 2.085 1.381-2.247.631 0 .793.998 2.613-1.41 3.832-2.671 1.644-5.226-1.496-1.732-2.582-5.96-.66-7.751.896.793 1.512 2.144 1.791 3.289.367 1.556-1.013 2.612-.895 4.14 1.248.132 1.893-1.102 2.084-2.173.207 1.585-.322 3.347.544 4.801.483.792 1.834-.514 2.01-.911 1.146-2.643 2.1-4.992.705-7.634-1.203-2.26-1.086-4.874-2.613-6.915-.573-.792-.264-1.452-.264-2.334 0-1.908-.955-3.625-1.205-5.504-.381-2.922 1.367-6.313 2.996-8.661 1.907-2.732 3.258-4.727 3.963-8.104.324-1.556-.793-2.745-.793-4.257 0-1.572 1.381-2.849 2.026-4.199.955-1.982 1.835-5.344 4.212-6.107.279 1.218-.278 2.333-.69 3.436-.615 1.526-.205 3.229-.601 4.785 3.244-1.115 3.289-2.79 4.859-5.432 1.614-2.73 4.287-3.934 7.164-4.844 4.082-1.292 6.989-4.096 10.247-6.753.852-.689 1.851-2.495 2.936-2.627 2.408-.309 4.272-1.249 5.901-3.127-.44 2.73 2.496.322 3.582.469 1.057.146 1.498 1.219 2.657 1.219 1.513 0 2.952-.513 4.213-1.277 2.805-1.644 4.141-3.494 7.561-3.494 1.425 0 2.922-.029 4.067-.969 1.292-1.087 1.792-3.039 3.758-3.039 3.053 0 4.903.514 7.911-.294 3.494-.924 6.651-1.747 9.852-3.464 2.568-1.394 12.067-7.12 10.188-11.42 1.057.103 1.364-.44 1.643-1.351.426-1.395 1.717-1.894 2.877-2.599 1.674-1.057 5.432-2.73 3.67-4.815-1.468-1.792-.527-6.841.44-8.69.544-1.057 3.215-5.021 4.712-3.245-.924-1.85.455-1.63 1.66-2.275 1.453-.764 1.498-3.612 3.494-4.566.822 1.101-1.791 3.656.91 3.567-1.893 2.613 3.289 7.78 2.965 10.599 1.527-1.982.221-5.197 1.483-7.135 1.131.558 1.571 1.791 2.378 2.672-.147-1.733-.411-2.995 1.277-4.052-1.321.44-4.125-2.216-2.965-3.479-.793-.029-1.233-.484-1.19-1.276 1.454 1.144.514-.264 1.821-.514 1.57-.293-.133-2.042-.426-2.657 1.351-.867 3.875.146 1.777.587.779.293 1.292.939.896 1.791.91-.25 1.057-1.556 1.967-1.644 1.203-.103 1.248.705 1.996 1.321.925.763 1.498-.617 2.495-.03 1.117.662 2.408-.176 3.539.529-.956-1.174-1.865-.559-3.067-.984-1.705-.587-.44-1.835-.295-3.069.207.339.44.676.69.999 1.424-.969.779-3.112 2.481-3.86-.852-.309-1.469.206-1.703.983-1.219-1.277-2.07-3.993 0-4.962.953-.44 3.832-1.321 2.32-2.76 1.071.059 1.878.822 2.7 1.41.264.382.514.764.763 1.174.528.132 1.042.265 1.585.381-1.541-.91-.41-2.643-2.671-2.671a3.37 3.37 0 0 1 1.776-1.498 4.307 4.307 0 0 0-1.982.999c-.147-1.321 3.142-3.905 2.965-1.673.147-2.262 1.674.587 3.084.293-.529-.925-1.717-1.908-.881-3.053-2.996-.176.514-2.819.674-3.876 1.131 1.204 1.543-.866 2.791-.087.307-1.145.234-2.32.381-3.494 1.467.322.853 3.038 0 4.271 1.836-2.114 1.043-2.261 2.672.206 0-1.072 1.203-1.042 1.395-1.982.131-.587.543-2.084.777-2.584.383-.793 1.805-.733.998-1.923-.279-.25-.586-.308-.939-.19-.352.014-1.35-1.908.529-.455-.412-1.205 1.746-2.115.41-.192 2.188-1.997-.527 2.613 2.085 1.967-.542-1.204.646-2.26 1.777-2.275-.662.895 0 1.702.601 2.378.926-1.071 2.893-1.483 3.465-2.877.44-1.086-1.321-1.585.676-2.408 1.146-.469 1.674 2.394 3.465 2.438 1.526.043 1.703.807 2.76 1.923 1.351 1.408 2.084 3.259 3.406 4.697.776.851 1.996 1.908 1.879 3.201-.147 1.438-.998 2.73-1.234 4.169-.234 1.321-.234 3.318-1.35 4.302 1.263-.617.41-2.129 1.291-2.775 1.174-.866 1.558 1.027 1.688 1.792.573-1.38-1.146-2.716-.498-4.052.777-1.675 1.658.102 2.877-.412-1.19-4.757 8.235-3.083 7.223 1.585 1.601-.617.953-2.496.984-3.758 2.23.191 2.919 4.581 4.755 4.155-.411-1.042-1.526-2.965-.235-3.89.912-.661 2.129-.118 3.01-.969-1.731.234-2.774-.294-3.362-1.967.778-.059 1.47-.309 2.086-.793-1.543.47-4.963-.733-3.715-2.848.514-.852.75-2.143 1.526-2.803.69-.587 2.217-.192 2.584-1.175.573-1.615.866-3.625 1.688-5.108.733-1.395 1.336.161 2.319-.617.631-.513 2.231-2.333 3.112-1.805-.821-.852-1.819-2.408-1.586-3.671.397-2.113 1.263-.425 2.203-1.951.616-1.013.366-2.042 1.586-2.746.851-.499 1.438.969 2.45.734-1.071-.44-1.424-3.421-.19-3.847 1.291-.469 2.187 2.584 3.377 2.849-1.263-.939-1.469-4.345.881-3.259.279-.837-.323-1.849.72-2.26 1.086-.44 1.48 1.145 2.157-.514 1.629 3.801 11.583-.133 11.773 2.173 0-1.63 1.703-2.819 3.17-1.865-1.54-1.63.236-4.081-.19-5.945-.659-2.833-3.376-2.423-5.446-1.482.133-1.351-1.629-1.968-2.377-2.584-.5-.396 1.644-1.718 1.791-2.085.968.764 1.175 1.967 1.467 3.083.632-.939.749-2.084.205-3.083.574 1.16 1.321 1.249 1.968.089.353 1.497 2.643 3.2 3.479 4.581.616-.809 2.54-.896 1.983-2.291 1.262.881 1.79 4.698 3.258 4.698 1.321 0 3.141-.176 2.979 1.351 1.483.045 2.54-1.791 4.066-1.292-2.569 1.923 3.201 1.497 2.38 4.168.967-1.791 1.188-.513 2.553-.264 1.526.294 2.364-.91 3.788-1.144.353 3.171 3.376 2.715 5.431 3.375-1.556-2.496 5.286-1.262 3.083-3.375 1.263-.309 3.258-.646 3.258-2.35.912 1.263-.85 2.114-1.671 2.658 1.878 0 .409.631-.265 1.423-.676.734-.91 1.527-.338 2.437.689-.969 1.571-2.07 2.876-2.084-1.321 1.395.31.617.25 2.203 0 .499.147 1.248.677 1.408 1.247.353 2.496-1.408 2.92-2.319-3.567-.058 2.129-3.596 2.774-4.257-1.703.91-.337 4.081 1.088 4.551-.881-1.615 1.056-1.351 1.555-.646.44.572 0 1.483-.204 2.041-.94 1.938-2.775 4.654-4.815 5.447a6.177 6.177 0 0 1 1.497 2.084 9.623 9.623 0 0 0-1.087-.705c-.354 1.542-.47 2.937-2.084 3.67 0-.661 0-1.321.147-1.968-.75.441-1.41.999-1.998 1.675-.131-2.379-1.569-.074-1.569.792-.295-2.144-2.511.44-1.19 1.674-2.966-.558-.836 5.109.793 2.378-1.467 3.083-2.906 5.813-4.873 8.603-.853 1.174-1.674 2.407-2.731 3.391-1.233 1.13-1.908.704-.881 2.7 1.366 2.716 4.522 3.656 6.313 6.005 1.058 1.35 1.732 2.628 3.229 3.567 1.043.662 2.056 1.498 1.615 2.877 1.131-.425 2.291.485 3.083-.792 1.086 1.688 2.966 2.524 4.653 3.464 2.173 1.189 3.156 2.877 4.653 4.771 2.584 3.259 6.313 2.085 9.483 4.375 1.703 1.204.412 3.685 1.938 4.917.851.675 1.968.631 2.761 1.424.821.852 1.818 1.41 2.788 2.085 2.937 2.084 9.307.088 11.04-3.055 2.481-4.521 5.681-8.984 7.516-13.828 1.058-2.79 1.851-5.667 2.878-8.457 1.086-2.98 2.379-5.226 2.172-8.499-.176-2.555 0-4.096.911-6.416.938-2.349-1.218-4.404 0-6.988.983-2.084 3.024-3.758 2.377-6.224-.719-2.833 1.702-2.966 2.262-5.3.587.558.896 1.248.881 2.07 0-.793.484-1.38 1.189-1.674-.397-.059-2.482-2.319-2.687-2.789-.324.293-.662.587-.97.91-.235-1.13.544-2.657 1.292-3.435.294-.353.646-.529 1.058-.529-.529-1.086.147-2.172.807-2.965.222.763.778 1.145 1.585.983-.13-4.155 2.379-7.296 2.863-11.289.176-1.307.176-2.158 1.586-2.73 1.35-.543 1.968-2.907 3.67-1.733-.5.646-.924 1.351-1.293 2.085a8.906 8.906 0 0 1 1.087-.603c.411 1.263 1.673 1.864 1.439 3.274-.147.587 0 1.16.177 1.703.409 1.292-.223 1.292-.223 2.437 0 1.233-.247 2.496 0 3.714.279 1.571 2.718 1.395 3.804 1.952-1.967 1.468-2.612 2.995-1.058 4.727 1.66 1.821 1.38 3.361.853 5.667 2.201-.426 1.114 8.896.646 9.997-.558 1.35.234 2.393.675 3.641.472 1.467-.279 3.039.384 4.477 1.174 2.583 4.402.969 4.741-1.292 2.009 2.51 2.949-3.215 3.889 2.172.206 1.248 2.731 2.745 3.567 3.92.133.146 2.98 2.011 3.245 2.04-.631 1.028-2.526 3.024-.5 3.759-2.714 3.302.588 6.914-.705 10.481-.778 2.231-1.233 3.347-.116 5.374.587 1.027 2.32 2.965 1.556 4.257a3.866 3.866 0 0 1 2.086-.896c-.515 2.099-.853 2.936-.295 5.124.411 1.615.382 3.317.147 4.99-.265 1.821-1.233 3.01-1.967 4.639-.867 1.967 1.363 2.408 1.233 3.994-.147 1.248 1.614.309 1.056 1.894-.454 1.38-1.937 2.481-1.087 4.052.5.925 2.174 2.892 3.377 2.789 1.13-.104 2.114 2.687 3.274.455-.133 2.598 4.124 3.024 3.684 1.292.677 1.453.25 5.461 2.174 6.048 0-.793.498-1.262 1.263-1.292-.588 2.056 1.702 2.203 3.142 2.73 1.159.426-.235 2.996 2.068 2.291.515-.147.134-1.013.588-1.204 1.013-.411.882 1.16.984 1.585.233.895 1.262.382 1.672 1.204.471.939.412 2.055.867 2.994-.514-1.027-1.894-1.218-2.394-.058-.646 1.468 1.293 3.039.323 4.418 5.358-1.923 1.453 7.692 5.138 7.62-1.262 1.468-1.204 3.846-1.026 5.651.131 1.513 1.614 4.154.44 5.535 1.938-.792 2.202-.205 3.081 1.498.881-1.762-.176-3.714 1.177-5.359 1.614 1.453 2.422 3.656 4.357 4.772.296-.559 0-1.645.5-2.085.866-.821 1.526-.19 1.601.778.236 2.569 0 4.169-.881 6.577-.5 1.424-.131 2.892-.572 4.375-.925 2.98 1.116 1.071 2.025 2.921-.264-.719-.16-1.38.31-1.967 2.201.706 2.041 5.961-.148 2.378.251 1.556 4.757 6.813 4.757 4.038 2.262 1.834 1.703 4.477 2.879 6.841.557 1.131 1.76 1.365 2.479 2.275.853 1.116.281 2.438.457 3.7.439 2.73 3.141 1.688 2.818 4.345-.148.984-1.086 1.688-1.292 2.672-.278 1.322 1.013 2.085.396 3.67.31-.367.632-.704.984-.998 1.496 1.234-.881 2.907-1.292 4.052a40.227 40.227 0 0 0-1.733 6.68c-.264 1.629.147 3.097-1.233 4.183-1.51 1.204-1.379 2.334-.321 3.817.705.998.542 3.788.293 4.991-.161.792-.5 1.629-.47 2.452 0 .91.719 1.453.498 2.437-1.072 4.741-3.303 7.796-6.019 11.7-2.936 4.212-4.55 9.057-7.794 13.152-2.745 3.467-2.922 7.577-5.594 11.012-1.29 1.672-2.394 3.522-3.771 5.139-1.366 1.57-3.511 2.42-4.583 4.242-.688 1.159-1.013 3.332-1.949 4.286-.56.574-1.499.513-2.145.956-1.16.836-2.319 2.083-3.803 2.305 2.569.234-1.571 1.218-2.246 1.424-1.761.558-3.348 2.172-4.478 3.582-.807.982-2.143 1.379-2.98 2.349-1.146 1.351-.881 2.819-3.258 2.553-.177.881 0 1.176.675.896-.734 1.057-1.292 2.277-2.041 3.305-.601.851-1.453.558-2.039 1.556-1.233 2.012-3.612 2.672-4.671 4.815-.557 1.086-.381.748-1.262.925 0 0-.586 1.921-.881 2.246-.498.556-3.42 3.142-1.76 3.787-.486.78-1.146 1.675-1.293 0-.705.617-.411 1.937-1.468 2.1-1.32.19-1.998.571-2.907 1.6-2.305 2.614-4.814 5.124-6.931 7.896-1.789 2.351-3.053 5.199-4.9 7.578-1.028 1.348-3.083 5.021-4.61 5.696 1.438.307.147 2.494-.265 3.082-.381.586-.793 1.144-1.275 1.6-.779.72-1.601.132-2.336.5-2.317 1.187-3.464 2.687-6.371 3.023-3.099.368-6.225 0-9.308.368-6.268.586-11.509 4.401-16.515 7.868-2.305 1.584-4.684 2.378-7.473 2.613-2.729.235-1.996-.307-2.496 2.318a5.243 5.243 0 0 1 2.07-1.086c-.337 1.353-1.57 3.172-2.863 3.759-.131-.88.278-2.29-.321-3.053-.955-1.145-1.527.147-2.658.207.279-1.029.177-2.07.308-3.084-1.291.265-2.172.969-2.407-.705-.248-1.82 1.353-1.848 1.938-3.346.838-2.143-4.037.97-4.287 1.189-1.995 1.688-2.789 1.028-3.86-.896 1.336 1.483 3.01-.19 4.065-1.085 1.704-1.468.896-2.423.985-4.36-2.6.44-4.889 2.245-7.12 3.567.998.308 2.041-.236 2.965.483-.91 1.279-2.788.926-4.081 1.395-1.849.677-3.978 1.777-5.535 2.997-1.555 1.233-3.215 1.876-4.946 2.757-1.469.736-1.762-.467-3.289-1.262-2.612-1.32-4.286-4.196-7.399-3.759-1.73.237-2.495-1.73-4.271-1.395-.983.192-1.217.897-2.04 1.293-.617.279-1.453-.132-2.113 0 2.672-3.067-5.196-3.833-6.137-5.182-.94-1.336-1.424-3.112-1.439-4.727 0-1.043-1.557-1.687-1.292-3.524.44-3.229 3.422-4.74 4.11-7.662 1.102-4.669-.586-8.647-3.463-12.272 2.465 1.658 3.758 4.697 3.963 7.619.44-1.968-.205-3.655-1.322-5.241-.762-1.072-2.23-3.172.236-2.965 0 .674-.147 1.365-.205 2.07 1.202-.219 1.012-.911 1.115-1.865.133-1.132 2.011-.851 1.452-1.996-.631-1.323-4.858.204-3.86 1.79-.498-.162-3.817-.542-.983.381-2.362-.249-6.782 2.937-8.823.793 1.028-1.409 2.877-2.172 4.317-3.039 1.291-.777 2.098-2.437 2.744-3.743 1.733-3.434 1.497-7.207.661-10.95-.896.542-.94 1.555-1.614 2.229-.793.793-1.674 1.439-2.334 2.348-1.336 1.821-2.513 3.848-3.7 5.772-1.292 2.113-1.601 1.729-3.832 1.51-2.144-.204-4.375 1.997-6.724 1.911.367-1.307 1.763-2.792 2.76-3.658 1.675-1.467 3.847.443 5.49-1.1 2.849-2.672 2.672-7.442 5.315-10.407 1.467-1.659 2.348-2.776 4.286-3.891 2.289-1.32 1.438-2.891 2.158-4.963.396-1.172 1.688-1.378 2.583-2.024.279-.205 0-1.762 0-2.026 0-.688 1.101-3.903 0-4.375-.44-.19-1.043 3.053-1.219 3.377-.851 1.674-3.435 2.76-4.728 4.184-1.29 1.408-2.407 2.936-3.758 4.27-.571.59-1.146 1.529-1.967 1.793-.719.235-1.394-.412-2.084-.176-1.276.381-2.701 2.012-4.17 2.555-2.143.777-3.758 2.48-5.284 4.081-.574.588-2.672 3.407-3.42 3.245-2.1-.442-2.481 2.643-3.67 3.568a38.81 38.81 0 0 1 2.084-.796c-.853.882-.983 2.219-1.879 3.07-.661-2.041-2.541-.691-3.334-2.319-.571-1.146-1.203-3.685-3.008-2.627a7.106 7.106 0 0 1 1.776-1.981c-.235 1.304 1.408 2.391 1.672.615.296-2.011.823-4.052.823-6.121 0-1.939-2.643-3.172-1.82-5.183.337-.809.881-1.629.44-2.51-.354-.676-.794-1.086-.234-1.85-.94.793-1.646-.177-2.688.146-1.511.381-.865-.675-1.16-1.306-.146-.324-.909-2.041-.675-2.333.293-.381 2.261-3.289 1.675-.824.938-.69 1.894-2.187 1.101-3.332-.925-1.335-2.437-.19-3.582 0 .219-.674 1.248-1.584 1.188-2.303-.147-.957-1.101-1.455-1.203-2.438 0-.514-3.273.91-3.391.881-2.041-.235-3.612-1.981-5.418-2.791-2.026-.91-2.172 1.293-3.729 1.014-3.936-.705-5.55-6.151-9.72-6.605-1.407-.148-2.465.662-3.713 1.115-1.512.543-3.214-.131-4.771-.131-3.89 0-8.486.146-12.301.969-7.047 1.542-13.3 5.606-20.48 7.045-3.451.676-6.561.559-10.026.237-4.229-.383-6.475 1.408-10.071 3.229-2.936 1.481-6.342 3.463-9.542 4.315-3.406.925-5.682 1.129-7.883 4.184-1.674 2.334-3.334 4.565-5.651 6.342-.426.308-2.262 1.924-2.819 1.658-1.527-.733-2.32.733-3.877 1.014.94-2.452-6.487-1.528-7.573-1.101-1.791.706-2.086 1.82-2.848-.647 0 0-4.977-.353-5.608-.44-2.701-.322-5.932.469-8.602.969-2.027.381-3.76.205-5.756.514-2.524.396-8.221 1.629-7.545 5.27-.573-.307-2.364.779-3.01 1.174-.924.544-1.836-.705-2.863-.542-1.014.147-1.748 1.042-2.467 1.688-.778.705-1.467.94-2.465 1.307-1.44.542-1.733 1.365-2.833 2.229-1.483 1.163-3.684 1.719-5.565 1.66 2.423 1.058-2.744.587-3.684.484-3.303-.339-6.561-.132-9.878-.778.131-.353.264-.661.381-1-2.877.486-4.213-1.967-5.403-3.92-.983-1.598-3.582-4.829-5.592-2.715-1.733-1.848.484-10.481 3.861-8.425"/>
            <path id="path3350" d="M195.105-266.288c-.147-.337-.265-.66-.396-.984 1.16.118 1.219.235.396.984"/>
            <path id="path3956" d="M296.898-277.577c.91-.47 1.144-1.263.322-1.967-.821.469-1.041 1.276-.322 1.967"/>
            <path id="path3958" d="M297.221-284.506c.381-.293.617-.705.674-1.204-1.1-.103-1.32.294-.674 1.204"/>
            <path id="path3960" d="M298.601-283.611a2.43 2.43 0 0 0 .384-1.482c-1.031.205-1.119.762-.384 1.482"/>
            <path id="macquarie_island" d="M228.326 231.693c-1.321.647-1.76 3.803-.881 3.334.852-.468.588-2.541.881-3.334"/>
            <path id="nf-" d="M529.925-77.603c-1.087-.646-2.174-1.292-3.26-1.923-1.057.748-1.586 1.334 1.469 1.747"/>
        </g>
        <g class="region" id="new-zealand" title="New Zealand">
            <path id="path3560" d="M334.949 193.54c-.703-1.146-5.769 1.907-5.55 3.172.735-.353 1.983.191 2.438-.412.97-1.307 1.616-1.939 3.112-2.76"/>
            <path id="path3564" d="M385.86 150.968c2.584 1.29 1.556-4.727-1.015-1.658-1.834 2.215-3.33 4.196-6.236 5.212.909.645 4.08-.5 5.166-.793.777-.206 2.202 0 2.744-.734.883-1.263-.775-1.731-1.656-1.233.322-.266.659-.531.997-.794"/>
            <path id="path3566" d="M380.003 140.561c1.13-.28 2.188-.796 3.187-1.396-.163 1.322-1.764 1.058-2.204 2.2 1.205 0 1.851-1.29 3.085-1.202-1.293.382-3.362 1.365-3.759 2.788 1.658.147 4.33 1.381 5.842.28 1.763-1.277 3.744-.426 2.467 1.894.984 0 2.056-.735 3.024-.426 1.585.485-.119 1.952 0 2.892.821-.425 2.979-.528 3.889-.396.751.133.163 1.189 1.367 1.189 3.392 0 6.431-1.527 9.6-2.38.617-.176 1.674-1.453 2.35-1.79 1.482-.705 3.2-1.027 4.581-1.968 1.262-.882 2.23-2.039 3.787-2.437 1.381-.35 3.141-.146 4.036-1.526-.688.265-1.365.499-2.069.705 3.788-1.733 6.429-5.315 9.689-7.798 1.526-1.156 3.317-1.922 4.785-3.184 1.646-1.424 2.73-3.392 4.346-4.859 2.936-2.745 6.694-3.904 10.335-5.416 1.849-.749 4.051-1.131 5.782-2.056 1.177-.616 3.055-2.673 4.272-1.057-.688.293-1.365.56-2.069.793 1.674-.733 3.655.776 5.138.204 3.318-1.262.911-2.362-.881-3.082 1.704-.412 2.012-2.967 3.245-3.979 2.156-1.76 5.213-2.597 7.634-3.919 2.173-1.175 3.801-2.847 5.681-4.403 1.607-1.321 3.458-1.953 5.279-2.906 1.379-.765 2.2-1.38 3.109-2.586 1.177-1.555 3.319-1.995 4.847-3.109 1.791-1.278 1.055-3.877 2.584-5.286 1.583-1.439 4.256-1.38 5.43-3.318-.646.779-4.315 2.731-5.137 1.484 1.468-.28 4.58-.779 4.375-2.878-1.614 0-1.586 1.114-2.732 1.453-.674.205-2.7 1.425-.353.925-1.055.133-2.023.602-3.081.807.909-.543 4.111-2.612 1.907-2.686.881-.191 1.646-.734 2.262-1.394-1.969.353-3.583 1.586-5.462 2.187-1.761.57-3.493 2.715-5.521 1.98.765-1.555 3.436-3.846 3.055-5.754-.528.279-2.967.646-2.495-.646.646-1.834 2.966-2.613 4.668-2.23-2.583-1.293-8.337 1.834-10.394 3.583-1.254 1.1-2.194 2.509-3.207 3.814-1.396 1.792-3.187 2.938-4.962 4.332-1.806 1.424-3.479 1.776-5.624 2.422-1.967.586-3.288 2.394-4.609 3.861-3.185 3.479-6.648 6.414-10.687 8.821-1.762 1.072-3.523 1.764-5.46 2.35-2.174.647-4.039 2.085-6.078 3.038-4.404 2.1-8.646 4.01-13.184 5.83-4.286 1.73-8.836 2.671-12.934 4.843-1.674.896-8.089 3.406-7.222 5.945-.66-2.392-3.699.895-4.787 1.278-1.159.427-5.063 1.821-4.418 3.083-.997-.382-2.23.293-3.023.82-.867.56-2.467 1.646-.558 1.646-1.572 0-1.146 1.85-2.174 2.583.968-1.028.793-1.305-.499-.792.147-.573-.293-1.996-.793-.91s-2.172 1.76-3.257 2.495c1.114.293 2.097-.337 3.169-.497-1.042.439-2.143.748-3.169 1.187a3.308 3.308 0 0 0 2.068 0c-.69.337-1.424.543-2.173.689 2.819.5-1.908 1.277-2.613 1.411-1.453.263-3.053.747-3.229 2.452"/>
            <path id="path3568" d="M497.657 78.066c-1.114.559-2.525 1.058-2.761 2.481 1.293-.251 2.174-1.366 2.761-2.481"/>
            <path id="path3570" d="M500.917 84.906c-.119.706-.235 1.396-.383 2.086.823-.472 1.821-.353 2.671-.794.207.822 0 1.528-.703 2.084 1.85 1.559 5.667-1.321 7.253-2.229 3.494-2.057 6.398-4.258 9.601-6.798 1.35-1.088 2.995-2.657 4.727-3.127 1.469-.396 2.114-1.938 3.288-2.774 1.409-1.026 2.966-1.555 4.315-2.802 1.614-1.529 2.995-3.291 4.698-4.758-2.965-.586 2.38-4.682 3.173-5.226 1.818-1.204 9.042-3.729 7.721.572 2.436-1.527 2.436-5.021 5.079-6.487.969-.528 2.056-.691 3.023-1.191 1.732-.851 2.496-2.201 3.671-3.624 1.762-2.13 3.257-4.744 5.431-6.387 1.116-.838.939-1.762-.263-2.425-1.614-.85-4.023.721-5.373 1.486-3.407 1.848-6.519 4.901-10.631 3.125-.997-.425-6.547-3.125-6.691-4.198-.119-.78 4.668-9.5 2.376-8.924a8.173 8.173 0 0 1 2.292-1.485c-.793 0-1.527.161-2.292.396.235-1.055.471-2.188-.176-3.184-.97.395-.822.601-.586 1.348.293.881-1.058 1.938-1.41 2.614-.793 1.614-.764 4.404-3.054 4.755-1.175.192-.117-2.274-.117-2.76.117-1.438-3.876-1.657-4.816-1.495 0-.133 1.529-1.072 1.91-1.762.587-1.072.909-1.851 1.614-2.878.559-.733 2.261-1.147 1.732-2.275-.529-1.191-1.438-3.539-.293-4.654-.646 0-1.233-.235-.971-.911.412-1.056 1.792.177 2.35.586a19.891 19.891 0 0 0 1.292-7.31 6.558 6.558 0 0 1-1.996.204c.178.353.322.719.499 1.089-.353.116-.705.116-1.086.116.205-.79-.206-2.376 1.174-2.172-1.35-.176-1.586-3.333-3.054-1.175.999-1.555-4.374-1.922-1.409-2.466-1.351-.528-1.819 1.204-2.76 1.763.909-1.219.381-4.846-.205-6.138.793.147 1.409-.367 1.702-1.086-.764.233-3.847.177-3.875.967 0 .971.527 1.88.734 2.791.321 1.557 1.086 5.608-1.615 5.447.354 1.321.381 2.716.499 4.065.733-1.41 3.083-1.116 3.348-2.863.146 2.158-3.024 1.543-3.229 3.877-.265 3.155 1.555 5.975.762 9.291 1.995.367 1.469-2.041 1.174-3.17.793.204 1.35.823 1.586 1.586-.117-2.084 1.146 0 2.202-1.189-.94.398-1.762.879 0 1.277-.557.382-1.262.293-1.821.616-.586.353-.586 1.704.824.677-.853.895-.941 2.201-1.793 3.082-.498-.615-.674-1.306-.586-2.085-1.733.426-1.174 5.227-1.704 6.533 1.027.147 2.85-1.453 3.378 0 .381 1.028-2.055 2.32-2.379.586-.765.472-2.202 3.187-.469 3.362-1.058.353-1.498 1.586-1.792 2.539-.146.574-.294 1.133-.44 1.719-.324 1.146-1.086 1.086-1.614 1.996-.5.824-.646 2.291-1.205 2.967h-1.114c-.735.675-1.41 1.41-2.086 2.172-1.995 2.305-3.347 5.46-5.931 7.164-2.495 1.674-5.961 1.321-8.632 2.936-1.146.688-2.112 1.732-2.26 3.113-.147 1.586 1.762 1.672 2.612 2.495 1.292 1.234 1.409 2.292 3.317 2.935 1.82.648 2.144 2.351 1.498 4.025-1.292 3.448-4.611 5.726-7.428 7.84-1.146.85-2.086 2.42-3.524 2.848-1.38.425-3.082 1.291-3.815 2.611.881.396 1.643 0 1.995-.896"/>
            <path id="path3572" d="M539.557 31.426a9.342 9.342 0 0 0-1.793.691c.793.499 1.497.176 1.793-.691"/>
            <path id="path3574" d="M546.572 23.206c-1.321.646-1.762 3.804-.881 3.332.853-.469.588-2.539.881-3.332"/>
            <path id="path3576" d="M557.581 117.291v1.379c1-.381 1.967-.881 3.056-.881-.941-1.013-.236-4.167 1.408-2.581a7.976 7.976 0 0 1-.999.998c.94-.793 1.968-1.526 3.083-2.085-1.821.439-5.078-1.175-6.048 1.188a2.644 2.644 0 0 1 2.084.132c-.41 1.086-1.496 1.674-2.584 1.881"/>
            <path id="path3578" d="M558.758 120.844c.645-.176.938-.206 1.086-.982a28.66 28.66 0 0 0-1.086.982"/>
        </g>
        <g class="region" id="samoa" title="Samoa">
            <path id="path4782" d="M764.484-244.987a2.462 2.462 0 0 1-1.907.103c.617 2.099 2.495 4.301 4.814 2.92 1.027-.616 1.175-1.82.587-2.789-.792-1.321-2.376-.44-3.494-.234"/>
            <path id="path4784" d="M775.262-238.44c.585-2.847-4.436-3.317-6.05-2.084 1.291 2.099 3.934 1.82 6.05 2.084"/>
            <path id="Samoa" d="M714.094-75.406l-.514 2.244c-.411.471-1.557 1.719-2.187 1.91l-1.293.058-1.16-1.263c-.454.206-1.218.367-1.718.28-.602-1.13-1.643-2.275-2.627-3.068l.248-.529-.497-1.131-.881.207c-.383-.162-1.425-.529-1.865-.397l-1.379.221-1.262 2.188-2.145.396-1.307-.748c-2.083.601-3.876 1.144-6.003 1.424l-.632-.794c-.295.442-1.367.955-1.851 1.147 0 0-2.745 1.129-3.215 1.055-1.015-1.248-3.45-.983-4.375.338-.675.235-2.495-.132-3.158-.293-.702.66-1.467.938-2.421 1.129-1.569-.734-2.567-2.187-3.008-3.802-.616-.588-1.953-1.19-2.819-1.117l-.808-2.731c-.293-.307-1.013-.513-1.425-.453l-.44-.619.515-1.686c-.411-1.381-3.053-4.14-4.551-4.758-.381-1.027-1.293-2.172-2.114-2.862l-.104-1.175c-1.307-1.498-3.097-1.937-4.55-3.742l.044-1.5-.337-.543-2.351-.205c-.601-.939-1.38-1.101-2.024-1.777-.558-.558-.939-1.334-1.483-1.908-1.276-1.35-3.772-2.541-5.594-3.155-1.306-1.557-1.774-3.274-3.259-4.743l.016-.999c.102-.131.954-.998.982-1.055.251-.514.398-1.543.94-1.867.852-.131 3.801-.483 3.801-.483l.191.764c.839.47 5.096 2.716 6.034 2.701l1.321-.309c.881-.191 2.099-.22 3.011-.086l.455-.662c1.495-.485 2.76.807 3.934 1.572l.909-.471-.425-1.174c.645.117 1.863-.689 2.318-1.086l4.142-.103c.351-.295.601-.542.734-1 1.526-.41 2.876-.572 3.771-1.892l.618-.147c1.202.733 4.858.234 6.019-.25.088-.03 1.366-1.057 1.511-1.174.926-.25 1.293.161 2.07.248 1.042.147 3.816.414 3.816.414.104 0 1.086-.237 1.249-.266.602-.998 1.262-1.452 2.157-2.201 1.043-.118 2.13-.294 3.172-.338.705-.043 1.262.176 2.01-.015.69-1.63 3.024-.457 3.979.103l2.113-.221c.69.867 1.453 1.733 2.085 2.657.646.939 1.22 2.187 1.953 3.053 1.335 1.543 3.039 2.848 4.402 4.376.646.734.927 1.791 1.749 2.465-.296 2.026 1.409 2.306 1.762 3.758l1.687.631c.221.088.5.412.574.662-.294.058-.779.338-.896.601.189.985 1.114 1.614 1.497 2.467.353.705.248 1.805.953 2.995l.514.367c.471 2.73 2.101 3.287 2.497 4.564l-.339.619c-1.086.278-3.625 3.772-3.625 4.373l.66 1.571-.337 1.572-2.629 1.248c.353.528.075 1.467-.295 1.894.125.587 1.182 1.293 1.49 2.526zm10.099 5.372l.44.101.382.633-.044.733-.19.19-.69-.31a1.552 1.552 0 0 1-.279-.791c.073-.146.236-.469.381-.556zm3.245 3.699l.396-.293 1.716-.119.765.941.059.411-.484 1.217-1.409-.793-1.043-1.364zm50.852 23.959c-.603.572-2.511 1.218-2.804 1.379-.44.235-1.102.351-1.614.513l-1.879.03-.486-.411-1.304.528-.516-.691c.293-.997-1.028-3.124-1.601-3.829l-1.423-.558c-1.132.352-4.875.306-5.668-.5l-.572-1.014.484-.586c.25.691 1.043.293 1.043.293l.293-.497-.586-.663c-.455.265-1.718.764-2.262.618l-.689-.412c-.383.266-1.776 1.014-2.276.779-.601.455-2.422 1.674-3.215 1.483l-.366-.204-.984.601-1.086-.163-1.953-2.304-.277.014c-3.378-1.277-2.232-5.459-4.728-6.545l-.412 1.292-1.365 1.056-.482-.528-.311-1.776c-.747-.163-1.101-.748-1.555-1.277l-.06-1.102c-.748-.336-1.601-.675-2.306-1.086-.13-.059-.335-.412-.454-.483-.85-.543-1.806-.676-2.394-1.586.031-.824-.632-2.086-1.143-2.672l-.031-.734c1.116-.617 1.498-1.528 2.275-2.409.09-.101 2.158-1.792 2.218-1.82 1.834-1.219 4.052-.85 6.152-1.143 1.275-.191 1.628-.853 2.597-1.367.748-.367 5.226-2.172 6.106-2.172.073 0 1.321.396 1.438.425.339-.029.779-.499.955-.763.514.014 3.508-.043 3.744.31l.469-.383s1.777-.322 2.407-.25c.646.381 1.337.764 1.953 1.19.147.088 1.351.66 1.498 1.043l-.207.66c.176.381 2.657 1.805 3.069 1.659l-.207-1.69.119-.277.44.029 1.072 1.849c.353.235.953.618 1.379.457l.661-.588 1.526.617.631 1.306c2.07-.484 2.218 1.585 3.479 1.91.117.324.498.952.851 1.085l.557-.514c.442-.161 1.396.25 1.749.5 1.262-.838 2.495.353 3.641.836.572.25 1.248.383 1.85.559l.968-.222.939.383.925.953 1.718-1.674.722.353c.366-.236 1.114-.206 1.495-.045l.412.353c.205.368.102 1.161-.06 1.528l.353.293.72.015.807-.631c.574.762 1.336 1.91 1.557 2.849.837-.22.953-.293 1.909-.043l.44.438.133.588c-.778 1.702-3.275 2.217-3.965 3.479 4.286.616 3.302-1.219 6.076-2.218l.339.383-.205.558.146.425h.838l.939.323.221.324-.279.324-.793.497.191.367 1.879-.397 1.776.895.278-.191c1.22 1.072 1.483 3.26 3.61 3.26l.279-.749c.439-.028 1.117.323 1.424.574.515.954.927 1.849 1.776 2.555l.384 2.744c-.046.602-1.47 3.171-1.808 3.729-.615.028-2.7.028-3.17-.469-.764.528-2.101-.484-3.069-.251l-.632-.381c-.116.058-1.216.646-1.262.646-4.257.102-8.411.13-12.684-.06-.704-.028-1.16-.499-1.688-.895-.821.028-1.35.396-1.806.47-.733.104-2.848.47-2.921.53l-1.101-.282c-1.977.645-3.637-.399-5.251-1.352zm34.308 3.713c.295-.146 1.264-.574 1.601-.469l-.146.439.44.763-.736.484-1.041-.689-.118-.528zm1.881-3.934c-.046-.353.07-.867-.236-.926-.309.309-.309.867.236.926zm-.237 4.493c.162-.704-.396-.674-.235-1.379h-1.379c-.162 1.157.498 1.761 1.614 1.379zm.237.234c-.119.719.586.646.923.925.03-.586.044-1.13-.454-1.16-.06.176-.208.279-.469.235z"/>
        </g>
      <g id="id">
        <path id="path2528" d="M218.564-359.082c-.705.44-.499.763.603.999-.207-.338-.397-.676-.603-.999"/>
        <path id="path2530" d="M220.648-384.934c-.896.308-.998 1.336-.688 2.084 0-.748.279-1.452.688-2.084"/>
        <path id="path2532" d="M222.235-381.763c-.72-.161-.794.162-.206.984.147-.324.147-.66.206-.984"/>
        <path id="path2540" d="M227.579-394.535c-1.249.28-1.043 2.745.293 2.364.792-.205 0-2.011-.293-2.364"/>
        <path id="path2542" d="M229.956-388.207c0 .206-.132.411-.132.617a9.067 9.067 0 0 0 2.069-.411c-.645-.06-1.321-.119-1.967-.206"/>
        <path id="path2544" d="M232.644-398.102c0 1.555 2.612 3.523 3.743 1.791.807-1.233-3.128-1.732-3.743-1.791"/>
        <path id="path2546" d="M233.832-386.71c-.147.323-.147.646-.205.984 2.554.176 4.756 1.57 7.223 2.099 1.057.205 2.173.69 3.258.396 1.203-.323 2.584-1.043 3.876-.808-1.056-1.542-3.759-1.439-5.373-1.644-2.937-.351-5.842-.734-8.779-1.027"/>
        <path id="path2548" d="M252.153-306.497c-.148.323-.206.66-.309.998 2.042-.689 4.242-.381 6.371-.381 2.069 0 3.289-1.087 4.889-2.291.674-.543 5.021-5.887 4.14-6.959-2.51-3.127-4.14-3.45-8.017-1.85-3.962 1.674-5.517 6.886-7.074 10.483"/>
        <path id="path2550" d="M264.322-305.705c.338-.088.662-.205 1.014-.292-.528-1.013-.469-2.951-2.144-2.29-2.202.894-.44 2.538 1.13 2.582"/>
        <path id="path2552" d="M263.838-325.698c0 .777.529 1.291 1.291 1.482-.145-.749-.543-1.322-1.291-1.482"/>
        <path id="path2562" d="M189.454-393.844c.308-.779.177-1.468-.397-2.085 3.084-.777 5.653-.954 8.061-3.17 2.215-2.055 4.551-2.937 7.545-2.188 3.039.75 4.565 2.98 7.18 4.11 2.642 1.13 5.358-.367 7.809 1.542-1.879 1.394-.131 3.258.734 4.667 1.085 1.909-.146 3.494-.852 5.241-1.79 4.492.882 9.85 2.906 13.77.676-1.013-.264-3.273.881-4.037 1.586-1.057 1.41 3.67 1.41 4.125 0 .896.338 1.116.938 1.719.881.851.471 2.025 1.264 2.906 1.527 1.703 4.623 2.612 6.371.792 1.262-1.321 2.583-2.48 3.874-3.758 1.367-1.35 1.646-3.141 3.466-4.316 1.629-1.027 1.159-4.874 3.26-4.874 2.465-.029 3.655.206 5.958-.998 1.675-.852 1.748-1.438 1-2.995-.559-1.174 3.082-2.877 3.802-3.258 1.851-.983 3.553-1.659 5.505-.662 2.554 1.307 5.578 2.232 7.869 3.95 1.907 1.453 4.096 2.246 6.224 3.318 1.469.748 4.316 2.994 6.05 2.407 2.157-.763 3.054.881 5.284.851 2.319-.03 3.465 2.378 5.769 2.056l-2.217 42.631c-.234 2.29-1.996 3.935-1.894 6.386 0 1.013 1.335 1.557 1.335 2.188 0 1.542-.249 3.112-.351 4.653-.499 7.223-1.059 14.476-1.732 21.683-2.966-1.497-3.581-4.874-5.827-7.017-1.117-1.072-5.358-3.773-3.363-5.637-1.29.998-3.627.587-5.168 1.204-1.335.514-3.758.646-3.067-1.512-.661.807-2.35 2.333-3.464 2.333-1.703.03.278-2.906.454-3.317.589-1.351 2.468-4.36 1.101-5.094-1.248-.661-1.6-2.291-2.539-3.244 1.615-1.38 3.758 1.057 5.049-1.086-2.26 2.231-5.165-1.277-6.737-2.657 2.069-2.393 4.435.396 6.533.484-1.82-.705-3.377-1.967-5.05-2.965 1.968-.353.265-.941-.368-1.616-.924-.954-1.806-2.1-2.187-3.391-.47-1.659-1.996-4.771.177-5.593-2.158.793-2.276-1.541-.294-1.879-.749 0-2.583 1.174-3.172.293-.674-1.042.691-2.407.205-3.552-.646 2.525-2.523-1.527-3.346-1.879-1.424-.617-1.498-.969-2.584-1.468-.836-.382-2.848-.939-3.348-1.776-.689-1.16-4.933-1.249-6.254-2.056-2.084-1.248-4.506-2.628-6.84-3.377-2.231-.719-5.534-.058-7.487-1.012-1.748-.867-4.082-2.055-4.815-3.994-.69-1.805 2.203-1.526 3.172-1.688-1.189-.367-2.702-.969-3.642.25-1.085 1.35-1.82-.75-2.788-1.042 0 2.026-3.2.543-1.688-.881-2.188.014-3.01.044-3.567-2.598-.147.764-.5 1.395-1.116.617-.881-1.116-.205-1.807-.294-2.966-.204-2.114 1.923-3.317 1.996-5.46-.514 1.115-2.377 1.497-2.377 2.892 0 1.248.146 3.156-1.674 3.053 1.555.689.321 1.512-.19 2.363-.338.323-.676.646-.983.999 0 .646-.147 1.321-.147 1.967-.484 1.41-3.346 2.907-4.845 2.495-1.307-.381-2.085-3.464-2.128-4.609 0-.793 1.012-.852 1.541-1.116 1.409-.646-.763-2.407-.396-3.581-1.718 1.027-3.831-4.478-6.225-4.581-3.699-.147-1.703-2.686.97-2.965 2.76-.28 4.755 2.466 6.679-.734 1.439-2.408 5.843-3.186 4.697.734a9.348 9.348 0 0 0 .705-2.07c.381 1.894 2.555-.456 2.48 1.571.294-1.644.853-.72 1.277.117.412-.851.471-1.967-.293-2.672.676.147 1.35.074 1.996-.205-.587-.675-.558-1.351.133-1.967-2.129 1.571-.5-1.145-.133-1.586-2.274.176-3.494 1.63-5.96 1.249-1.497-.235-3.538 1.204-4.845.719-1.615-.588-2.289.514-3.552-.749-.44-.426-1.688.367-2.114.396-1.396.074-2.496-1.204-3.554-1.923.25-.337.529-.661.794-.983-1.117.19-2.13-1.116-1.731-2.173.145-.411.703-.94.614-1.409-.204-1.159-2.01.734-.776-1.38-.998.206-1.263.221-1.16-.881-1.438 2.055-4.213-1.557-5.461-1.497 1.175 1.556-1.659 1.321-2.379.822-2.025-1.395 1.908-3.979 2.275-5.373"/>
        <path id="path2206" d="M-178.271-434.053c.44.308 1.996.469 1.76-.573-.146-.514-1.848-1.557-2.231-1.967-.513-.529-1.144-.983-1.907-.822.411-1.101-1.115-1.938-1.879-2.291-.412-.176-.733-.998-1.293-.557-.983.821-.967 1.644 0 2.524 1.66 1.439 4.581 1.439 5.52 3.686"/>
        <path id="path2348" d="M62.895-344.226c-.469 1.674.412 3.201.19 4.845 1.543-.705 2.422 2.246 4.142.969 1.188-.881 1.188-1.043 2.715-.867 1.424.162 2.379-1.468 3.744-.396-.131-2.319-1.967-4.331-1.101-6.709 1.027-2.921 1.57-4.829 1.203-8.015-.293-2.657.324-4.771.557-7.354.147-1.189 0-2.379.147-3.553.205-1.997-.705-1.997-1.188-3.684-.955-3.275 4.727-5.976 7.223-5.183 2.246.704 1.541 5.71.367 7.017-3.318 3.7 2.289 7.898 5.475 9.601 1.336.719-2.041 5.769-.674 7.824.748 1.102 3.184 1.689 4.432 1.865 1.541.22 1.131-2.262 1.322-3.143.381-1.981 3.17-1.614 4.565-2.187.822-.337 4.17 1.365 2.232-1.043 1.526 2.555 3.553-2.612.91-3.361-.469 2.422-1.115-.911-2.377-.896.264-.352.528-.719.792-1.087-1.088-.028-2.452-1.467-3.069-2.26-1.013-1.307.309-2.378-.603-3.67.5.117.983.206 1.483.293-1.131-.69-.836-2.364.603-2.29a4.736 4.736 0 0 0-1.029-1.321c-.793-.866-.22-1.791-.763-2.73-.44-.793-1.483-.852-1.967-1.586-.574-.821-.764-2.143-1.205-3.083-.705-1.378-1.291-2.758-2.76-3.464-1.203-.587-1.76-3.112-3.376-2.349.133-.866.133-1.732.133-2.584 1.688 1.425 3.01 2.716 4.682.382 1.483-2.041 3.025-2.069 5.11-3.229 2.849-1.585 4.933-8.28 8.662-8.162 1.085.044 1.262 3.111 2.495 1.819.749-.763 2.143-2.759 1.408-3.846-1.262-1.85-6.092-1.277-7.604-.059a3.337 3.337 0 0 1 2.085.999c-1.938.059-7.547-1.292-8.237 1.233-.454 1.673-5.548 1.614-5.225-.733-1.689 1.027-3.45 2.758-4.301 4.579-.926 1.967-1.353 3.142-3.642 2.642-1.498-.323-2.907-.719-3.317-2.407-.235-.852-.294-1.717-.764-2.495-.867-1.409-1.467-.25-2.407-.94-3.082-2.245-3.229-9.204-1.879-12.301.748-1.763 2.027-3.758 3.787-4.697 1.44-.764 4.991.499 6.518 1.056 1.057.382 3.113-.513 4.053-.954 1.996-.925 2.539.484 4.463.777 2.143.324 4.991-.822 7.266-.777 2.745.074 4.477.22 6.679 1.805 2.715 1.967 11.157.646 13.374-1.951 1.526-1.776 2.07-3.773 3.89-5.418 1.969-1.761 1.88-4.771 4.007-6.356-.748-.485-1.159-1.306-.895-2.187-.763.205-1.879-.353-2.524.205-.984.853-.925 2.467-2.275 2.892-2.071.631-.75 1.264-1.733 2.554-.571.749-1.938.456-2.333 1.483-.983 2.554-4.889 2.995-7.061 2.524-1.836-.381-4.008-.821-5.916-.719-1.057.059-2.085 1.233-2.936.881-2.746-1.102-4.684-1.63-7.604-1.939-1.528-.161-2.408-.601-3.994-.425-1.835.176-2.378-2.319-3.317-2.305-1.174.03-5.637-2.158-5.887.323-.338 3.391-3.421 6.606-5.901 3.068-.235 1.102-.603 1.938-1.454 2.702-1.16 1.027-.925 2.613-2.056 3.523-2.157 1.733.662 4.756-1.556 6.341-.175-.793-.733-1.321-1.585-1.087.558 2.1 2.172 1.586 1.527 4.008-.617 2.218 1.41 4.243.764 6.475-.456-.822-.646-1.792-1.381-2.466-1.249 3.347-3.875 5.108-4.066 8.911-.133 1.703.131 3.508 0 5.183-.133 1.937-1.953 3.199-2.1 5.27-.162 2.745-4.653 4.022-3.963 6.327.396 1.291 1.438.484.323 2.32-.968 1.584.308 5.02.939 6.664.896-1.013 3.201-1.38 4.463-1.454 2.731-.146.558 2.51 1.453 4.096 1.469 2.643 1.103 4.903.648 7.942-.398 2.481-1.043 6.356-2.703 8.323"/>
        <path id="path2366" d="M90.229-345.312c-3.215 1.116-.336 4.683-.176 4.521.853-.777.764-3.64.176-4.521"/>
        <path id="path2368" d="M91.11-400.187c-.528-.998-1.938-1.027-1.967.309.706.265 1.365.161 1.967-.309"/>
        <path id="path2370" d="M92.608-401.273c-.646-.91-1.424-.88-2.083 0 .645.456 1.407.441 2.083 0"/>
        <path id="path2372" d="M95.97-341.055c.41-.499 1.425-1.6 1.072-2.349-.705-1.351.66-1.967 1.027-3.142.205-.646 1.043-5.035-.72-4.081-.867.47-2.026 1.086-2.774 1.703-1.439 1.189.719 2.701-.293 3.964-.383.484-1.41 2.173-1.086 2.818.527 1.028 2.289.72 2.26-.499.163.53.322 1.059.514 1.586"/>
        <path id="path2378" d="M102.106-353.328c-2.539.03-3.479 5.52-3.596 7.458-.131 2.025-.91 2.907-1.66 4.756-.924 2.29.514 1.674 1.792 3.024.615-.837.674-1.967 1.336-2.76.645-.822 1.848-.382 2.465-1.146.91-1.116-.938-3.067-2.027-1.938.295-1.204.236-2.466.574-3.67.219-.793 1.688-3.407 2.01-1.087 1.104-1.833-.997-2.904-.894-4.637"/>
        <path id="path2386" d="M104.984-386.225c0-.691 0-1.396.191-2.07 3.786 1.952 2.832-5.521-.191-.896-.984-1.468.983-1.879-1.014-2.496-.674-.205-1.498-.293-2.129.103-1.452.955-1.1 3.377-.718 4.757 1.116-.557 1.733-1.674 2.261-2.76 1.086.793 0 3.244 1.6 3.362"/>
        <path id="path2388" d="M102.003-358.406c-1.115.484-.998 2.554.147 2.995 1.659.645 2.613-2.628-.147-2.995"/>
        <path id="path2394" d="M105.88-391.466c-.324.426-.543.323-.207.998.133-.338.133-.676.207-.998"/>
        <path id="path2396" d="M106.349-385.624c-.44.176-.646.499-.676.998.236-.322.441-.661.676-.998"/>
        <path id="path2398" d="M106.466-343.227c.147.705 0 .969.895.983l-.895-.983"/>
        <path id="path2400" d="M108.14-340.672c0 .557.411.865.998.91-.324-.308-.66-.602-.998-.91"/>
        <path id="path2404" d="M110.929-335.593c-.719.705-.484 1.028.675.983-.234-.338-.44-.661-.675-.983"/>
        <path id="path2408" d="M117.358-386.02c-1.731 2.54-.352 4.727 2.672 3.758.469-.293.969-.557 1.483-.792.571.104 1.16.176 1.731.162 1.101-.543 3.01-.103 3.525-1.541-.809.103-1.322-.309-1.484-1.087-1.29 1.806-6.017-1.175-7.927-.5"/>
        <path id="path2414" d="M127.754-438.502c-1.015-.234-1.117.088-.296.983.147-.336.207-.66.296-.983"/>
        <path id="path2416" d="M129.838-445.637c.587-1.248-1.146-5.196-2.673-3.479 1.615.456 1.058 2.804 2.673 3.479"/>
        <path id="path2418" d="M127.754-384.537c-1.425 1.498 2.23 1.586 2.936 1.586 1.922.029 4.785.322 6.282-1.175-3.053-.455-6.253.676-9.218-.411"/>
        <path id="path2422" d="M133.391-382.262c-2.115.455-.177 5.3.91 6.049.44-.764-.412-5.27-.91-6.049"/>
        <path id="path2424" d="M140.335-360.168c1.452-.733 4.623-1.204 5.563-2.598 1.175-1.747.528-3.039-1.293-3.45 1.44-1.63-1.717-2.643-2.803-2.907-2.041-.514-3.86.117-5.901.352-2.481.264-2.996 1.498-1.879 3.891 1.16 2.51 4.007 3.479 6.313 4.712"/>
        <path id="path2426" d="M140.525-450.891c.264-.793 0-1.586-.69-2.085.19.705.426 1.409.69 2.085"/>
        <path id="path2428" d="M140.921-453.167c1.071-1.131 1.351-2.863 1.145-4.36-.133-.763-.777-3.024-1.483-1.204-.483 1.262.97 2.261.5 3.214-.441.882-1.322 1.543-.162 2.35"/>
        <path id="path2432" d="M147.159-402.565c-1.233-.527-2.217 2.261-1.378 2.966 1.438 1.234 1.584-2.217 1.378-2.966"/>
        <path id="path2434" d="M147.159-398.483c-1.188.617-.587 2.48.809 2.07a6.452 6.452 0 0 0-.809-2.07"/>
        <path id="path2438" d="M148.158-415.924c-.293.47-.146.646.293 1.086a20.362 20.362 0 0 1-.293-1.086"/>
        <path id="path2440" d="M150.243-402.065c-.338.44-.676.851-1 1.292-.352-.324-.674-.661-.997-.998-.896 2.76.44 1.747 1.293 3.67.204.411-1.088 2.231.293 1.908.72-.177 1.526-.587 1.791.367.307 1.116 4.257-.748.955-1.659-1.352-.381-1.66-1.145-.941-2.319.455-.734-1.012-1.85-1.394-2.261"/>
        <path id="path2442" d="M148.849-410.184c-.25.469-.455.338 0 .983v-.983"/>
        <path id="path2444" d="M149.332-388.707c-1.526 1.204-.72 3.347 1.088 3.582.776.118 1.453-.499 2.231-.499.821 0 1.629.264 2.465.323 2.819.147 0-2.554-.793-2.994-1.847-.94-3.17-1.835-4.991-.412"/>
        <path id="path2446" d="M149.243-414.544c-.233-.029-.469-.074-.688-.088.19.382.424.749.688 1.086v-.998"/>
        <path id="path2452" d="M151.828-405.824c.118 1.233-.41 2.511.454 3.583.838 1.027 1.733 1.526 2.217 2.847.529 1.424 3.201 4.522 4.464 3.759-3.597-3.671-4.008-8.104-4.728-12.816-.293-2.041-.22-3.729 2.319-2.423 2.174 1.102 5.315 1.762 7.737 1.982-1.526-.749-1.541-2.599-2.774-3.567-1.233-.969-4.728-.807-3.201-3.333.999-1.688 3.656-1.747 4.17-3.832.337-1.409-.676-3.788 0-4.815-2.555-.645-5.329 1.85-6.341 3.95 2.348.103 0 1.35-.617 1.6-1.425.573-.808 2.114-1.483 3.171-.69 1.086-2.187-.03-2.627-.764-.793-1.291.851-2.114 1.731-2.701 1.806-1.189 2.996-4.859 1.996-6.959-.425-.88-1.937-1.204-1.556-2.407.323-1.144 1.907-1.85 1.467-3.229-2.437.015-3.521 3.083-4.11 4.962-.614 1.997-2.2 5.549-1.848 7.516a7.862 7.862 0 0 0 1.145 2.819c.234.382.527.676.939.852-.66.821-.881 1.834-.794 2.877.134 1.35.604 2.128 1.41 3.142.821.999.25 2.657.147 3.787"/>
        <path id="path2454" d="M150.536-391.76c-.352.264-.733.528-1.085.792.733.088 1.438-.029 2.084-.396-.339-.132-.677-.279-.999-.396"/>
        <path id="path2456" d="M149.935-366.921c-.603.838-.339 1.175.808.999-.265-.324-.545-.661-.808-.999"/>
        <path id="path2458" d="M151.418-368.183c-.235.353-.353.748-.295 1.174.383 0 .735-.058 1.087-.19a5.13 5.13 0 0 0-.792-.984"/>
        <path id="path2462" d="M154.002-371.061c-.324.499-.647.998-.983 1.482.776-.16 1.159-.69.983-1.482"/>
        <path id="path2464" d="M175.301-364.425c2.218 1.262 4.478 2.158 6.504 3.744 2.349 1.835 2.672-.925 2.291-2.76-.235-1.13-1.733-1.498-1.968-2.569-.234-1.115-.234-2.348-1.35-3.023-1-.588-1.396-1.395-2.717-1.131-1.336.25-2.612.074-3.698-.792-1.058-.837-2.423-1.469-3.804-1.425-1.379.029-2.026 1.16-3.229 1.425-1.071.234-1.483-.325-2.055-1-.205-.249-3.567.176-4.052.133-4.638-.323-9.513 2.965-7.619 8.104 0-1.058 1.483-5.3 2.981-4.963-.5 1.395 1.995 3.627 3.184 3.847.486.103 6.063-4.522 4.728-.969.866-.19 6.003 1.879 6.299.117.25-1.528 4.241-.265 4.505 1.262"/>
        <path id="path2466" d="M154.588-363.045c-.778.381-1.379 1.16-1.188 2.085 1.159-.148 1.98-1.058 3.082-1.38-1.056 1.775 1.424.087 1.19-1.601-1.117.073-1.91 1.131-3.084.896"/>
        <path id="path2468" d="M156.174-433.07c.308-.44.515-.294.147-.983 0 .337-.147.66-.147.983"/>
        <path id="path2470" d="M157.76-429.796c3.713-.836 5.094-4.007 2.877-7.326-.44 1.057-1.644 1.352-2.38 2.143-1.262 1.366-1.305 3.612-.497 5.183"/>
        <path id="path2474" d="M158.963-363.94c-.294.367-.339.777-.146 1.188.41-.19.792-.455 1.101-.792-.338-.132-.66-.265-.983-.396"/>
        <path id="path2478" d="M160.446-364.22c-.367 1.028.44 1.894 1.48 1.38-.144-.778-.673-1.35-1.48-1.38"/>
        <path id="path2482" d="M169.27-405.824c.497.881 1.29 1.616 2.26 1.983-.691-.72-1.38-1.527-2.26-1.983"/>
        <path id="path2484" d="M175.89-381.763c.674.22 1.364.396 2.069.484.765 0 1.174-.705 1.996-.587-.808-1.085.852-1.628 0-3.288-.938-1.792-4.873 1.16-6.459 1.409a2.55 2.55 0 0 0 2.379 1.981"/>
        <path id="path2486" d="M174.804-392.171c-.412.206-.779.47-1.103.807.941.514 1.321.25 1.103-.807"/>
        <path id="path2488" d="M177.283-405.735c.161.337.323.675.5.998.133-.822-.148-.558-.5-.998"/>
        <path id="path2490" d="M183.713-400.583c4.141 1.16 0-2.804-.879-3.758 1.159-.161 1.937 1.101 2.553 1.835 1.19 1.408 1.498.205 2.644.763 2.144 1.085 2.348-1.997.778-2.849-1.483-.821-9.19-1.967-9.352.94 1.967-1.321.881.823-.31.396.955 1.218 3.099.396 2.687 2.569.133-.735.647-1.322 1.381-1.483.205.516.366 1.045.498 1.587"/>
        <path id="path2494" d="M180.836-395.93c-.353 1.879 4.669 1.219 4.169-.688-1.071 1.188-2.848.278-4.169.688"/>
        <path id="path2496" d="M182.834-400.773a2.913 2.913 0 0 0-1.41 1.175c.867.528 2.804-.589 1.41-1.175"/>
        <path id="path2500" d="M185.594-395.136c-3.76.617-2.276 3.259-.236 5.27 1.174 1.159 3.523-4.625.236-5.27"/>
        <path id="path2506" d="M188.073-393.933c-.308.441-.616.235-.396.984.148-.338.264-.661.396-.984"/>
        <path id="path2508" d="M188.675-357.29c.162.616.134.865.882.983-.293-.338-.603-.661-.882-.983"/>
        <path id="path2510" d="M189.938-358.583c-.851-.132-.747.205.324.984-.148-.338-.222-.66-.324-.984"/>
        <path id="path2522" d="M209.963-356.895c-.397 1.365 2.318 1.659 2.965 2.364-.765-1.087-2.202-1.291-2.965-2.364"/>
        <path id="path2392" d="M103.193-286.796c.543.411.47.851 1.291.498.279 1.469-2.422 1.939-2.686 3.876 1.188-.367 2.378-.043 3.582-.279 1.571-.294 2.731-1.967 4.316-2.011 2.555-.06 3.405-.793 5.109-2.701 1.101-1.205 2.935-2.76 3.375-4.287.704-2.32-.703-.456 1.336-1.145 0 0 .338.059.75-1.028-.441-.073-.529-1.32-.529-2.319 2.246-2.965-.983-3.465-.969-3.611-4.11 1.673-.91 2.554-5.725 3.479-1.205.234-.279 3.655-1.117 4.184-.851.543-1.072-1.277-1.672-.5-.588.778-2.555-1.997-2.995-1.042-.412.955-3.699 5.844-4.066 6.886"/>
        <path id="path2346" d="M57.847-308.964c-.706.264-.941.764-.706 1.468.924-.073 1.144-.719.706-1.468"/>
        <path id="path2278" d="M-86.063-327.989a3.101 3.101 0 0 0-1.088.808c.954.514 1.307.249 1.088-.808"/>
        <path id="path2280" d="M-70.416-333.626c-.867-.69-5.3-1.512-6.151-.705-.133-2.789-2.717.881-3.053 1.791-.367.939-.412 5.432-2.379 3.67-.338 1.468-1.262 2.657-1.791 4.052-.587-1.38-1.85-1.013-2.876-.382 3.2 1.542 6.973-.324 9.835 1.688.909.632 2.202.676 3.169 1.146 1.586.749-.615 1.894-.851 2.98-.631 2.936 7.81 2.422 9.367 2.7 3.024.545 5.506 2.746 8.514 3.523.94.236 2.246.559 3.172.074 1.012-.514.776-1.394 2.201-1.424 3.655-.118 7.341.763 10.747 1.879 4.198 1.41 8.249 3.641 12.566 4.64 1.791.411 4.358.029 5.958.822 1.646.792 3.056.059 4.86.235 3.684.352 7.794 2.642 11.186.322 2.745-1.879 5.946 1.556 8.323 2.79.793.412 5.696.719 5.58 1.292-.176 1.028 1.365 1.644 2.187 1.233.631-.309-1.013-2.378-1.188-2.657-1.675-2.569.337-5.095.587-7.737.146-1.659-1.483-1.967-2.672-2.349-2.055-.646-2.702.265-4.61.059-1.791-.176-4.258 1.145-5.828.367-.983-.485-3.862-1.453-4.301-2.54-.412-.94 1.35-5.359-.955-3.406.455-1.468-.808-2.892-.691-4.375-1.351.689-3.141.22-4.565.353-.557-.059-1.013-.309-1.396-.749-.969-.866-1.996-.22-3.053-.778-.558-.293-1.498-2.613-2.451-1.439-.955 1.146-2.878.94-3.598-.353-1.76-3.053-3.787-3.434-5.226.368-.469 1.277-1.321 4.183-3.274 3.552-1.1-.367-1.321-.924-2.538-.836-.999.059-2.027.323-3.025.103-1.938-.426-2.745-.323-4.61-.206-1.085.073-2.817-1.365-3.787-.837-3.919 2.114-4.758-3.361-6.254-5.461-1.367-1.937-1.117-.146-2.35-.146-1.467 0-2.729-2.114-4.241-1.35-1.453.719-2.437-1.176-3.317-1.909-1.455-1.233-2.541-.734-4.156-1.688-.293 1.394-1.674 3.303-3.067 1.674"/>
        <path id="path2296" d="M-49.423-314.307c.132 1.027 1.365.939 2.07.983a6.28 6.28 0 0 0-2.07-.983"/>
        <path id="path2308" d="M-5.75-323.717c-.999-.162-3.582 1.834-2.393 2.833 1.131.939 3.803 1.732 3.979.147 1.615 1.908 3.698.792 5.622.117.808-.293 1.659-.528 2.51-.323-.176-1.35 1.292-1.306 2.172-1.585-.353-1.981-2.994-1.526-4.403-1.321-2.467.337-5.065-.528-7.487.147"/>
        <path id="path2310" d="M-7.629-337.59c-.793.132-.954.706-.69 1.38.926-.014 1.131-.617.69-1.38"/>
        <path id="path2312" d="M8.608-321.736c.147.735 0 1.058.895 1.087a10.528 10.528 0 0 0-.895-1.087"/>
        <path id="path2314" d="M9.503-309.463c-1.291 2.438 1.968 3.626 3.656 4.419 1.057.499 1.894 1.014 2.613 1.952 1.293 1.703-.322 1.263-.41 2.482 0 .807 3.2-2.863 3.332-2.922 1.35-.469 4.713-1.805 3.024-3.581-1.219-1.292-3.626-3.099-5.461-2.085-2.086 1.145-4.698 1.174-6.754-.265"/>
        <path id="path2316" d="M10.589-320.854c.295.25.603.25.983 0h-.983"/>
        <path id="path2318" d="M18.913-324.421c-.836.455-1.027 1.218-.293 1.893.75-.938 2.012-1.086 3.083-.602-.471-1.189-1.718-1.218-2.79-1.291"/>
        <path id="path2320" d="M20.586-300.948c.324-.528.324-1.057 0-1.585a3.56 3.56 0 0 0-.983.895c.338.22.662.455.983.69"/>
        <path id="path2322" d="M28.926-307.98c-1.44.72-3.201 2.041-3.039 3.861.16 1.454-.352 3.788-2.217 2.29-1.526 2.363 6.43 1.703 6.723 2.07-.645-1.454 1.439-4.228 2.144-5.402 1.071-1.806-2.246-3.333-3.611-2.819"/>
        <path id="path2328" d="M44.751-299.568c2.143-1.085 4.257-1.454 5.46-3.758.44.764-.588 2.349.191 2.76.837.44 1.424.103 2.217-.206.969-.382 1.762.176 2.731.323-.5-.646-1.146-1.027-1.967-1.086 1.878-1.145 4.608.998 5.137-2.084-1.703 2.128-1.498-1.821-1.907-2.643-.999-1.997-3.084.059-3.025 1.556-.324-1.498-1.453-4.022-3.141-2.143-1.293 1.424-2.379-1.38-3.024-2.115-.955-1.056-4.903-.235-3.758 1.527 1.379 2.172 3.215 2.687 5.359 3.904-.662.91-2.482 1.395-3.51 1.63-1.791.396-1.996-1.248-2.744-2.364-1.733-2.613-7.194-1.688-9.014.382-.867.998 0 2.554-.779 3.567-1.086 1.365.851 2.452 1.938 2.746.705.176 1.277.205 1.848-.235 1.088-.852 1.057-.293 2.438-.353 1.968-.072 3.583-2.055 5.55-1.408"/>
        <path id="path2330" d="M41.286-305.896c.705-.837 1.086-1.864 1.688-2.774-2.069-.939-1.893 1.498-1.688 2.774"/>
        <path id="path2342" d="M55.055-292.229c.941 2.452 3.229 2.379 5.461 2.614 2.614.293 4.712 2.73 6.284 4.624 2.979 3.539 9.821.338 6.239-3.626-1.102-1.232-1.952-2.26-3.598-2.26 0 0-2.583-3.171-2.906-3.464-.25-.234-4.653-.162-4.86-.03-2.038 1.321-4.886-.764-6.62 2.142"/>
        <path id="path2350" d="M61.397-305.411c-.557.925-1.232 1.997-.293 2.995 0-1.38 2.731-2.041.293-2.995"/>
        <path id="path2352" d="M63.085-303.429c.279.779.176 1.512-.293 2.187 1.322.324 1.101-1.204 1.379-1.981-.366-.074-.733-.132-1.086-.206"/>
        <path id="path2354" d="M66.741-300.846c1.057-.573 3.098.074 4.332-.073 1.129-.118 2.849.132 3.963.353 1.219.263 1.865 1.614 3.274.983.97-.44 3.289.411 2.906-1.468 3.055 1.292 4.375.44 7.356-.631 1.981-.734 8.911.249 7.897-3.729 1.367.264 1.219-1.438 2.481-1.468-.572-1.645-2.32-4.081-2.789-.895.617-.396 1.291-.456 1.981-.206-1.364 1.571-3.832 1.688-4.889 3.626-1.233 2.348-3.36.792-4.696-.44-1.248-1.174-2.805.764-4.141.234-.705-.294-.66.264-1.114.69-.706.66-2.056-.484-2.556-.867-1.731-1.232-4.434-2.011-6.458-2.496-3.215-.734-4.229.471-6.901 1.791-1.336.675-2.202.661-2.349 2.511-.147.955.294 3.803 1.703 2.085"/>
        <path id="path2356" d="M74.185-336.899c-1.688.571-.867 6.854-.5 8.117.339-2.715.956-5.373.5-8.117"/>
        <path id="path2358" d="M75.064-322.234c-.307.499-.307.983 0 1.498.383-.206.72-.47.984-.807-.322-.221-.646-.457-.984-.691"/>
        <path id="path2360" d="M76.753-319.268c.279.851 1.498.411 1.983.205a6.473 6.473 0 0 1-1.983-.205"/>
        <path id="path2362" d="M81.113-279.544c.339.146.676.073.984-.206-.322.059-.645.132-.984.206"/>
        <path id="path2364" d="M83.183-280.249c0 .161-.117.323-.205.499.793.294 1.967.074 2.612-.47.309-.265.398-.587.236-.954-.676-1.248-1.836.499-2.643.925"/>
        <path id="path2374" d="M94.78-277.665c-.44.646-.47 1.292-.145 1.981 1.671-.954 4.212-2.613 6.047-3.082a16.008 16.008 0 0 1-.91-1.983c-1.879.867-2.936 2.334-5.035 3.083"/>
        <path id="path2380" d="M97.555-304.413c.132.294.19.588.28.881a4.755 4.755 0 0 1 1.703-1.761c-.824-.03-1.469.264-1.983.88"/>
        <path id="path2382" d="M99.626-307.187c-.471.396-.676.895-.676 1.482.822-.102 2.76.265 3.053-.88.381-1.468-1.703-.998-2.377-.602"/>
        <path id="path2384" d="M101.299-284.903a2.644 2.644 0 0 0-1.175 2.07c1.293.177 1.542-1.115 1.175-2.07"/>
        <path id="path2390" d="M102.913-307.29c.25.308.486.646.676.998-.764.324-1.996.881-2.26 1.762-.472 1.557 2.465.381 3.053.821-.206-1.878 2.671-3.376 4.169-3.67-1.938-2.128-2.936.632-4.271 1.278.659-1.423-.339-1.336-1.367-1.189"/>
        <path id="path2402" d="M108.933-306.497c-.412.411-.617.91-.588 1.482.853-.191 1.601.234 1.998.984.791-.823 2.437-2.849 1.365-4.053-.544 1.117-1.718 1.293-2.775 1.587"/>
        <path id="path2406" d="M114.277-308.964c-.574.632-1.35 2.275.498 1.292-1.026.44-1.921 1.38-1.981 2.555 2.437-.22 5.256-.016 7.53-1.057 1.455-.646.955-2.173-.469-2.408-.851-.146-1.586.206-2.422.118-1.072-.088-2.069-.646-3.156-.515"/>
        <path id="path2410" d="M126.563-308.758c-.777-.088-1.351 1.234-1.482 1.761a2.623 2.623 0 0 0 1.482-1.761"/>
        <path id="path2420" d="M128.047-310.343c2.055-1.733 4.081-1.351 6.547-.911 1.292.22 2.614-2.306 4.258-2.276-2.173-2.657-3.274-1.703-6.371-.499-.882.337-1.498-.455-2.217-.132-1.336.574-2.013 2.497-2.217 3.818"/>
        <path id="path2430" d="M145.589-316.392a2.545 2.545 0 0 0-.601 1.777c.881-.308 1.291-.999.601-1.777"/>
        <path id="path2436" d="M147.659-308.582c-.234 1.175.146 1.249.999.206-.324-.06-.662-.132-.999-.206"/>
        <path id="path2450" d="M149.053-309.359c-.44 1.717 2.834 2.304 3.157.381-1.087.206-2.143-.074-3.157-.381"/>
        <path id="path2460" d="M152.313-308.083c0 .294.132.603.132.896.383-.25.705-.543.983-.896h-1.086"/>
        <path id="path2472" d="M158.553-321.647c-.44.264-.677.675-.677 1.19 1.058.131 1.293-.28.677-1.19"/>
        <path id="path2476" d="M160.137-308.273c.323.675.853.984 1.586.895-.147-.837-.793-1.204-1.586-.895"/>
        <path id="path2480" d="M168.563-312.927c-.881.763-.44 2.643.851 2.613 2.467-.029 1.351-2.877-.851-2.613"/>
        <path id="path2492" d="M180.043-306.38c1.614-.557 3.098-1.57 4.463-2.584-1.703.647-3.42.485-4.463 2.584"/>
        <path id="path2498" d="M181.834-316.494c-.177.851.147.88 1 .102-.339-.029-.677-.088-1-.102"/>
        <path id="path2502" d="M183.597-317.478c-.146.264-.309.528-.47.792.793.265 1.321-.102 1.483-.895-.339.015-.676.074-1.013.103"/>
        <path id="path2504" d="M190.262-321.061c-1.646.104-6.24 5.579-4.668 7.047-3.2-1.482-.97 6.577.645 2.848.734-1.645 2.511-2.452 3.393-4.022.733-1.292-.134-4.229 1.512-4.786-.237-.396-.561-.763-.882-1.087"/>
        <path id="path2512" d="M191.348-321.061c.514.881 1.703.646 2.379 1.41 0-1.366-1.382-1.468-2.379-1.41"/>
        <path id="path2516" d="M202.724-338.191c-.248-.309-.571-.412-.983-.28.412.706-.265 2.907.676 3.215 1.497.456.571-2.392.307-2.935"/>
        <path id="path2518" d="M203.531-339.381c-.88-.176-.91.162-.146.998.001-.323.001-.661.146-.998"/>
        <path id="path2520" d="M203.531-334.331c1.762-1.321 3.538-5.989 4.141-8.103-1.497.528-1.321 1.996-1.836 3.2-.719 1.717-1.776 3.053-2.305 4.903"/>
        <path id="path2524" d="M216.891-332.334c-.265 1.204-.498 2.877.5 3.86-1.998-.103-2.658 5.858.646 4.272 4.285-2.025 1.496-6.165-1.146-8.132"/>
        <path id="path2534" d="M222.734-327.284c-.705.44-.793 1.366-.499 2.084.528-.616.675-1.321.499-2.084"/>
        <path id="path2536" d="M222.734-328.973c-.911.543-.793.867.381.984-.116-.323-.249-.646-.381-.984"/>
        <path id="path2538" d="M224.113-328.782c1.174-3.582-.836-1.159 0 0"/>
        <path id="path2230" d="M-115.777-340.467c.279-1.321-1.66-2.877-2.657-1.571.954.456 1.35 2.07 2.657 1.571"/>
        <path id="path2202" d="M-190.456-474.762c1.498.47.719-1.439-.675-.999.22.339.442.677.675.999"/>
        <path id="path2204" d="M-166.968-468.332c-.881.514-2.01 1.277-3.113.969-1.026-.279-1.306-1.219-2.479-1.249-1.953-.059-3.655.954-5.667.763-2.363-.22-3.92-.999-5.475-2.774-1.146-1.322-4.346-3.171-6.092-1.939-6.475 4.522 9.219 17.206 11.7 20.523.939 1.277 2.231 1.321 3.67 1.586 2.377.439 3.156 3.111 4.241 4.874.838 1.35 2.541 4.727 3.979 5.344 2.496 1.057 1.526 3.494 2.231 5.725.66 2.114 2.834 1.585 4.433 2.701 1.029.719 2.041 1.499 3.055 2.232 1.262.895 2.525 1.82 3.611 2.937 1.512 1.556 0 1.731.528 3.464.543 2.07 1.439 4.066 1.996 6.166.617 2.231 2.203 4.551 2.041 6.884-.161 2.481 1.748.954 2.687 2.07 1.527 1.82 3.788 1.38 4.229 4.36.528 3.861 5.637 6.386 6.487 10.438.147.587-.822.646-.382 1.263a21.163 21.163 0 0 1 1.66 2.701c1.072 2.114 3.303 4.917 3.391 7.34.118 2.334 0 3.817 1.439 5.843 1.086 1.526 2.746 2.598 3.656 4.242 1.085 1.953 1.657 3.92 3.391 5.491 1.703 1.542 4.08 2.569 5.123 4.742 1.028 2.128.852 3.377 2.833 5.005 1.996 1.645 3.758 3.523 5.696 5.271 1.644 1.497 3.259 2.935 5.256 3.962 1.967 1.028 2.26 1.792 3.229 3.568.528.94 1.203 1.82 1.848 2.658.574.617 1.19 1.174 1.836 1.673.412.352-.131.763.44 1.115.367.265 3.656 4.552 3.684 2.292 0-1.322-1.262-2.35-1.409-3.671-.176-1.835 2.717.558 3.055.852 2.465 2.187 4.873 2.202 4.58-1.953 1.555 1.336 2.584 4.037 4.771 4.463 1.307.249 1.264-3.715 1.292-4.375.131-2.57.484-5.124.69-7.708.131-1.38.998-3.317.367-4.639-.471-.998-.793-1.585-.471-2.672.397-1.336 1.483-3.112 1.307-4.521-.148-1.057-1.322-1.101-1.043-2.525.235-1.233.983-2.32 1.6-3.376.676-1.146 1.205-1.63.94-3.054-.236-1.365-1.35-.807-2.114-1.615-1.043-1.086-2.701-4.712-2.084-6.136-1.19-.176-6.929-1.703-7.428-.485a17.566 17.566 0 0 1-.485-1.087c-1.249 1.572-1.425 3.773-3.275 4.859.559-.821 3.069-3.552.588-3.582 1.336-.543 2.937-1.703 2.701-3.348-.146-1.233-1.439-.807-2.217-1.276-.776-.471-1.217-2.512-1.394-3.303-.529-2.319-1.086-4.522-1.38-6.9-.176-1.469-4.463-1.63-5.726-1.336-.998.234-2.877-1.717-3.61-2.319-1.219-1.014-.734-3.157-1.248-4.595.543.675 1.378.793 2.069.294-.265-1.146-1.379-1.292-2.379-1.38.823-.044 1.41-.617 1.6-1.38a6.494 6.494 0 0 0-1.981.19c1.174-.337 1.864-1.364 2.731-2.143.66-.602 2.377-.425 2.774-1.102.66-1.086-1.777-3.493-2.408-4.199-1.748-1.981-3.053-1.82-5.065-.381-1.586 1.116-5.549 3.934-7.252 1.688 3.523 2.012 10.276-4.214 3.875-5.652-1.026-.235-2.069.206-3.067-.19-1.131-.455-1.6-1.747-2.51-2.466-1.894-1.483-.838-4.551-2.877-6.123-.764-.587-1.557-1.497-2.378-1.967-.882-.5-2.027-.073-2.996-.587-1.556-.807-1.438-3.229-2.465-4.581-.5-.646-4.022-4.11-4.786-2.04-.603 1.541 1.262 3.494 1.468 4.976-.647-.646-.823-1.526-1.352-2.26-.865-1.219-2.466-1.396-3.509-2.379-1.731-1.644-1.921-4.257-3.567-5.945-.47.631-.558 1.335-.293 2.07-.264-.5-1.995-3.862-1.38-1.175-1.115-1.292.559-2.877-1.144-3.978-1.527-.999-2.703-2.73-4.199-3.846-1.732-1.292-3.142-3.361-5.124-4.228-.72-.309-1.481-.485-2.187-.808-1.233-.558-1.028-1.453-1.835-2.29-1.027-1.102-2.863-1.174-3.935-2.188-1.307-1.277.441-3.494-.983-4.653-1.674-1.381-2.01-1.396-2.76-3.583-.615-1.844-3.785-4.311-5.254-5.632"/>
        <path id="path2208" d="M-163.503-413.164c2.055 2.202 2.76-3.92 1.85-5.167-1.086-1.468-2.789-4.227-4.494-4.961-1.262-.529-1.981 1.233-3.303.44.207 1.835 1.836 3.201 2.644 4.786.483.998 1.629 1.321 2.188 2.245.529.837.631 1.82 1.115 2.657"/>
        <path id="path2210" d="M-167.378-430.193c0-.999-.735-2.627-1.967-1.688a8.267 8.267 0 0 1 1.967 1.688"/>
        <path id="path2212" d="M-154.989-400.187c.265-.881-.146-1.732-.791-2.291-.56.763-.969 1.909-1.176 2.79-.279 1.205 2.364 1.234 1.967-.499"/>
        <path id="path2214" d="M-156.78-405.824c.5 1.469 1.293 2.82 2.086 4.156.321-1.102-.543-4.332-2.086-4.156"/>
        <path id="path2216" d="M-154.313-425.143c.162-.764-.176-.764-.984 0h.984"/>
        <path id="path2218" d="M-151.729-406.91c-.279-1.321-2.348-1.101-3.067-.411.923.617 2.009.705 3.067.411"/>
        <path id="path2220" d="M-148.647-384.331c4.095-.588-2.304-8.604-2.202-10.512-.675.382-1.805.206-2.291.867-.674.969-1.114 2.833-.395 3.86 1.394 1.953 2.186 5.197 4.888 5.785"/>
        <path id="path2222" d="M-141.042-377.505c-.25-1.057-1.6-4.801-3.054-3.802-1.615 1.115 2.335 3.376 3.054 3.802"/>
        <path id="path2224" d="M-139.633-372.734c.309 1.174 1.674.617 2.085-.132.632-1.116-1.41-2.804-2.202-3.244-.41 1.115.323 2.217.132 3.361"/>
        <path id="path2226" d="M-134.995-366.113c0-.749-.66-1.336-.527-2.07.175-.969.748-.735.469-1.688-.207-.69-1.086-2.862-2.143-2.452-1.586.587 1.439 5.578 2.201 6.21"/>
        <path id="path2228" d="M-120.725-428.901c-.41-1.967-3.141-2.568-3.846-.439-.396 1.174.353 2.847 1.646 3.111 1.583.308 1.643-1.761 2.2-2.672"/>
        <path id="path2232" d="M-113.4-423.763c-1.467-.616-3.185-.528-4.565-1.379-.264 1.438.94 2.114 2.157 2.32 1.19.22 1.836 1.321 2.703 2.025 0-.998.131-2.012-.295-2.966"/>
        <path id="path2234" d="M-113.209-420.092c-.601-1.027-1.496-2.173-2.759-2.379-.323 1.821-.147 5.051 2.172 5.462.353-.999.177-2.086.587-3.083"/>
        <path id="path2236" d="M-107.161-415.131c-.69-1.307-2.024-2.201-3.42-2.598-.764-.22-1.469-1.336-1.967-1.424-.573-.118-1.1 3.171-.397 3.64 1.614 1.087 3.979-.029 5.58 1.365 0-.337.147-.66.204-.983"/>
        <path id="path2238" d="M-105.97-415.924c-.426-1.702-5.798-4.991-5.065-1.997 2.069-.909 2.965 2.644 5.065 1.997"/>
        <path id="path2240" d="M-104.577-412.752c-.147-.706-.586-1.116-1.291-1.205-.5.749-.412 1.41.293 1.983.353-.22.691-.484.998-.778"/>
        <path id="path2242" d="M-103.196-418.008a2.575 2.575 0 0 0-1.087-.896c-.147.838.28 1.175 1.087.896"/>
        <path id="path2244" d="M-102.404-414.544c-.249-.777-.851-1.292-1.703-.998 0 .836.529 1.541 1.205 1.996.175-.337.322-.675.498-.998"/>
        <path id="path2248" d="M-100.114-402.565c-.734-.499-3.42-.205-2.32 1.087.663.778 2.189-.323 2.32-1.087"/>
        <path id="path2252" d="M-97.854-416.833c.264-1.028-.146-1.233-1.086-.588.353.206.736.397 1.086.588"/>
        <path id="path2256" d="M-95.68-419.301c-.704-1.658-2.086.22-2.086 1.205 0 1.174 2.232-.088 2.086-1.205"/>
        <path id="path2258" d="M-95.387-415.233c.543-.984.293-1.308-.793-.984.264.323.543.646.793.984"/>
        <path id="path2262" d="M-90.233-418.008c-1.424-3.464-5.389-.206-3.729.412 1.1.411 1.6-.662 1.953 1.174.352 1.82 1.819-.823 1.776-1.586"/>
        <path id="path2264" d="M-94.301-414.147c0-.382-.131-.749-.279-1.085.134.366.191.718.279 1.085"/>
        <path id="path2266" d="M-92.098-401.668c-.486.367-1.41.571-1.996.748-1.088.353.762 2.526.879 3.113 0-.983.587-1.292 1.409-.675.25-1.191 1.117-2.35-.292-3.186"/>
        <path id="path2268" d="M-92.686-407.703c-.572.617-.353.969.676 1.087-.236-.368-.455-.735-.676-1.087"/>
        <path id="path2270" d="M-91.717-405.824c.133.706-1.101 3.319.381 3.113.853-.103 1.353-.557 2.188-.146.851.44 1.571 1.144 2.584.587-.514-.822-4.184-3.657-5.153-3.554"/>
        <path id="path2272" d="M-90.719-414.955c-.352 0-.674.059-.998.22.323-.073.661-.131.998-.22"/>
        <path id="path2274" d="M-91.32-408.29c-.455.955.984 1.732 1.601 2.071a27.673 27.673 0 0 0-1.601-2.071"/>
        <path id="path2282" d="M-83.084-385.33c1.145 1.585-1.792 2.32-2.394 3.376 1.219.969 2.158 1.791 3.772 1.175 1.103-.396 2.937.543 3.246 1.673.278.998 1.041 2.202 1.188 3.083.396 2.026-.793 2.863 1.498 4.125.998.545 5.475 3.979 6.547 3.01 1.071-.969-.558-1.424-.896-2.231-.514-1.263 1.043-3.567 2.276-3.817-1.557-.939-3.7-.47-5.153-1.673-1.336-1.101-1.806-3.817-1.66-5.432.147-.968-.557-4.081-1.203-4.874-1.821-2.231-4.17.338-2.495 2.378-.69.103-4.595-5.285-4.726-.793"/>
        <path id="path2286" d="M-67.934-371.266c-.295.103-.588.206-.895.293.205.823.821 1.175 1.584.704a6.389 6.389 0 0 0-.689-.997"/>
        <path id="path2290" d="M-61.006-372.147a2.974 2.974 0 0 0-1.203.778c.777.367 1.233.073 1.203-.778"/>
        <path id="path2292" d="M-58.539-375.317c-1.307 1.32-1.615 3.611-1.469 5.372.147 1.879 2.908 2.863 2.467.867.793.044 2.026 2.304 2.848 1.512 1.085-1.087 2.217-3.303 2.041-4.903-.265-2.35-3.994-3.245-5.887-2.848"/>
        <path id="path2294" d="M-55.369-451.597c.852.146 1.63.632 2.173 1.292-.807-.5-1.322-.074-1.38.793 2.467.352 3.141-2.115 2.202-3.964-1.702-3.318-3.802-.69-2.995 1.879"/>
        <path id="path2298" d="M-48.234-385.33c.412.043.807-.03 1.19-.191a2.348 2.348 0 0 0-1.19.191"/>
        <path id="path2302" d="M-45.181-387.106c-.557-.44-1.115-.44-1.672 0 .233.396.529.72.896.984.307-.295.57-.617.776-.984"/>
        <path id="path2306" d="M-36.754-393.434c-1.557-2.217-4.727 1.233-2.76 3.157.939-.925 3.377-1.366 2.76-3.157"/>
        <path id="path2324" d="M31.201-366.7c-3.596-1.513-2.437 7.619-1.688 8.822.94-1.571 1.967-1.087 1.821-3.23-.133-1.673-.793-3.992-.133-5.592"/>
        <path id="path2326" d="M32.772-365.218c-1.117.206-1.029 1.41-.295 1.982.148-.66.265-1.307.295-1.982"/>
        <path id="path2332" d="M43.37-445.431c-.22.895.147.998 1 .294-.339-.103-.676-.206-1-.294"/>
        <path id="path2334" d="M44.575-446.634c-.44.955.469 1.791 1.262 2.084.147-.895.147-2.407-1.262-2.084"/>
        <path id="path2336" d="M44.868-454.563c0 .853.515 1.439 1.381.999-.148-.792-.617-1.173-1.381-.999"/>
        <path id="path2338" d="M45.25-401.361c-.308.28-.439.646-.396 1.087.133-.368.264-.734.396-1.087"/>
        <path id="path2340" d="M46.954-448.308c0 .704.396 1.174 1.086 1.38 0-.719-.412-1.203-1.086-1.38"/>
        <path id="path2344" d="M55.555-433.364c0 .705.41 1.277.999 1.688a23.983 23.983 0 0 0-.999-1.688"/>
        <path id="path2554" d="M-45.768-416.128c1.291-.853.412-1.763.69-2.922.367-1.512 2.539-1.6 2.774-3.317a8.019 8.019 0 0 1-1.674 1.982c-1.205-1.792.293-3.523 1.438-4.844.734-.852.955-1.675 1.351-2.702.486-1.336 2.203-1.644 3.157-2.554-.176 1.218-1.807 2.73 0 3.465.249.103.924 2.995 1.453 3.552 1.498 1.658 4.227 2.951 5.196 5.065.381.808 2.07 1.512 2.877 1.938 1.526.777 3.641-.763 4.963-1.336 2.583-1.174 5.079.352 7.839.103 1.115-.103 2.113-.955 3.083-1.483 1.468-.777 1.057-2.687 2.173-3.89 1.144-1.248 6.987-2.525 7.897-.603.853 1.821 6.21 3.553 7.913 2.511 1.481-.911 1.805-2.363 3.801-1.674.983.338 1.762-.469 2.614-.807.703-.279 1.527.631 2.23.587-.381-1.907 3.672-6.047 2.555-7.281-1.908-2.128 2.378-4.844 3.994-5.388-.955-1.16-2.717-5.447.205-5.798 3.701-.44.94-2.716 3.024-4.728.822-.793-.219-3.963-.117-5.314.117-1.233.441-2.79.984-3.906.484-.968 1.468-1.424 1.718-2.539 1.938.719 2.436 1.101 4.521.22.689-.309 2.422 2.319 2.613-.425 1.321 1.306 3.875.983 5.548.822 2.158-.191 3.465 2.144 5.549 1.952a4.52 4.52 0 0 1-2.084.793c.381.323 4.096 3.436 1.586 2.172.498.367 1.819.617 2.083 1.204.264.617.235 1.204.969 1.468-1.19 1.526-3.112.587-3.641-.983.235.675.323 1.366.279 2.085-1.072-.661-2.951-.603-4.066-.104 1.424.558 2.158 1.997 3.684 2.378-.397.792-.573 2.496-1.893 1.879.969 1.263 2.408 1.791 3.875 2.29-1.203 1.38 1.117 1.498-.793 1.776.646.03 1.293.19 1.879.499-1.967.542.5 1.659 1.248 2.569.853 1.056 1.6 2.202 2.305 3.362.881 1.453-.969 4.331-2.671 4.271 1.116.382.557 1.497 1.424 2.202 1.248 1.042 2.496 2.114 3.803 3.083 1.041.792 1.658 2.114 2.877 2.554 1.644.587 2.803 2.261 3.89 3.553.457.528 1.66.102.809 1.409-1.014 1.616-2.702.823-4.126 1.527-2.349 1.204-5.123-2.084-6.988-2.848.853 1.263 1.526 2.848-.484 2.965-1.821.088-2.393 2.878-2.848 4.242-1.248 3.642-1.85 7.826-1.614 11.612.528-.587 1.174-.925 1.967-.983-.25.808-1.557 1.792-.588 2.172-.938.573-.938 1.395 0 1.982-1.291.352-2.715 1.908-3.053.089-.412 2.554-5.167 7.956-5.858 2.788-.998 1.806.69 3.215-1.336 4.639-.938.645-.498 1.659-1.145 2.481-.763.954-2.172.924-2.877 1.982 3.112-1.175 2.085 3.141.602 4.257.779.763 2.333-.279 2.979.499.647.765-.631 3.7-1.086 4.375-.557-.646-1.217-.822-1.995-.499 1.938 1.674-.603 7.076-1.967 4.346-.381 1.204.617 2.231 1.291 3.082-2.729.499-1.894 4.639-4.199 5.563-2.51 1.013-5.035 2.716-7.604 3.832-.674.293-5.975 3.905-5.754 1.878.146-1.232 0-2.584 0-3.846.146-1.792-1.071-3.259-.631-5.08-2.012 1.982-3.391 1.233-1.983-1.469-.91 1.528-2.937 2.526-2.479-.205-.221 1.453-4.038 4.815-5.153 2.584-.381-.763.674-1.366 0-2.173-1.365-1.498-2.82 1.204-3.201-.807.44 2.29-2.51-1.776-2.789-2.774 0 2.069-2.202 4.374-3.964 5.284-1.848.939-3.448-1.703-5.225-.411-.646.455-3.142 4.051-3.626 1.703-.603-2.819.367-5.358-1.146-8.163-1.188 3.083-1.601 1.644-3.875 1.586-.955-.03-1.732.793-2.481 1.262-1.394.881-2.32.088-3.729-.162.44-.513.94-.969 1.469-1.394-1.145.176-1.527 1.674-2.76 1.498.515-3.024-2.524-1.352-3.757-.411-1.455-1.792-.293-4.787-.94-6.871-.424-1.41-.176-2.908-.424-4.346-.222-1.204-2.1-2.172-1.983-3.229 0-.264 1.071-1.542 1.205-1.908.44-1.321.674-2.466-.147-3.7-.557-.822-.674-1.732-1.146-2.525-.571-.969-1.791-1.335-1.731-2.671-.293.353-.589.675-.882.998-1.071-2.025-2.171-.176-3.61-1.042-.824-.485-.309-1.395 0-1.953.367-.557 1.688.088 2.158.103-.779-.426-1.249-1.483-2.1-1.688-.646-.176-1.468-.059-1.879-.69-.572-.895-.91-4.551.91-3.45-.484-1.277-1.263-2.818.294-2.966-1.321-1.761-3.083-3.273-3.538-5.49-.191-.925-1.072-3.934-.22-4.726"/>
        <path id="path2556" d="M41.11-447.721c0-.235.133-.47.133-.705 1.055.162 2.039.588 2.964 1.102-1.043.19-2.085-.059-3.068-.396"/>
        <path id="path2558" d="M45.661-455.34c1.189-.162 2.774-.396 2.467 1.394-1.146.236-1.719-.791-2.467-1.394"/>
        <path id="path2564" d="M217.977-334.023c0 .808.412 1.512.998 2.07-.278-.469.207-3.347.412-3.992.528-1.659-1.233-.793-.72-2.246 1.351.69 2.218-1.542 2.774-2.334.984-1.38 2.261 1.571 2.246 2.319 0 1.953-.176 4.052-.278 6.02-.19 3.053-2.467 1.644-4.037.558 2.011 2.391-5.256-2.615-1.395-2.395"/>
        <path id="path2566" d="M220.355-330.954c.411.264 1.703 1.953.851 2.348-1.379.661-2.319-1.996-.851-2.348"/>
      </g>
      <g id="pg">
        <path id="path3962" d="M314.455-301.829c.471-2.011-2.715-2.848-4.067-3.288 1.455.91 2.922 1.996 4.067 3.288"/>
        <path id="path3964" d="M314.045-304.706c1.321-1.35-1.277-1.586-2.085-.793.66.382 1.35.645 2.085.793"/>
        <path id="path3966" d="M315.336-305.293c.148-.807-.381-1.072-1.085-.999.338.353.688.675 1.085.999"/>
        <path id="path3968" d="M316.027-309.359c.16-.69-.161-.808-.984-.308.323.102.645.204.984.308"/>
        <path id="path3970" d="M319.095-312.634c-.147-.557-.412-.88-.999-.998l.999.998"/>
        <path id="path3954" d="M286.505-297.088l1.995-25.146c-.161-1.717-1.688-2.583-1.306-4.463.337-1.584 1.218-3.494 1.806-4.815l2.334-43.307c1.513.617 4.713 1.645 6.18 2.379 4.054 2.07 7.752 5.005 12.229 6.181 2.204.572 4.479.249 6.593 1.174 2.467 1.057 4.037 3.083 6.239 4.448 1.746 1.086 2.068-.147 3.449.117 1.732.324 1.777 2.246 3.406 2.613 1.923.441 2.29 2.511 3.465 3.67 1.232 1.219 3.008.823 4.359 2.129 1.469 1.424 2.643 3.317 2.98 5.358.322 1.762-1.117 3.201-.881 4.698.294 2.172 5.577 2.613 7.163 3.2 1.601.587 3.466 1.791 4.964 2.642.733.411 1.011 1.174 1.878 1.38.998.265 1.967-.294 2.965 0 2.438.733 6.166 6.136 4.081 8.543-1.644 1.909-5.783.309-7.897.426-3.347.176-.146 7.031.881 8.529 1.174 1.761 3.098 3.009 4.36 4.771.808 1.116 3.01 3.157 4.624 2.496-.147 1.628.146 4.359.646 5.915.265.837.793 1.146 1.484 1.557.953.587.601 1.967.775 2.907.53 2.818 2.82 2.379 4.891 1.556 1.482-.587 4.021-.733 2.978 1.542-1.671 3.714-.176 4.83 3.585 5.035.719.03 3.508-.22 3.609.881.148 1.219-2.7 1.366-3.404 1.806.63.748.895 1.747 1.674 2.377.982.778 2.583.896 3.699 1.601 1.702 1.072 4.257 1.645 6.209.969-.982.44-2.333 1.439-3.479 1.233-.911-.162-1.879-.734-2.055.646 2.173.571 4.608 1.658 1.365 2.67-2.172.661-5.153 1.468-6.327-1.38.733.206 1.35.03 1.878-.499-.645-.353-1.188-.264-1.674.294-.13-2.041-3.215-1.879-4.638-1.981-2.466-.191-4.919-1.512-7.458-1.071.146-.368.206-.735.308-1.087-1.026.47-2.172.779-3.332.587-.808-.132-2.407-1.542-3.155-1.056-1.865 1.218-3.127-1.263-4.302-.148-.323-1.262-1.981-1.761-1.981-3.155 0-1.072-.809-2.452-1.425-3.274-.705-.94-2.069-.221-2.804-1.263-.574-.851-1.968-2.965-1.028-3.978-3.36-.441-2.848-1.982-3.743-4.272-.837-2.143-2.7-7.164-4.976-8.103-.75-.294-1.336-.911-1.952-1.41-.822-.661-2.086 0-3.053-.118-1.44-.206-2.907-1.174-4.392-1.453-2.642-.514-1.526-1.013-1.981-2.877 0 1.644-1.674.778-2.084-.103-.206 2.055-1.321.264-1.188-.587-.5.896-.839 1.777-1.293 0 0 .954.133 1.909.205 2.863a3.79 3.79 0 0 0-1.894-1.38c-.321 4.462-5.623-2.1-6.225-2.378.734 2.246 2.261 4.155 2.57 6.533-.396-.117-.793-.25-1.189-.396.529 2.569-3.613-.543-4.86-.69.545.866 3.567 3.141 1.719 3.92-1.233.514-2.583.455-3.861.69-1.072.19-2.07.675-3.157.264-.866-.323-1.555-.645-2.495-.411-1.438.353-2.348 1.086-2.993-.793 0 1.38.646 1.879 1.967 1.571 1.834-.425 3.141.074 4.727 1.072 3.039 1.938 5.401 5.564 1.262 7.325-1.849.793-3.845 2.922-5.887 3.083-1.923.161-3.581-1.629-5.741-1.423-2.39.206-4.931.822-7.25-.236-1.557-.704-2.906 1.835-4.14-.411"/>
        <path id="path3972" d="M342.084-349.084c1.204-.5 1.409-1.806.587-2.775-1.057.558-1.85 1.908-.587 2.775"/>
        <path id="path3974" d="M353.944-340.849c1.938-.118 1.029-3.039-.469-3.009-1.114.029.133 2.657.469 3.009"/>
        <path id="path3976" d="M362.665-336.092c1.498-1.16 1.058-4.185-1.086-4.17-2.611 0 .324 3.494 1.086 4.17"/>
        <path id="path3978" d="M362.372-377.813c.851.234 1.013-.088.498-.983-.176.336-.335.66-.498.983"/>
        <path id="path3982" d="M371.884-334.918c.647.851 1.762 1.233 2.174 2.29 1.292-.924 3.2-1.321 4.389 0 .883.969.809 1.967 2.451 1.82 2.114-.206 4.259.25 6.387-.176 2.774-.543 4.259-3.201 6.649-3.141 2.438.044 5.726-3.406 5.373-5.843 1.38.176 8.001 1.086 7.046-2.32-.175-.587-2.465-4.625-.498-4.228 3.244.675 4.065-2.818 4.065-5.284 0-.911.265-1.953-.688-2.393-.939-.426-1.998-.866-.911-1.923-.909.352-2.921 2.554-3.83 1.233-.983-1.396-3.524-1.336-3.273.778.233 2.011 1.335 3.729 1.026 5.873-.323 2.143-3.347 1.012-4.845 2.216-1.614 1.307-1.879 3.347-3.127 4.903-.528.646-1.526.603-2.246.793-1.646.455-1.381-.206-2.936-.499-1.174-.206-2.555 2.011-3.493.733-1.233-1.673-1.174-4.375.85-5.432-1.73-1.835-3.198 3.289-2.729 4.096.881 1.482-6.136 2.187-6.871 2.143-.982-.044-1.468-.543-2.348-.896-1.175-.47-1.659.206-2.73.132-.94-.074-3.332.426-3.846-.337-.793-1.233-2.173 1.747-.911 3.053.911.91 1.849.646 2.906 1.115.778.34 1.057 1.148 1.966 1.294"/>
        <path id="path3984" d="M379.899-349.568c.205-.911-.13-1-.982-.294.338.088.661.19.982.294"/>
        <path id="path3986" d="M383.364-386.71c1.087-.998-.895-3.347-1.908-2.451-.646.557 1.496 2.245 1.908 2.451"/>
        <path id="path3988" d="M383.775-292.433c.368-.719.47-4.625-1.32-3.612-2.143 1.204.294 2.965 1.32 3.612"/>
        <path id="path3990" d="M388.913-290.158c2.116-2.202-.866-3.274-2.51-3.89-2.951-1.115 0 1.996-1.628 2.995 1.159-.426 3.257.028 4.138.895"/>
        <path id="path3992" d="M385.949-375.92c.85.778 1.409 1.806 2.671 1.981 1.291.177 2.818-.616 1.851-2.114-.824-1.292-4.302-2.055-4.521.147"/>
        <path id="path3994" d="M388.032-278.957c1.601-2.643-2.906-.147 0 0"/>
        <path id="path3996" d="M389.118-286.796h.881c-1.275.851.896 1.6 1.47 1.805 1.453.514 2.041-1.775 1.115-2.569-.515.278-.852.705-.984 1.262-1.688-.587-2.304-2.554-3.771-3.464.584.91 1.157 1.88 1.289 2.966"/>
        <path id="path3998" d="M388.518-278.664c.266-.469.66-.763 1.188-.88-.777-.294-1.219.059-1.188.88"/>
        <path id="path4000" d="M392.965-300.654c-.646-1.292-.248-3.7.324-4.948-1.116.191-1.997 1.776-.324 1.879-.409 1.043-1.336 2.246 0 3.069"/>
        <path id="path4002" d="M393.877-370.269a14.985 14.985 0 0 0 1.967-.498c-.737-.44-1.498-.176-1.967.498"/>
        <path id="path4004" d="M413.283-359.875c-1.438-.206-2.026-2.627-2.892-3.552-1.351-1.469-3.802-3.729-5.667-4.463-1.953-.793-3.011-2.877-4.979-3.67-.702-.279-1.202.499-1.495-.543-.309-1.043-2.438-1.747-3.2-2.525.381.779 0 1.248-.793 1.278.969.851 2.379.763 3.346 1.614 1.176 1.086 2.35 2.158 3.599 3.141 1.364 1.087 2.642 2.496 4.184 3.319 1.174.617 2.539.777 3.581 1.629 2.025 1.658 2.73 4.462 3.847 6.709.777 1.555 0 3.17.177 4.786.145 1.584 1.233 2.701 1.878 4.052 1.233-.999 3.436-5.696 2.818-7.208-.513-1.218-1.658-2.011-2.201-3.156-.676-1.44-.825-.911-2.203-1.411"/>
        <path id="path4006" d="M407.44-278.282c.323-.25.646-.514.998-.763-.998 0-1.998-.088-2.965-.206.646.323 1.292.647 1.967.969"/>
        <path id="path4012" d="M410.199-295.898c3.231-.117-.293-4.844-2.376-2.466 1.084.557 1.234 1.967 2.376 2.466"/>
        <path id="path4014" d="M411.506-271.441c-.161-.705-.132-1.057-.982-.881.323.294.644.587.982.881"/>
        <path id="path4016" d="M414.661-267.168a4.775 4.775 0 0 0 1.882-.983c-.926-.881-3.7-2.775-5.037-1.997.662.557.646 1.526 1.277 2.084.808.733 1.352-.675 1.878.896"/>
        <path id="path4018" d="M413.371-367.303c.469-.792.147-1.585-.588-2.084-.293.822-.145 1.527.588 2.084"/>
        <path id="path4020" d="M420.711-269.65a3.055 3.055 0 0 1 1.967-.587c-.881-1.321-1.937-.073-3.053 0 .353.206.705.382 1.086.587"/>
        <path id="path4024" d="M432.688-340.849c1.44-1.233 1.529-3.846 0-5.05-.849 1.512-.528 3.48 0 5.05"/>
        <path id="path4026" d="M435.964-331.747c.75.689 1.836.983 1.981 2.113.207 1.38 0 2.819 1.057 3.906 1.558 1.615 7.12 2.07 6.532-.999-.247-1.306-.6-2.201-1.423-3.288-.498-.661-1.042-1.879-1.835-2.203-.733-.293-1.424-.307-1.805-1.116-1.513-3.346-3.511-6.488-7.18-7.722.982 1.087.337 2.79.235 4.052-.131 2.086 1.483 3.583 2.438 5.257"/>
        <path id="path4028" d="M443.201-320.957c.324-.104.646-.191.983-.308-.205-1.292-1.689-1.454-1.982-.088.324.146.66.264.999.396"/>
        <path id="path4030" d="M446.666-322.631a3.27 3.27 0 0 0 0-1.982v1.982"/>
        <path id="path4032" d="M349.982-379.179c-1.321-1.541.938-2.921 2.231-3.273 2.055-.528 4.402.603 6.401.998-1.764.382-1.88 1.762-4.054 1.762-.881 0-1.703-.793-2.584-.675-.747.087-1.319.88-1.994 1.188"/>
      </g>
      <g id="sb">
        <path id="path4726" d="M452.215-311.136c0-.749 1.468-1.909.954-2.57-.249-.308-1.262-1.923-1.659-1.894-2.289.09-.308 3.833.705 4.464"/>
        <path id="path4728" d="M450.806-308.083c.294-1.027.41-2.201-.383-3.053 0 1.028-.148 2.084.383 3.053"/>
        <path id="path4730" d="M454.475-321.061c1.205 1.968 4.318 4.346 6.739 3.171-.747-.88-1.907-1.188-2.644-2.084-.952-1.146-.896-2.73-1.981-3.802-1.481-1.454-3.553-2.599-5.461-3.302-1.174 2.055 2.555 4.432 3.347 6.017"/>
        <path id="path4732" d="M456.663-308.758c.747-.719 1.026-3.376-.44-3.493-2.409-.192-1.453 3.375.44 3.493"/>
        <path id="path4734" d="M458.439-301.829c-1.029-1.38.997-2.407.204-3.772-1.936 1.365-1.466 2.084-.204 3.772"/>
        <path id="path4736" d="M462.902-303.708c1.174.412 1.351-.733 1.174-1.584-.323-1.674-1.702-2.173-2.555-3.465-.469-.705-.308-3.053-1.907-1.703-.853.705-2.585 2.349-2.349 3.582 1.29.338 2.642-1.057 3.639.309.162.338.148.69 0 1.027-.131.734 1.558 1.57 2.026 1.834"/>
        <path id="path4738" d="M460.819-301.05c.233-.983-.149-1.102-1-.382.337.132.676.249 1 .382"/>
        <path id="path4740" d="M461.919-316.994c.25-.954-.133-1.13-1.015-.484.338.147.677.323 1.015.484"/>
        <path id="path4742" d="M463.283-316.788c1.013.19 1.013-.133 0-1.014v1.014"/>
        <path id="path4744" d="M464.781-301.33c1.732-.528.66-1.732.982-2.979-1.936-.397-2.539 2.039-.982 2.979"/>
        <path id="path4748" d="M470.535-315.804c-.469-.412-.146-.749-.998-.485.324.162.662.309.998.485"/>
        <path id="path4750" d="M471.623-314.615c-.412-.822-1.264-1.159-2.086-.69.705.191 1.41.411 2.086.69"/>
        <path id="path4752" d="M477.155-309.169c1.946 1.997 4.882 2.877 6.937 4.859 1.029-2.511-2.436-6.121-4.755-6.577-1.534-.293-3.163-2.084-4.294-3.097-.632-.543-.955-1.219-1.762-1.526-.779-.279-1.57-.089-2.261-.676 1.073 2.73 3.187 6.048 6.135 7.017"/>
        <path id="path4754" d="M475.968-297.278c.615-.293.881-.425.807-1.174-1.072-.147-1.322.234-.807 1.174"/>
        <path id="path4756" d="M484.592-288.866c1.791.249 2.965-.22 4.669.66.997.5 3.083 1.204 3.523-.381.586-1.878-2.643-4.829-4.347-5.005-1.702-.162-3.904.807-5.079-.882-.733-1.101-1.73-1.512-2.583-.131-1.351 2.142 1.85 5.313 3.817 5.739"/>
        <path id="path4758" d="M482.714-304.03a3.723 3.723 0 0 1-.293-1.967c-1.851-.001-.765 1.555.293 1.967"/>
        <path id="path4760" d="M482.009-268.064c.674.323 2.172.44 2.583.689 1.026.631.97 2.173 2.262 2.481 1.409-1.878-5.257-5.373-4.845-3.17"/>
        <path id="path4764" d="M488.145-297.088c.499-.895-.117-1.717-1.087-1.584-.147.807.294 1.438 1.087 1.584"/>
        <path id="path4766" d="M487.851-296.295a13.067 13.067 0 0 1 1.791-.895c-.822-.293-1.527.088-1.791.895"/>
        <path id="path4768" d="M494.398-296.882c1.997 1.483 2.994 3.832 4.669 5.637.588-1.188-.529-5.681-1.117-6.943-.321-.764-1.143-2.291-1.907-2.686-1.174-.617.793-1.718.234-2.511-.615-.88-.821-2.348-1.762-2.995-.44-.293-2.348-1.042-1.938.44.821 2.848.412 6.284 1.821 9.058"/>
        <path id="path4770" d="M502.412-277.782c1.676.587 3.525.587 5.257.998-1.058-3.288-1.938-3.64-4.667-5.079-.883-.47-5.052-3.508-5.638-1.454.733.396 1.498.632 1.791 1.454.734 1.967 1.674 2.788 3.257 4.081"/>
        <path id="path4772" d="M500.829-289.174c.646-1.645-.236-3.465-1.381-4.639.119.939.119 1.849-.146 2.788 0 .676 1.29 1.19 1.467 1.851"/>
        <path id="path4774" d="M544.604-276.388c.764-1.027 2.966-.661 2.966-2.276-1.585-.44-3.2.089-3.964 1.586.322.235.646.47.998.69"/>
        <path id="path4778" d="M553.325-266.582l.881-.396c-.324-.822-1.028-1.174-1.791-.587.264.352.558.69.91.983"/>
      </g>
      <g id="my">
        <path id="path4722" d="M-139.956-482.278c.498-.852.293-1.982.646-2.848.5-1.204 1.174 1.086 2.584 1.615 1.028.381 2.114.381 3.098.646.896.264 1.086 1.527 1.57 2.173.779.983 3.641.881 2.614 3.45-.411 1.042-1.821 4.565 1.32 3.847 1.057-.25 1.66-2.511 3.289-2.716 1.66-.206 1.688 2.29 2.937 1.805 1.028-.396 3.405-4.917 2.011-6.091 1.263.396 3.156.91 4.009 2.083.821 1.146 1.174 2.526 2.319 3.451 2.863 2.29 5.373 4.389 7.076 7.707 1.731 3.347 2.92 6.724 2.729 10.541 0 1.468-.265 3.112-.529 4.551-.41 2.055 0 2.203.588 4.052.91 2.746-.778 6.078.852 8.867 1.277 2.144 4.168 3.273 4.873 5.872.807 3.069 2.82 5.638 3.613 8.75 1.041 4.17-3.687 1.88-1.513.382-.837.03-1.543-.455-1.896-1.204.148.293.926 3.083-.233 2.261-1.145-.852-3.86.998-4.903 1.512-1.117-3.626-5.521-4.639-8.164-6.87-.702-.573-1.202-1.277-1.848-1.864-1.057-.97-2.703-.94-3.846-1.763-1.16-.836-2.995-2.613-3.655-3.816-.44-.823-1.132-.911-1.953-1.115-1.262-.353-1.85-1.498-2.877-2.217-.969-.69-.764-.866-.236-1.615.589-.837-.176-2.54-.528-3.303-1.086-2.451-3.846-4.14-4.83-6.605-.483-1.205-3.083-1.85-.133-2.819-1.76.249-3.523-3.406-3.053-4.697.91-2.496-.44-5.197-1.937-7.047-1.321-1.644-1.057-6.783-1.057-8.867 0-3.024-1.851-5.432-2.965-8.103"/>
        <path id="path2560" d="M45.661-455.354c0-.353-.147-.719-.205-1.086.953-.089 1.731.484 2.481.998a14.3 14.3 0 0 0-2.276.088"/>
        <path id="path4708" d="M-20.693-435.536c.131.676.205 1.013.983 1.086-.543-1.38.162-3.141-1.19-4.169-.131 1.042.264 2.056.207 3.083"/>
        <path id="path4710" d="M18.517-468.625c1.013.381 1.132.029.396-.984-.146.338-.265.661-.396.984"/>
        <path id="path4712" d="M35.149-491.292c.603-.352.983-.837 1.205-1.498-.793.147-1.321.647-1.205 1.498"/>
        <path id="path4714" d="M37.528-492.583c-.352.645-.309 1.262.132 1.878 2.128-.734 1.247-3.302-.132-1.878"/>
        <path id="path4716" d="M40.493-485.155c.381.058.764-.03 1.103-.293-.369.087-.75.19-1.103.293"/>
        <path id="path4718" d="M52.781-461.388c.572.601 1.217.704 1.981.293a11.556 11.556 0 0 0-1.981-.293"/>
        <path id="path2284" d="M-79.722-439.603c.953-.558 1.027-1.82-.207-2.07.177.675.25 1.366.207 2.07"/>
        <path id="path2300" d="M-47.354-440.293c.353.264.705.264 1.086 0-.131-.367-.264-.705-.484-.998-.204.337-.396.675-.602.998"/>
        <path id="path4700" d="M-142.818-482.689c-.5.528-1.043.969-1.688 1.292 1.071 2.055 3.317.029 1.688-1.292"/>
        <path id="path4704" d="M-137.459-470.593c-1.219-.527-1.351.603-1.279 1.483.162 1.836 1.483-.279 1.279-1.483"/>
        <path id="path4706" d="M-95.68-439.896c-.411.25-.603.603-.587 1.086 1.116.205 1.321-.162.587-1.086"/>
        <path id="path4724" d="M-38.03-430.486c-.338 3.523 7.354 6.533 7.237 3.259 0 .925 1.379 1.028 1.306 1.409-.279 1.175 1.938 1.674 2.76 1.968 1.277.469 2.026-.559 3.112.675.983 1.144 2.481 1.263 3.905 1.409-.983-1.351-3.098-.176-3.626-2.202-.322-1.307.705-2.408 1.836-1.262-1.103-.706-1.16-1.763-.793-2.893a9.489 9.489 0 0 0 .514-1.689c.293-1.38 1.026-.837 1.863-1.673-.703.073-1.394.147-2.07.205.94-.91 0-1.997.295-3.083 1.027 0 1.936.559 2.965.603-3.582-2.687 1.805-5.887 4.022-6.239 3.508-.558 8.573-1.292 11.538-3.377 2.555-1.805 2.629-5.504 4.903-7.545 2.907-2.613 4.58-5.637 4.801-9.572 2.862.059 2.686 1.056 3.258 2.701.353 1.027 3.126 3.523 4.185 3.802 1.35.368 1.452-4.447 1.085-5.593-.938-2.98.705-3.082 2.086-4.608.483 2.51 0 6.135 3.258 6.87-.233-1.997-.205-4.316-1.321-5.814-1.688-2.29 1.131-.88 1.91-1.483.705-.573 3.184-2.48 1.217-3.243-2.979-1.146 0-3.347.853-4.61-.25 2.495 2.848-.235 3.391-1.292.821-1.643 1.114-3.494 1.864-5.152.44-.955.983-.485 1.482-1.102.587-.719 1.102-1.967 1.748-2.818 1.396-1.865 1.219-4.565 3.01-6.283 1.394 1.63-.264 3.318.381 5.05 1.146-.719 2.172-5.065 3.583-4.814.147.028 3.464 7.721 3.964 4.227.176 1.439 2.832 2.055 2.642 3.788-.146 1.13-1.718.705-1.308 2.261.486 1.82.25 2.29-1.541 2.965 1.117-.646 2.32.059 3.334-.529.836-.47 1.291-1.673 2.479-1.174 2.231.94.133 2.496-.953 2.878.22 2.143 2.303.103 3.096-.426 1.763-1.115 3.847 1.482 4.023 3.009 1.204-1.291 3.274.983 3.774 1.967.983-1.32 3.727-.293 3.772 1.292 0 2.291-4.962 4.081-6.782 3.949-1.233-.102-6.049-1.776-4.551 1.733.572 1.38 3.758 1.967 3.494 3.626.984-.603 1.762.308 1.205 1.233-.617.998-1.998.777-2.967.851-3.11.264-4.403 1.057-7.047-1.175-.233.705.472 2.32-.233 2.819-1.071.749-3.141-.792-3.906-1.351-1.805-1.276-5.225.823-7.456-1.276 0 2.862-1.938-.03-2.893.513-1.894 1.086-2.584.264-4.184-.293-.234 1.056-1.115 1.379-1.584 2.275-.617 1.159-.955 2.745-1.117 4.022-.147 1.013.324 3.039.396 4.096.133 1.762-.703 1.027-1.041 2.467-.514 2.334.352 3.317-2.291 3.684-2.877.382-1.072 4.727-.265 5.71-1.6.559-5.901 3.275-3.994 5.403 1.117 1.233-2.92 5.374-2.524 7.281-1.556-.014-1.41-1.409-3.377 0-1.16.823-2.274-.557-3.272.294-1.66 1.351-2.305 2.173-4.434 1.85-2.246-.337-5.065-1.644-5.637-2.877-.748-1.614-6.62-.837-7.941.998-.646.925-.765 2.144-1.322 3.201-.131.205-2.598 1.585-2.7 1.628-1.879.75-4.258-.102-6.313-.278-2.041-.176-3.464.924-5.196 1.747-2.114.999-3.612-.836-4.667-1.263-.56-.22-1.367-2.055-1.967-2.54-1.512-1.204-2.848-2.055-3.906-3.259-.645-.733-.852-2.789-1.321-3.435-1.907-1.086-.264-2.025 0-3.507"/>
        <path id="path5822" d="M63.981-460.992c.529-1.028.412-2.172-.146-3.171.146 1.058.146 2.115.146 3.171"/>
      </g>
      <g id="nc">
        <g id="nc-">
          <path id="path2568" d="M506.466-159.519c1.115 1.38 1.615 3.479 3.2 4.463.676.426.44 1.498.733 2.114.47.91 1.879 1.204 2.116 2.231.351 1.747 2.553 2.26 3.609 3.318 1.586 1.585 3.141 2.261 5.107 3.229-1.32 1.233 1.087 3.627 2.38 2.379-.469.601-.353.851-.323 1.57 1.293-2.393 2.202.91 3.436.617 1.673-.396 3.466-.455 2.407-2.921-.44-1.057-1.381-1.145-2.174-1.806-1.026-.837-1.584-2.07-2.376-3.098-1.526-1.938-3.993-2.643-5.638-4.375-1.293-1.35-1.967-2.714-2.643-4.433-.882-2.231-1.322-1.908-3.2-3.288-1.645-1.233-2.232-3.61-4.052-4.653-.793-.44-1.558 0-2.348-.309-1.029-.425-1.353-1.614-2.32-2.171.497.88.851 1.996 1.056 2.964.177.706-.265 1.204 0 1.938.353.765.881 1.366.998 2.232"/>
          <path id="path2570" d="M528.545-159.225c1.526-.587 1.115-1.894 1.791-3.083-.676.998-.883 2.232-1.791 3.083"/>
          <path id="path2572" d="M533.007-135.942c.265-.309.5-.646.705-.999-1.146-.866-1.907.587-.705.999"/>
          <path id="path2574" d="M536.179-153.676c1.202-.939.705-6.4-1.586-5.637 1.938 1.321-.44 1.35-.793 2.465-.529 1.703 1.586 2.116 2.379 3.172"/>
          <path id="path2576" d="M541.228-148.039c1.263.044 1.822-1.263 2.086-2.261-1.176.308-1.057-1.16-1.997-1.175-1.879-.059-.851 2.789-.117 3.436"/>
          <path id="path3370" d="M464.781-175.564a6.599 6.599 0 0 0 .793-2.07c-.528.499-1.013 1.307-.793 2.07"/>
        </g>
      </g>
      <g id="fj">
        <g id="fj-">
          <path id="path5538" d="M649.393-201.417l.97-.881c-.794.001-.765.265-.97.881"/>
          <path id="path5544" d="M652.65-205.262c.765-.47 1.409-1.043 1.998-1.703a7.7 7.7 0 0 0-1.998 1.703"/>
          <path id="path5536" d="M649.979-189.73c2.055.866 3.905 1.791 6.197 1.027 1.496-.528 4.871-1.057 6.017-2.055.793-.675.353-.852-.176-1.38-.265-.265 0-1.835.119-2.32.145-1.292-.999-4.287-2.526-3.376 1.88-2.554-5.813-.353-6.519-.059-2.231.88-8.221 7.282-3.081 8.163"/>
          <path id="path5542" d="M652.945-177.752a21.388 21.388 0 0 0 1.938-1.468c.615-.499 1.584.294 2.319-.118-.47-2.29-4.816.147-5.257 1.498.353.03.677.059 1 .088"/>
          <path id="path5546" d="M664.044-194.473a6.551 6.551 0 0 0 1.086-.807c-.999-.763-1.352-.499-1.086.807"/>
          <path id="path5548" d="M681.072-213.292c-3.465-.19-6.107 2.421-9.366 2.921-1.762.264-2.995 1.321-4.434 2.319-1.146.823-3.435.353-3.229 2.378 1.438-.234 1.35 1.233 1.29 2.173 1.822-.234 6.313-4.697 7.047-2.524.383 1.16 3.172-.309 3.817-.5 2.319-.676 2.7-.91 3.493-3.317-1.291.587-3.551 3.875-5.138 2.686 2.41-1.805 3.966-4.522 6.52-6.136"/>
          <path id="path5550" d="M668.887-190.127c.677-.778.529-1.834-.586-2.07.145.719.264 1.409.586 2.07"/>
          <path id="path5552" d="M673.261-183.889c.294-.292.618-.631.883-.983-.824-.191-1.234.221-.883.983"/>
        </g>
      </g>
      <g id="tl">
        <g id="tl-">
          <path id="path2786" d="M119.678-296.191c0 3.729.94 2.172 3.229.792 2.174-1.321 5.549-2.114 7.957-3.053 3.905-1.513 9.499-2.966 12.244-6.49 1.556-2.025-2.671-1.614-3.583-1.35-2.437.735-4.608 1.057-7.104 1.483-2.7.455-5.182.411-7.927.983-1.057.235-2.467.117-3.332.808-.926.748-1.455 2.524-2.422 3.244 2.288 1.116 2.084 1.747.938 3.583z"/>
          <path id="path2788" d="M107.361-293.813c1.836-1.366 3.215-1.967 5.446-2.394-.469.22-.145 4.478-1.145 4.214-.836-.192-1.027-1.057-1.203-.793-.853 1.189-2.319-1.322-3.112-.999"/>
        </g>
      </g>
      <g id="vu">
        <g id="vu-">
          <path id="path6058" d="M555.498-235.283c1.233-.661 1.321-2.863-.353-1.703-.733.528-1.027 2.041.353 1.703"/>
          <path id="path6062" d="M555.702-239.746c1.205-.573 1.47-1.879.589-2.863-1.352.587-.97 1.762-.589 2.863"/>
          <path id="path6048" d="M549.537-225.785c-.44-.72-.498-1.468-.177-2.261-1.643.646-2.936 4.785-3.081.587 0-1.615-1.999-5.52-2.203-1.673-.117 1.761.822 3.377.204 5.108-.614 1.659.412 2.658.412 4.287 3.495-.001 6.342-2.452 4.845-6.048"/>
          <path id="path6052" d="M550.153-208.242c.91-.573 4.668-.852 3.671-2.716-.764-1.41-2.261-2.144-3.025-3.611-2.846-5.535-3.462 2.407-1.438.675 1.204 1.673-.322 3.934.792 5.652"/>
          <path id="path6054" d="M548.951-218.239c.409-.47.44-.969.146-1.499-.44.236-.791.529-1.086.882.323.205.646.411.997.617"/>
          <path id="path6056" d="M556.201-193.591c1.732.19 2.673-2.29 1.264-3.347-.998-.749-3.053 1.454-3.347 2.261 1.82-1.278.147.748 2.083 1.086"/>
          <path id="path6064" d="M556.379-221.411c.762-.734 1.409-1.556 1.879-2.496-.97.177-2.026.294-2.644 1.204-.497.764-.263 1.439.765 1.292"/>
          <path id="path6066" d="M557.465-211.017a4.95 4.95 0 0 0 1.995-.69c-.646-.455-1.055-1.174-.879-1.981-1.146-.044-1.997.793-3.083.881.148 1.041 1.146 1.422 1.967 1.79"/>
          <path id="path6068" d="M559.667-205.262c.117-1.028-2.174-2.159-2.876-2.584-1.586 2.672 1.702 1.438 2.876 2.584"/>
          <path id="path6072" d="M558.962-215.392c1.379-1.057 1.467-4.743.586-6.137-.469 2.056-.879 4.023-.586 6.137"/>
          <path id="path6074" d="M559.548-222.496c1.381-1.204 1.381-3.642.617-5.153-.145 1.717-.586 3.404-.617 5.153"/>
          <path id="path6076" d="M562.133-179.63c.912-.559.472-4.903-1.292-4.433-.646.161-1.146 2.069-1.262 2.627-.205 1.013 1.939 1.365 2.554 1.806"/>
          <path id="path6078" d="M561.927-171.806c1.321-1.365-.615-2.598 0-4.066-2.436.264-1.586 3.259 0 4.066"/>
          <path id="path6080" d="M564.219-164.774c.321-.294.615-.617.881-.969-.881-.587-2.115.367-.881.969"/>
        </g>
      </g>
      <g id="bn">
        <g id="bn-">
          <path id="path6824" d="M7.727-460.404c3.979-.088 5.358-3.641 8.689-4.933 1.499-.573.824 1.41.207 1.909-1.469 1.204-1.762 1.424-1.498 3.494 0 .161.955 7.648-1.424 5.989-.896-.631-2.908-2.025-3.508-2.995-.88-1.41-.47-3.039-2.466-3.464"/>
          <path id="path6826" d="M17.329-462.078c-.295-1.82.674-.617 1.188-2.085 1.453 1.85 2.07 4.522 1.894 6.842-2.289-.529-2.952-2.673-3.082-4.757"/>
        </g>
      </g>
      <g id="to">
        <g id="to-">
          <path id="path5930" d="M716.128-152.678c.412-.587.853-1.145 1.293-1.688-.999 1.248-1.792-.353-2.966-.103a5.17 5.17 0 0 0 1.673 1.791"/>
          <path id="path5932" d="M717.802-150.402c0-.396-.116-.75-.265-1.102.117.367.177.734.265 1.102"/>
        </g>
      </g>
      <g id="nu">
        <path id="nu-" d="M737.239-184.769c-.853.103-1.351.706-1.086 1.571.497-.426.85-.954 1.086-1.571"/>
      </g>
      <g id="wf">
        <path id="wf-" d="M735.213-246.513c-.851.117-1.351.733-1.086 1.584.5-.41.881-.939 1.086-1.584"/>
      </g>
      <g id="as">
        <path id="as-" d="M781.778-234.696c.471-.455.939-.924 1.411-1.394-.765.102-1.293.645-1.411 1.394"/>
      </g>
      <g id="tv">
        <path id="tv-" d="M679.957-305.807c-.852.102-1.352.719-1.116 1.585.557-.425.91-.954 1.116-1.585"/>
      </g>
      <g id="sg">
        <path id="sg-" d="M-99.835-422.765c-1.322.353.705 2.863 2.481.499a5.042 5.042 0 0 0-2.481-.499"/>
      </g>
      <g id="tk">
        <path id="tk-" d="M786.683-289.953c-.177-.132.233-.103-.147-.19-.236-.044-.382.175.116.264"/>
      </g>
      <path fill="none" stroke="#000" stroke-miterlimit="10" d="M618.5-143.5h218v140h-218zM752.5-252.5h32.689v18.41H752.5zM785.189-234.09L836.5-143.5M752.5-234.09l-134 90.59"/>
    </g>
  </switch>
</svg>