<?xml version="1.0" encoding="utf-8"?>
<!-- Generator: Adobe Illustrator 15.1.0, SVG Export Plug-In . SVG Version: 6.00 Build 0)  -->
<!DOCTYPE svg PUBLIC "-//W3C//DTD SVG 1.1//EN" "http://www.w3.org/Graphics/SVG/1.1/DTD/svg11.dtd">
<svg version="1.1" id="Layer_1" xmlns="http://www.w3.org/2000/svg" xmlns:xlink="http://www.w3.org/1999/xlink" x="0px" y="0px"
	 width="678px" height="429.5px" viewBox="29 201 678 429.5" enable-background="new 29 201 678 429.5" xml:space="preserve">
<title>Scene/Home</title>
<desc>Created with Sketch.</desc>
<g id="Scene_x2F_Home">
	<g id="Clock" transform="translate(505.000000, 85.000000)">
		<circle id="Clock-Frame" fill="#F2F2F2" cx="52" cy="169" r="53"/>
		<circle id="Time" fill-opacity="0.1" cx="52" cy="127" r="3"/>
		<circle id="Time_1_" fill-opacity="0.1" cx="10" cy="169" r="3"/>
		<circle id="Time_2_" fill-opacity="0.1" cx="94" cy="169" r="3"/>
		<circle id="Time_3_" fill-opacity="0.1" cx="52" cy="211" r="3"/>
		<polygon id="Hand" fill="#AFB9C5" points="52,133 54,168 50,168 		"/>
		<polygon id="Hand_1_" fill="#AFB9C5" points="69.698,186.698 51.313,171.142 54.143,168.313 		"/>
		<circle id="Time_4_" fill="#C5CFD6" cx="52" cy="169" r="4"/>
	</g>
	<g id="Background-Shape-2" transform="translate(29.000000, 244.000000)" opacity="0.3459">
		<path id="Background-Shape" fill="#F2F2F2" d="M472.794,172.385C465.898,95.336,95.964-53.376,27.287,19.603
			c-68.677,72.979-2.652,209.942,141.27,245.014C312.478,299.689,479.688,249.434,472.794,172.385z"/>
		<path id="Background-Shape_1_" fill="#DDE3E9" d="M244.145,222.447C250.32,156.992,581.692,30.655,643.21,92.653
			c61.519,61.999,45.947,192.405-82.972,222.201C431.318,344.65,237.968,287.903,244.145,222.447z"/>
	</g>
	<g id="Table" transform="translate(135.000000, 353.000000)">
		<path fill="#F2F2F2" d="M14.156,137.149h409.687H527.5V277.5h-26.532V166.839H-63.356V277.5H-89.5V137.149H14.156z"/>
	</g>
</g>
<g>
	<g id="Objects_x2F_Seat_x2F_Cube_1_" transform="translate(10.000000, 42.000000)">
		<g id="Seat_1_" transform="translate(55.000000, 0.000000)">
			<polygon id="Seat-Stuff_3_" fill="#C5CFD6" points="346.196,493.639 288.753,493.639 281.229,588.5 366.735,588.5 			"/>
			<polygon id="Seat-Stuff_2_" fill-opacity="0.1" points="346.196,493.639 328.53,493.639 317.958,588.5 366.735,588.5 			"/>
		</g>
	</g>
	<path id="Skin_3_" fill="#F2CABB" d="M291.239,519.388c-6.124-3.783-16.398,1.075-16.391,6.489
		c0.022,16.19,14.383,92.498,15.133,97.323c0.749,4.822,8.781,6.097,9.251,0.016c0.744-9.679,2.125-43.181,0.742-58.688
		c-0.571-6.402-1.185-12.497-1.791-17.935c7.534,14.002,19.189,34.048,34.965,60.142l8.563-4.027
		c-6.725-22.793-12.238-38.885-16.542-48.274c-7.367-16.078-14.28-29.848-17.186-34.697
		C303.408,512.107,295.446,514.77,291.239,519.388z"/>
	<path id="LegLower_1_" fill="#7C7F84" d="M341.098,590.05l-29.392-71.633c-7.04-11.653-26.782,2.37-24.381,9.13
		c5.449,15.345,33.176,65.021,34.799,69.589L341.098,590.05z"/>
	
		<g id="Accessories_x2F_Shoe_x2F_Flat-Sneaker_3_" transform="translate(215.500000, 133.000000) rotate(30.000000) translate(-215.500000, -133.000000) translate(185.000000, 113.000000)">
		<path id="shoe_3_" fill="#E4E4E4" d="M373.278,359.253c2.363,0.429,4.027,0.928,4.995,1.505c1.179,0.699,2.787,1.917,4.827,3.651
			c-0.768,1.367-7.653,13.649-20.666,36.842c-3.702-0.923-5.101-2.49-4.197-4.701c0.905-2.211,1.638-4.061,2.202-5.547l1.971-21.658
			c0.039-0.417,0.402-0.717,0.815-0.666c0.007,0,0.013,0.002,0.02,0.002l3.287,0.485c1.961-1.38,3.278-2.667,3.947-3.861
			c0.545-0.972,0.904-2.542,1.08-4.717l0,0c0.067-0.835,0.79-1.438,1.615-1.35C373.208,359.241,373.246,359.246,373.278,359.253z"/>
	</g>
	<g id="Accessories_x2F_Shoe_x2F_Flat-Sneaker_2_" transform="translate(242.000000, 126.000000)">
		<path id="shoe_2_" fill="#E4E4E4" d="M59.112,493.332c0.83,2.285,1.247,3.993,1.247,5.128c0,1.381-0.225,3.396-0.67,6.04
			c-1.555,0-15.535,0-41.938,0c-1.089-3.707-0.46-5.709,1.887-6.003c2.348-0.295,4.3-0.563,5.852-0.802l19.492-8.94
			c0.375-0.17,0.816,0.002,0.982,0.387c0.002,0.008,0.006,0.014,0.009,0.02l1.253,3.129c2.173,1.042,3.941,1.565,5.298,1.565
			c1.104,0,2.628-0.461,4.574-1.377l0,0c0.747-0.353,1.63-0.015,1.973,0.752C59.084,493.265,59.099,493.298,59.112,493.332z"/>
	</g>
	<path id="Leg-and-Butt_1_" fill="#8F919B" d="M272.786,531.381c0,20.322,9.383,67.73,9.388,72.206l20.185,0.016
		c-2.954-42.302-4.003-63.679-3.143-64.135c1.288-0.683,52.827,5.295,68.286,5.295c22.29,0,31.513-14.463,32.26-41.254h-44.158
		c-8.989,0.989-55.884,10.723-73.3,14.067C274.848,519.009,272.786,525.782,272.786,531.381z"/>
	<g id="humaaans_x2F_sitting-8">
		
			<g id="A-Human_x2F_Sitting_1_" transform="translate(206.000000, 200.500000) scale(-1, 1) translate(-206.000000, -200.500000) translate(56.000000, 24.000000)">
			<g id="Head_x2F_Front_x2F_Short-2" transform="translate(82.000000, 0.000000)">
				<g id="Head_1_" transform="translate(54.000000, 31.000000)">
					<path fill="#EFC1AB" d="M-156.519,337.004c-3.425-4.646-5.746-10.339-5.357-16.719c1.118-18.378,23.268-14.335,27.576-5.06
						c4.31,9.276,3.796,32.808-1.772,34.467c-2.219,0.66-6.951-0.959-11.765-4.313l3.021,24.697h-17.845L-156.519,337.004z"/>
				</g>
				<path id="Hair" fill="#774738" d="M-103.89,372.141c-2.238-11.511-8.619-19.356-7.646-24.5c0.652-3.429,2.383-5.562,5.196-6.398
					c1.454-6.799,6.147-9.69,14.077-8.676c11.897,1.523,19.157,7.23,16.021,19.787c-2.88,0-6.361-1.204-11.17,0.859
					c-1.528,0.651-2.624,2.684-3.277,6.089h-2.174c-2.111-4.041-4.191-5.526-6.243-4.455c-2.051,1.07-2.519,3.672-1.398,7.805
					l-1.071,9.489H-103.89z"/>
			</g>
			<g id="Body_x2F_Hoodie" transform="translate(22.000000, 82.000000)">
				<path id="Skin_2_" fill="#EFC1AB" d="M8.429,379.378l23.718,20.118c6.433,2.007,11.805,4.5,16.123,7.482
					c1.019,1.074,2.251,3.248-1.976,2.872c-4.229-0.374-8.692-0.551-9.275,1.112c-0.583,1.669,1.978,3.658,0.796,5.907
					c-0.785,1.498-4.501-2.259-11.143-11.271L3.186,394.35L8.429,379.378z M-82.634,380.072l15.537,0.07
					c-9.595,35.775-14.774,54.759-15.537,56.946c-1.721,4.925,1.919,12.426,3.476,16.455c-5.071,2.623-4.531-7.085-10.927-3.646
					c-5.839,3.138-10.282,8.822-17.026,4.016c-0.83-0.593-1.737-2.817,0.457-4.557c5.471-4.334,13.355-11.917,14.42-14.416
					C-90.78,431.541-87.583,413.248-82.634,380.072z"/>
				<path id="Coat-Back" fill="#E87613" d="M-38.477,304.763l6.428-1.274c23.855,23.803,33.652,69.532,62.893,93.755l-7.038,10.08
					C-26.919,400.068-39.494,344.288-38.477,304.763z"/>
				<path id="Shirt" fill="#DDE3E9" d="M-66.505,398.093c25.778,0,44.742,0,56.889,0c2.6,0,2.111-4.336,1.733-6.524
					c-4.336-25.251-21.266-52.471-21.266-88.415l-16.412-2.971C-59.133,325.396-63.824,356.44-66.505,398.093z"/>
				<path id="Coat-Front" fill="#FF9B21" d="M-66.05,324.968c-2.382-0.791-4.27-2.638-5.661-5.538
					c-5.997-12.5-3.832-19.383,2.578-21.646c6.41-2.262,12.126,2.398,22.338,2.398c0.557,0,1.064,0.04,1.526,0.12l5.137,0.339
					c14.737,57.697,18.804,96.193,12.194,115.487h-44.775c-2.654,7.146-5.19,13.155-7.617,18.034h-12.199
					C-93.679,391.277-84.851,354.88-66.05,324.968z"/>
				<path id="Shade" fill-opacity="0.1" d="M-62.963,386.495c1.407,13.611,3.695,23.487,6.865,29.634h-16.615
					C-69.619,407.792-66.367,397.916-62.963,386.495z"/>
			</g>
		</g>
	</g>
</g>
<title>humaaans/sitting-5</title>
<desc>Created with Sketch.</desc>
<g id="Bottom_x2F_Sitting_x2F_Skinny-Jeans-1_1_" transform="translate(0.000000, 187.000000)">
	<g id="Objects_x2F_Seat_x2F_Cube_2_" transform="translate(10.000000, 42.000000)">
		<g id="Seat_2_" transform="translate(55.000000, 0.000000)">
			<polygon id="Seat-Stuff_5_" fill="#C5CFD6" points="526.431,302.268 471.119,302.268 463.872,400.825 546.21,400.825 			"/>
			<polygon id="Seat-Stuff_4_" fill-opacity="0.1" points="526.431,302.268 509.422,302.268 499.237,400.825 546.21,400.825 			"/>
		</g>
	</g>
	<path id="Skin_5_" fill="#EFD0B1" d="M473.058,327.383c-5.897-3.931-15.792,1.12-15.786,6.742
		c0.021,16.821,13.851,96.105,14.572,101.116c0.723,5.01,8.457,6.336,8.908,0.016c0.717-10.055,2.049-44.863,0.716-60.973
		c-0.551-6.651-1.143-12.985-1.726-18.637c7.256,14.549,18.479,35.376,33.669,62.485l8.245-4.183
		c-6.475-23.68-11.785-40.401-15.929-50.157c-7.095-16.704-13.749-31.007-16.548-36.047
		C484.775,319.819,477.109,322.585,473.058,327.383z"/>
	<path id="LegLower_2_" fill="#B7C5ED" d="M521.066,400.8l-28.301-74.424c-6.78-12.109-25.789,2.463-23.477,9.486
		c5.249,15.94,31.945,67.551,33.509,72.301L521.066,400.8z"/>
	
		<g id="Accessories_x2F_Shoe_x2F_Flat-Sneaker_5_" transform="translate(215.500000, 133.000000) rotate(30.000000) translate(-215.500000, -133.000000) translate(185.000000, 113.000000)">
		<path id="shoe_5_" fill="#E4E4E4" d="M434.62,105.677c2.331,0.514,3.981,1.079,4.95,1.698c1.182,0.754,2.801,2.047,4.862,3.883
			c-0.708,1.369-7.069,13.668-19.082,36.897c-3.664-1.06-5.088-2.706-4.274-4.933c0.816-2.226,1.473-4.089,1.978-5.585l1.221-22.025
			c0.025-0.424,0.372-0.715,0.78-0.653c0.005,0.001,0.012,0.002,0.02,0.005l3.244,0.601c1.881-1.34,3.131-2.613,3.75-3.807
			c0.503-0.97,0.803-2.563,0.904-4.776l0,0c0.039-0.848,0.728-1.441,1.541-1.323C434.55,105.663,434.584,105.67,434.62,105.677z"/>
	</g>
	<g id="Accessories_x2F_Shoe_x2F_Flat-Sneaker_4_" transform="translate(242.000000, 126.000000)">
		<path id="shoe_4_" fill="#E4E4E4" d="M240.563,305.223c0.8,2.375,1.202,4.149,1.202,5.329c0,1.433-0.216,3.523-0.646,6.273
			c-1.498,0-14.961,0-40.384,0c-1.048-3.853-0.444-5.929,1.817-6.237c2.262-0.308,4.138-0.584,5.634-0.83l18.771-9.29
			c0.36-0.18,0.784,0.001,0.945,0.4c0.002,0.008,0.006,0.015,0.01,0.022l1.205,3.248c2.094,1.084,3.794,1.625,5.104,1.625
			c1.063,0,2.53-0.476,4.404-1.43l0,0c0.718-0.363,1.567-0.013,1.898,0.786C240.537,305.152,240.55,305.187,240.563,305.223z"/>
	</g>
	<path id="Leg-and-Butt_2_" fill="#C5D3F9" d="M455.288,339.845c0,21.114,9.033,70.37,9.04,75.019l19.437,0.018
		c-2.846-43.949-3.854-66.161-3.027-66.636c1.241-0.709,50.873,5.501,65.756,5.501c21.465,0,30.344-15.024,31.066-42.859h-42.521
		c-8.658,1.026-53.816,11.14-70.587,14.615C457.271,326.99,455.288,334.027,455.288,339.845z"/>
</g>
<g id="Head_x2F_Front_x2F_Long">
	<path id="Hair-Back" fill="#020202" d="M546.46,370.716h1.433c8.502,0,15.394,7.65,15.394,17.089v16.691
		c0,8.796-5.985,16.037-13.681,16.985c-0.002,0.039-0.005,0.079-0.008,0.121h-20.763c-3.282-3.56-0.065-26.253,2.402-36.351
		C532.347,377.025,538.739,370.716,546.46,370.716z"/>
	<g id="Head_2_" transform="translate(54.000000, 31.000000)">
		<path fill="#EFD0B1" d="M507.138,400.916h-17.184l2.911-22.854c-4.638,3.103-9.193,4.6-11.331,3.989
			c-5.363-1.535-5.855-23.312-1.707-31.896c4.15-8.584,25.479-12.326,26.554,4.683c0.374,5.904-1.859,11.174-5.158,15.471
			L507.138,400.916z"/>
	</g>
	<path id="Hair-Front" fill="#020202" d="M550.756,398.439c2.175,0,3.938-1.957,3.938-4.37c0-2.416-1.764-4.373-3.938-4.373
		c-0.94,0-1.804,0.366-2.48,0.978c-5.746-3.956-12.212-4.897-13.879-11.244c2.229-3.638,4.845-7.921,13.136-7.921
		c5.529,0,10.089,4.089,13.685,12.26l-0.022,0.616c0.652,0.646,1.313,1.395,2.007,2.151c0,21.008,11.183,12.365,10.026,34.68
		h-20.765c-2.359-2.561-2.676-13.339-1.885-22.78C550.637,398.439,550.696,398.439,550.756,398.439z"/>
</g>
<g id="Body_x2F_Long-Sleeve">
	<path id="Skin_4_" fill="#EFD0B1" d="M496.572,499.931l-24.65,1.22c-8.621,5.482-13.079,7.42-13.374,5.809
		c-0.441-2.419,2.46-3.225,2.397-4.909c-0.061-1.685-4.19-3.182-8.162-4.415c-3.97-1.233-2.23-2.694-0.996-3.261
		c4.79-1.03,10.409-1.241,16.856-0.627l27.369-8.947L496.572,499.931z M614.621,541.131c1.026,2.31,8.617,9.328,13.884,13.337
		c2.117,1.61,1.241,3.67,0.441,4.217c-6.496,4.449-10.771-0.813-16.394-3.716c-6.16-3.182-5.64,5.803-10.523,3.376
		c1.501-3.729,5.004-10.671,3.35-15.229c-0.738-2.025-9.702-24.513-26.894-67.459l15.678-0.064
		C606.404,516.134,613.222,537.98,614.621,541.131z"/>
	<path id="Clothes-Back" fill="#78789E" d="M548.562,459.56c-6.194,41.465-36.415,56.781-70.876,51.837l-3.588-33.778
		c36.87,6.492,61.823-18.008,64.846-48.371l12.275-0.907C551.429,437.654,550.165,448.825,548.562,459.56z"/>
	<path id="Clothes_1_" fill="#948FC6" d="M557.285,416.418h1.218c27.454,27.552,45.446,66.496,53.966,116.838h-37.61
		c-0.225-9.524-0.661-18.797-1.368-27.819h-50.231c5.228-26.11,15.417-48.767,15.417-84.277l18.599-4.729L557.285,416.418z"/>
	<path id="Shade_1_" fill-opacity="0.1" d="M573.49,505.437h-10.209c2.817-11.646,3.578-28.534,2.285-50.662
		C569.614,470.679,572.089,487.566,573.49,505.437z"/>
</g>
<g id="A-Human_x2F_Sitting" transform="translate(190.000000, 200.500000) scale(-1, 1) translate(-190.000000, -200.500000) translate(40.000000, 24.000000)">
	<g id="Head_x2F_Front_x2F_Rad" transform="translate(82.000000, 0.000000)">
		<g id="Head" transform="translate(54.000000, 31.000000)">
			<path fill="#B28B67" d="M10.763,348.007c-3.191-4.254-5.352-9.468-4.989-15.31c1.039-16.834,21.666-13.131,25.677-4.636
				c4.012,8.497,3.536,30.049-1.649,31.565c-2.068,0.604-6.474-0.878-10.957-3.947l2.815,22.618H5.042L10.763,348.007z"/>
		</g>
	</g>
	<g id="Bottom_x2F_Sitting_x2F_Skinny-Jeans-1" transform="translate(0.000000, 187.000000)">
		<g id="Objects_x2F_Seat_x2F_Cube" transform="translate(10.000000, 42.000000)">
			<g id="Seat" transform="translate(55.000000, 0.000000)">
				<polygon id="Seat-Stuff" fill="#C5CFD6" points="46.009,278.618 99.497,278.618 106.505,376.15 26.883,376.15 				"/>
				<polygon id="Seat-Stuff_1_" fill-opacity="0.1" points="46.009,278.618 62.46,278.618 72.306,376.15 26.883,376.15 				"/>
			</g>
		</g>
		<path id="Skin" fill="#B28B67" d="M225.479,303.907c5.704-3.891,15.272,1.106,15.265,6.671
			c-0.02,16.647-13.392,95.106-14.09,100.065c-0.699,4.961-8.179,6.27-8.614,0.016c-0.693-9.948-1.98-44.397-0.693-60.34
			c0.532-6.58,1.104-12.848,1.668-18.441c-7.017,14.396-17.87,35.01-32.558,61.837l-7.974-4.139
			c6.262-23.436,11.396-39.981,15.403-49.637c6.861-16.53,13.295-30.687,16.003-35.674
			C214.148,296.423,221.562,299.158,225.479,303.907z"/>
		<path id="LegLower" fill="#1F28CF" d="M179.054,376.561l27.368-73.652c6.557-11.979,24.938,2.44,22.703,9.389
			c-5.076,15.776-30.893,66.851-32.404,71.552L179.054,376.561z"/>
		
			<g id="Accessories_x2F_Shoe_x2F_Flat-Sneaker" transform="translate(215.500000, 133.000000) rotate(30.000000) translate(-215.500000, -133.000000) translate(185.000000, 113.000000)">
			<path id="shoe" fill="#E4E4E4" d="M123.586,257.163c-0.679,2.233-0.989,3.915-0.928,5.047c0.074,1.377,0.396,3.396,0.968,6.061
				c1.498,0.085,14.958,0.853,40.38,2.3c0.851-3.637,0.139-5.668-2.137-6.091c-2.276-0.423-4.169-0.797-5.677-1.121l-19.245-9.985
				c-0.371-0.194-0.784-0.044-0.925,0.333c-0.002,0.006-0.005,0.012-0.007,0.019l-1.04,3.05c-2.036,0.923-3.709,1.346-5.018,1.271
				c-1.063-0.059-2.556-0.602-4.478-1.623l0,0c-0.737-0.392-1.569-0.104-1.858,0.642
				C123.607,257.095,123.596,257.13,123.586,257.163z"/>
		</g>
		<g id="Accessories_x2F_Shoe_x2F_Flat-Sneaker_1_" transform="translate(242.000000, 126.000000)">
			<path id="shoe_1_" fill="#E4E4E4" d="M-25.712,280.668c-0.774,2.35-1.162,4.106-1.162,5.272c0,1.42,0.208,3.488,0.624,6.21
				c1.448,0,14.465,0,39.051,0c1.015-3.812,0.429-5.867-1.758-6.172c-2.186-0.306-4.002-0.58-5.449-0.825l-18.15-9.192
				c-0.349-0.176-0.759,0.003-0.914,0.399c-0.002,0.007-0.006,0.014-0.008,0.021l-1.167,3.215c-2.023,1.072-3.668,1.609-4.934,1.609
				c-1.028,0-2.448-0.472-4.259-1.415l0,0c-0.695-0.362-1.517-0.016-1.836,0.774C-25.688,280.599-25.7,280.634-25.712,280.668z"/>
		</g>
		<path id="Leg-and-Butt" fill="#2B44FF" d="M242.662,316.238c0,20.896-8.735,69.64-8.74,74.24l-18.795,0.018
			c2.75-43.494,3.727-65.475,2.926-65.942c-1.199-0.701-49.194,5.442-63.586,5.442c-20.757,0-29.344-14.868-30.04-42.415h41.117
			c8.372,1.019,52.041,11.024,68.259,14.464C240.744,303.517,242.662,310.482,242.662,316.238z"/>
	</g>
	<g id="Body_x2F_Pointing-Forward" transform="translate(22.000000, 82.000000)">
		<path id="Skin_1_" fill="#997659" d="M149.948,343.579l24.032-14.953c3.996-5.391,7.934-9.578,11.813-12.561
			c1.186-0.563,3.258-0.903,1.32,3.006c-1.938,3.909-3.823,8.118-2.836,9.322c0.988,1.204,3.45-0.478,4.628,1.522
			c0.786,1.334-3.42,3.441-12.62,6.319L158.823,354.4L149.948,343.579z M187.586,356.195l10.558-6.589
			c1.48-6.402,3.251-9.623,5.311-9.664c1.582-0.837-1.173,7.255,1.827,6.553c3-0.702,10.322-6.889,11.583-5.633
			c1.866,1.859,0.203,7.565-1.758,10.403c-3.666,5.305-6.7,7.12-14.199,9.496c-3.922,1.241-8.161,3.729-12.72,7.467L187.586,356.195
			z"/>
		<path id="Sleeve" fill="#2026A2" d="M138.244,340.248c8.419-0.101,19.644-2.12,31.621-10.758l4.703,11.917
			c-8.261,9.314-19.878,16.966-30.036,16.643C136.528,357.794,132.438,346.795,138.244,340.248z"/>
		<path id="Clothes" fill="#1F28CF" d="M149.58,359.358c8.935,2.531,23.921-0.454,44.956-8.957
			c5.218,12.262,7.629,21.004,7.236,26.227c-18.045,10.708-33.511,15.481-46.253,15.798c0.405,8.587-0.515,16.761-3.607,24.228
			c-6.356,15.354-43.57,1.137-56.083,3.933c-7.836-28.906,7.314-40.657,7.327-59.155c0.013-20.257,14.331-51.438,16.437-51.438
			h19.212C139.865,325.463,145.2,342.514,149.58,359.358z"/>
	</g>
	<g id="Head_x2F_Front_x2F_Turban-1">
		<g id="Turban_1_" transform="translate(31.000000, 23.000000)">
			<g>
				<path id="path-1_4_" fill="#86BFB7" d="M126.716,345.556c-4.06,3.759-10.813,12.707-12.067,15.878
					c-0.162,0.41-6.857,2.886-11.594,0.543c-2.761-1.367-6.545-2.646-8.465-7.389c-1.389-3.438-0.536-12.09,1.061-15.096
					c1.6-3.006,4.298-3.288,6.989-5.712c2.982-2.687,6.056-8.216,13.793-10.07c5.962-1.428,11.881,1.854,15.547,4.637
					c3.667,2.783,3.375,3.269,3.522,4.256C136.193,337.237,129.703,342.791,126.716,345.556z"/>
			</g>
			<defs>
				<filter id="Adobe_OpacityMaskFilter" filterUnits="userSpaceOnUse">
					<feColorMatrix  type="matrix" values="1 0 0 0 0  0 1 0 0 0  0 0 1 0 0  0 0 0 1 0"/>
				</filter>
			</defs>
			<mask maskUnits="userSpaceOnUse" id="mask-2_1_">
				<g filter="url(#Adobe_OpacityMaskFilter)">
					<path id="path-1_1_" fill="#FFFFFF" d="M126.716,345.556c-4.06,3.759-10.813,12.707-12.067,15.878
						c-0.162,0.41-6.857,2.886-11.594,0.543c-2.761-1.367-6.545-2.646-8.465-7.389c-1.389-3.438-0.536-12.09,1.061-15.096
						c1.6-3.006,4.298-3.288,6.989-5.712c2.982-2.687,6.056-8.216,13.793-10.07c5.962-1.428,11.881,1.854,15.547,4.637
						c3.667,2.783,3.375,3.269,3.522,4.256C136.193,337.237,129.703,342.791,126.716,345.556z"/>
				</g>
			</mask>
			<path id="SHade_1_" mask="url(#mask-2_1_)" fill-opacity="0.2" d="M100.166,333.542c1.981,9.411,6.088,16.734,12.321,21.975
				c-5.346-7.141-8.647-15.017-9.906-23.63L100.166,333.542z M96.672,336.065c2.567,10.347,8.857,18.792,18.865,25.337
				c-8.649-8.233-14.008-16.978-16.069-26.229L96.672,336.065z"/>
		</g>
	</g>
</g>
<title>humaaans/sitting-5</title>
<desc>Created with Sketch.</desc>
</svg>
