<?xml version="1.0" encoding="utf-8"?>
<!-- Generator: Adobe Illustrator 15.1.0, SVG Export Plug-In . SVG Version: 6.00 Build 0)  -->
<!DOCTYPE svg PUBLIC "-//W3C//DTD SVG 1.1//EN" "http://www.w3.org/Graphics/SVG/1.1/DTD/svg11.dtd">
<svg version="1.1" id="Layer_1" xmlns="http://www.w3.org/2000/svg" xmlns:xlink="http://www.w3.org/1999/xlink" x="0px" y="0px"
	 width="678px" height="429.5px" viewBox="29 201 678 429.5" enable-background="new 29 201 678 429.5" xml:space="preserve">
<title>Scene/Home</title>
<desc>Created with Sketch.</desc>
<g id="Clock" transform="translate(505.000000, 85.000000)">
	<circle id="Clock-Frame" fill="#F2F2F2" cx="52" cy="169" r="53"/>
	<circle id="Time" fill-opacity="0.1" cx="52" cy="127" r="3"/>
	<circle id="Time_1_" fill-opacity="0.1" cx="10" cy="169" r="3"/>
	<circle id="Time_2_" fill-opacity="0.1" cx="94" cy="169" r="3"/>
	<circle id="Time_3_" fill-opacity="0.1" cx="52" cy="211" r="3"/>
	<polygon id="Hand" fill="#AFB9C5" points="52,133 54,168 50,168 	"/>
	<polygon id="Hand_1_" fill="#AFB9C5" points="69.698,186.698 51.313,171.142 54.143,168.313 	"/>
	<circle id="Time_4_" fill="#C5CFD6" cx="52" cy="169" r="4"/>
</g>
<g id="Background-Shape-2" transform="translate(29.000000, 244.000000)" opacity="0.3459">
	<path id="Background-Shape" fill="#F2F2F2" d="M472.794,172.385C465.898,95.336,95.964-53.376,27.287,19.603
		c-68.677,72.979-2.652,209.942,141.27,245.014C312.478,299.689,479.688,249.434,472.794,172.385z"/>
	<path id="Background-Shape_1_" fill="#DDE3E9" d="M244.145,222.447C250.32,156.992,581.692,30.655,643.21,92.653
		c61.519,61.999,45.947,192.405-82.972,222.201C431.318,344.65,237.968,287.903,244.145,222.447z"/>
</g>
<g>
	<g id="Objects_x2F_Seat_x2F_Cube_1_" transform="translate(10.000000, 42.000000)">
		<g id="Seat_1_" transform="translate(55.000000, 0.000000)">
			<polygon id="Seat-Stuff_3_" fill="#C5CFD6" points="346.196,500.138 288.753,500.138 281.229,590.5 366.735,590.5 			"/>
			<polygon id="Seat-Stuff_2_" fill-opacity="0.1" points="346.196,500.138 328.53,500.138 317.958,590.5 366.735,590.5 			"/>
		</g>
	</g>
	<path id="Skin_3_" fill="#F2CABB" d="M291.239,526.657c-6.124-3.604-16.398,1.023-16.391,6.182
		c0.022,15.422,14.383,88.111,15.133,92.707c0.749,4.594,8.781,5.808,9.251,0.016c0.744-9.22,2.125-41.133,0.742-55.904
		c-0.571-6.099-1.185-11.905-1.791-17.084c7.534,13.338,19.189,32.433,34.965,57.289l8.563-3.836
		c-6.725-21.713-12.238-37.041-16.542-45.985c-7.367-15.315-14.28-28.433-17.186-33.052
		C303.408,519.722,295.446,522.258,291.239,526.657z"/>
	<path id="LegLower_1_" fill="#7C7F84" d="M341.098,593.968l-29.392-68.235c-7.04-11.101-26.782,2.258-24.381,8.696
		c5.449,14.617,33.176,61.938,34.799,66.289L341.098,593.968z"/>
	
		<g id="Accessories_x2F_Shoe_x2F_Flat-Sneaker_3_" transform="translate(215.500000, 133.000000) rotate(30.000000) translate(-215.500000, -133.000000) translate(185.000000, 113.000000)">
		<path id="shoe_3_" fill="#E4E4E4" d="M375.044,362.312c2.326,0.366,3.961,0.812,4.905,1.348c1.151,0.65,2.715,1.792,4.695,3.422
			c-0.787,1.334-7.843,13.32-21.178,35.956c-3.639-0.814-4.989-2.297-4.051-4.448c0.94-2.151,1.702-3.951,2.289-5.396l2.392-20.928
			c0.048-0.403,0.412-0.699,0.82-0.658c0.007-0.001,0.012,0.001,0.02,0.001l3.238,0.4c1.966-1.372,3.294-2.64,3.979-3.805
			c0.558-0.948,0.945-2.471,1.164-4.57l0,0c0.083-0.807,0.81-1.403,1.623-1.335C374.975,362.302,375.013,362.306,375.044,362.312z"
			/>
	</g>
	<g id="Accessories_x2F_Shoe_x2F_Flat-Sneaker_2_" transform="translate(242.000000, 126.000000)">
		<path id="shoe_2_" fill="#E4E4E4" d="M59.112,495.861c0.83,2.177,1.247,3.804,1.247,4.885c0,1.315-0.225,3.234-0.67,5.754
			c-1.555,0-15.535,0-41.938,0c-1.089-3.531-0.46-5.438,1.887-5.719c2.348-0.28,4.3-0.535,5.852-0.764l19.492-8.516
			c0.375-0.162,0.816,0.001,0.982,0.368c0.002,0.007,0.006,0.013,0.009,0.019l1.253,2.98c2.173,0.992,3.941,1.491,5.298,1.491
			c1.104,0,2.628-0.439,4.574-1.312l0,0c0.747-0.336,1.63-0.015,1.973,0.716C59.084,495.798,59.099,495.829,59.112,495.861z"/>
	</g>
	<path id="Leg-and-Butt_1_" fill="#8F919B" d="M272.786,538.081c0,19.358,9.383,64.519,9.388,68.782l20.185,0.015
		c-2.954-40.296-4.003-60.659-3.143-61.093c1.288-0.65,52.827,5.043,68.286,5.043c22.29,0,31.513-13.776,32.26-39.297h-44.158
		c-8.989,0.942-55.884,10.214-73.3,13.4C274.848,526.296,272.786,532.748,272.786,538.081z"/>
	<g id="humaaans_x2F_sitting-8">
		
			<g id="A-Human_x2F_Sitting_1_" transform="translate(206.000000, 200.500000) scale(-1, 1) translate(-206.000000, -200.500000) translate(56.000000, 24.000000)">
			<g id="Head_x2F_Front_x2F_Short-2" transform="translate(82.000000, 0.000000)">
				<g id="Head_1_" transform="translate(54.000000, 31.000000)">
					<path fill="#EFC1AB" d="M-156.519,350.314c-3.425-4.426-5.746-9.849-5.357-15.927c1.118-17.506,23.268-13.654,27.576-4.819
						c4.31,8.837,3.796,31.252-1.772,32.832c-2.219,0.629-6.951-0.913-11.765-4.108l3.021,23.526h-17.845L-156.519,350.314z"/>
				</g>
				<path id="Hair" fill="#774738" d="M-103.89,385.255c-2.238-10.965-8.619-18.438-7.646-23.339
					c0.652-3.266,2.383-5.298,5.196-6.095c1.454-6.477,6.147-9.23,14.077-8.265c11.897,1.451,19.157,6.888,16.021,18.85
					c-2.88,0-6.361-1.147-11.17,0.818c-1.528,0.62-2.624,2.556-3.277,5.8h-2.174c-2.111-3.85-4.191-5.265-6.243-4.244
					c-2.051,1.02-2.519,3.498-1.398,7.435l-1.071,9.04H-103.89z"/>
			</g>
			<g id="Body_x2F_Hoodie" transform="translate(22.000000, 82.000000)">
				<path id="Skin_2_" fill="#EFC1AB" d="M8.429,388.26l23.718,19.164c6.433,1.912,11.805,4.287,16.123,7.128
					c1.019,1.023,2.251,3.094-1.976,2.735c-4.229-0.355-8.692-0.524-9.275,1.06c-0.583,1.59,1.978,3.485,0.796,5.628
					c-0.785,1.427-4.501-2.152-11.143-10.736L3.186,402.521L8.429,388.26z M-82.634,388.922l15.537,0.066
					c-9.595,34.079-14.774,52.162-15.537,54.246c-1.721,4.691,1.919,11.836,3.476,15.675c-5.071,2.498-4.531-6.749-10.927-3.474
					c-5.839,2.988-10.282,8.403-17.026,3.825c-0.83-0.564-1.737-2.684,0.457-4.341c5.471-4.129,13.355-11.352,14.42-13.732
					C-90.78,437.949-87.583,420.523-82.634,388.922z"/>
				<path id="Coat-Back" fill="#E87613" d="M-38.477,317.184l6.428-1.215c23.855,22.675,33.652,66.235,62.893,89.31l-7.038,9.602
					C-26.919,407.969-39.494,354.834-38.477,317.184z"/>
				<path id="Shirt" fill="#DDE3E9" d="M-66.505,406.087c25.778,0,44.742,0,56.889,0c2.6,0,2.111-4.13,1.733-6.215
					c-4.336-24.054-21.266-49.982-21.266-84.222l-16.412-2.83C-59.133,336.838-63.824,366.41-66.505,406.087z"/>
				<path id="Coat-Front" fill="#FF9B21" d="M-66.05,336.43c-2.382-0.753-4.27-2.512-5.661-5.275
					c-5.997-11.907-3.832-18.463,2.578-20.619c6.41-2.154,12.126,2.285,22.338,2.285c0.557,0,1.064,0.038,1.526,0.114l5.137,0.323
					c14.737,54.961,18.804,91.631,12.194,110.011h-44.775c-2.654,6.807-5.19,12.531-7.617,17.179h-12.199
					C-93.679,399.595-84.851,364.924-66.05,336.43z"/>
				<path id="Shade" fill-opacity="0.1" d="M-62.963,395.04c1.407,12.966,3.695,22.373,6.865,28.229h-16.615
					C-69.619,415.326-66.367,405.919-62.963,395.04z"/>
			</g>
		</g>
	</g>
</g>
<g id="Table" transform="translate(135.000000, 353.000000)">
	<path fill="#D6D6D6" d="M14.156,139.806h409.687H527.5V273.5h-26.532V168.087H-63.356V273.5H-89.5V139.806H14.156z"/>
</g>
<title>humaaans/sitting-5</title>
<desc>Created with Sketch.</desc>
<g id="Bottom_x2F_Sitting_x2F_Skinny-Jeans-1_1_" transform="translate(0.000000, 187.000000)">
	<g id="Objects_x2F_Seat_x2F_Cube_2_" transform="translate(10.000000, 42.000000)">
		<g id="Seat_2_" transform="translate(55.000000, 0.000000)">
			<polygon id="Seat-Stuff_5_" fill="#C5CFD6" points="526.431,306.974 471.119,306.974 463.872,400.857 546.21,400.857 			"/>
			<polygon id="Seat-Stuff_4_" fill-opacity="0.1" points="526.431,306.974 509.422,306.974 499.237,400.857 546.21,400.857 			"/>
		</g>
	</g>
	<path id="Skin_5_" fill="#EFD0B1" d="M473.058,332.89c-5.897-3.744-15.792,1.066-15.786,6.422
		c0.021,16.023,13.851,91.548,14.572,96.321c0.723,4.772,8.457,6.035,8.908,0.015c0.717-9.577,2.049-42.735,0.716-58.081
		c-0.551-6.336-1.143-12.369-1.726-17.753c7.256,13.859,18.479,33.698,33.669,59.522l8.245-3.984
		c-6.475-22.557-11.785-38.485-15.929-47.778c-7.095-15.912-13.749-29.537-16.548-34.338
		C484.775,325.685,477.109,328.319,473.058,332.89z"/>
	<path id="LegLower_2_" fill="#B7C5ED" d="M521.066,402.825l-28.301-70.895c-6.78-11.535-25.789,2.346-23.477,9.036
		c5.249,15.185,31.945,64.348,33.509,68.872L521.066,402.825z"/>
	
		<g id="Accessories_x2F_Shoe_x2F_Flat-Sneaker_5_" transform="translate(215.500000, 133.000000) rotate(30.000000) translate(-215.500000, -133.000000) translate(185.000000, 113.000000)">
		<path id="shoe_5_" fill="#E4E4E4" d="M435.432,107.084c2.293,0.448,3.912,0.959,4.857,1.535c1.153,0.703,2.726,1.917,4.724,3.646
			c-0.728,1.335-7.266,13.328-19.613,35.976c-3.598-0.947-4.972-2.505-4.121-4.669c0.851-2.164,1.54-3.974,2.069-5.426l1.659-21.268
			c0.033-0.409,0.382-0.698,0.784-0.646c0.005,0.001,0.012,0.001,0.019,0.004l3.193,0.513c1.886-1.33,3.147-2.584,3.784-3.749
			c0.517-0.946,0.846-2.489,0.991-4.625l0,0c0.056-0.818,0.749-1.404,1.55-1.308C435.363,107.071,435.396,107.078,435.432,107.084z"
			/>
	</g>
	<g id="Accessories_x2F_Shoe_x2F_Flat-Sneaker_4_" transform="translate(242.000000, 126.000000)">
		<path id="shoe_4_" fill="#E4E4E4" d="M240.563,305.805c0.8,2.263,1.202,3.953,1.202,5.076c0,1.365-0.216,3.356-0.646,5.977
			c-1.498,0-14.961,0-40.384,0c-1.048-3.67-0.444-5.647,1.817-5.941c2.262-0.293,4.138-0.557,5.634-0.791l18.771-8.85
			c0.36-0.171,0.784,0.001,0.945,0.382c0.002,0.007,0.006,0.014,0.01,0.021l1.205,3.094c2.094,1.032,3.794,1.548,5.104,1.548
			c1.063,0,2.53-0.453,4.404-1.362l0,0c0.718-0.346,1.567-0.012,1.898,0.749C240.537,305.738,240.55,305.771,240.563,305.805z"/>
	</g>
	<path id="Leg-and-Butt_2_" fill="#C5D3F9" d="M455.288,344.761c0,20.112,9.033,67.032,9.04,71.461l19.437,0.017
		c-2.846-41.865-3.854-63.023-3.027-63.476c1.241-0.676,50.873,5.239,65.756,5.239c21.465,0,30.344-14.312,31.066-40.826h-42.521
		c-8.658,0.978-53.816,10.611-70.587,13.922C457.271,332.516,455.288,339.219,455.288,344.761z"/>
</g>
<g id="Head_x2F_Front_x2F_Long">
	<path id="Hair-Back" fill="#020202" d="M546.46,383.035h1.433c8.502,0,15.394,7.288,15.394,16.278v15.9
		c0,8.379-5.985,15.276-13.681,16.18c-0.002,0.037-0.005,0.075-0.008,0.115h-20.763c-3.282-3.391-0.065-25.008,2.402-34.627
		C532.347,389.046,538.739,383.035,546.46,383.035z"/>
	<g id="Head_2_" transform="translate(54.000000, 31.000000)">
		<path fill="#EFD0B1" d="M507.138,410.333h-17.184l2.911-21.771c-4.638,2.956-9.193,4.382-11.331,3.8
			c-5.363-1.462-5.855-22.206-1.707-30.384c4.15-8.177,25.479-11.741,26.554,4.461c0.374,5.624-1.859,10.644-5.158,14.737
			L507.138,410.333z"/>
	</g>
	<path id="Hair-Front" fill="#020202" d="M550.756,409.444c2.175,0,3.938-1.864,3.938-4.163c0-2.301-1.764-4.165-3.938-4.165
		c-0.94,0-1.804,0.349-2.48,0.931c-5.746-3.769-12.212-4.665-13.879-10.711c2.229-3.465,4.845-7.545,13.136-7.545
		c5.529,0,10.089,3.895,13.685,11.678l-0.022,0.588c0.652,0.614,1.313,1.328,2.007,2.049c0,20.012,11.183,11.779,10.026,33.035
		h-20.765c-2.359-2.439-2.676-12.706-1.885-21.7C550.637,409.444,550.696,409.444,550.756,409.444z"/>
</g>
<g id="Body_x2F_Long-Sleeve">
	<path id="Skin_4_" fill="#EFD0B1" d="M496.572,506.123l-24.65,1.161c-8.621,5.223-13.079,7.068-13.374,5.533
		c-0.441-2.304,2.46-3.071,2.397-4.676c-0.061-1.605-4.19-3.031-8.162-4.206c-3.97-1.175-2.23-2.566-0.996-3.106
		c4.79-0.981,10.409-1.182,16.856-0.597l27.369-8.523L496.572,506.123z M614.621,545.369c1.026,2.2,8.617,8.886,13.884,12.704
		c2.117,1.534,1.241,3.496,0.441,4.017c-6.496,4.238-10.771-0.773-16.394-3.539c-6.16-3.031-5.64,5.527-10.523,3.216
		c1.501-3.553,5.004-10.165,3.35-14.508c-0.738-1.929-9.702-23.35-26.894-64.26l15.678-0.062
		C606.404,521.558,613.222,542.368,614.621,545.369z"/>
	<path id="Clothes-Back" fill="#78789E" d="M548.562,467.666c-6.194,39.498-36.415,54.089-70.876,49.379l-3.588-32.177
		c36.87,6.185,61.823-17.153,64.846-46.077l12.275-0.864C551.429,446.8,550.165,457.44,548.562,467.666z"/>
	<path id="Clothes_1_" fill="#948FC6" d="M557.285,426.57h1.218c27.454,26.245,45.446,63.343,53.966,111.297h-37.61
		c-0.225-9.072-0.661-17.905-1.368-26.5h-50.231c5.228-24.872,15.417-46.454,15.417-80.28l18.599-4.505L557.285,426.57z"/>
	<path id="Shade_1_" fill-opacity="0.1" d="M573.49,511.367h-10.209c2.817-11.094,3.578-27.181,2.285-48.26
		C569.614,478.258,572.089,494.345,573.49,511.367z"/>
</g>
<g id="A-Human_x2F_Sitting" transform="translate(190.000000, 200.500000) scale(-1, 1) translate(-190.000000, -200.500000) translate(40.000000, 24.000000)">
	<g id="Head_x2F_Front_x2F_Rad" transform="translate(82.000000, 0.000000)">
		<g id="Head" transform="translate(54.000000, 31.000000)">
			<path fill="#B28B67" d="M70.126,387.649H53.508l2.815-21.545c-4.483,2.924-8.889,4.336-10.957,3.76
				c-5.186-1.444-5.662-21.975-1.649-30.068c4.011-8.093,24.638-11.62,25.677,4.416c0.363,5.564-1.797,10.531-4.989,14.583
				L70.126,387.649z"/>
		</g>
	</g>
	<g id="Bottom_x2F_Sitting_x2F_Skinny-Jeans-1" transform="translate(0.000000, 187.000000)">
		<g id="Objects_x2F_Seat_x2F_Cube" transform="translate(10.000000, 42.000000)">
			<g id="Seat" transform="translate(55.000000, 0.000000)">
				<polygon id="Seat-Stuff" fill="#C5CFD6" points="190.285,376.215 110.663,376.215 117.671,283.308 171.159,283.308 				"/>
				<polygon id="Seat-Stuff_1_" fill-opacity="0.1" points="190.285,376.215 144.862,376.215 154.708,283.308 171.159,283.308 				
					"/>
			</g>
		</g>
		<path id="Skin" fill="#B28B67" d="M137.279,309.73c2.708,4.751,9.142,18.235,16.003,33.982
			c4.007,9.197,9.142,24.958,15.403,47.282l-7.974,3.942c-14.688-25.555-25.541-45.19-32.558-58.904
			c0.563,5.328,1.136,11.299,1.668,17.566c1.288,15.187,0,48.002-0.693,57.479c-0.435,5.958-7.915,4.711-8.614-0.015
			c-0.698-4.724-14.071-79.462-14.09-95.32c-0.007-5.3,9.562-10.061,15.265-6.354C125.606,304.865,133.02,302.26,137.279,309.73z"/>
		<path id="LegLower" fill="#1F28CF" d="M150.448,385.539c-1.512-4.478-27.329-53.13-32.404-68.158
			c-2.236-6.619,16.146-20.355,22.703-8.943l27.368,70.159L150.448,385.539z"/>
		
			<g id="Accessories_x2F_Shoe_x2F_Flat-Sneaker" transform="translate(215.500000, 133.000000) rotate(30.000000) translate(-215.500000, -133.000000) translate(185.000000, 113.000000)">
			<path id="shoe" fill="#E4E4E4" d="M117.464,262.514c-0.779-0.102-1.448,0.467-1.494,1.273l0,0
				c-0.121,2.099-0.426,3.613-0.92,4.54c-0.607,1.141-1.821,2.359-3.644,3.652l-3.11-0.536c-0.007-0.002-0.013-0.003-0.019-0.003
				c-0.391-0.055-0.729,0.224-0.755,0.627l-1.409,20.908c-0.497,1.426-1.15,3.201-1.957,5.322c-0.807,2.12,0.546,3.667,4.056,4.635
				c11.789-22.165,18.029-33.902,18.724-35.208c-1.961-1.721-3.503-2.931-4.629-3.633c-0.925-0.576-2.506-1.096-4.742-1.559
				C117.532,262.525,117.498,262.518,117.464,262.514z"/>
		</g>
		<g id="Accessories_x2F_Shoe_x2F_Flat-Sneaker_1_" transform="translate(242.000000, 126.000000)">
			<path id="shoe_1_" fill="#E4E4E4" d="M-111.158,281.178c-0.319-0.752-1.141-1.083-1.836-0.737l0,0
				c-1.812,0.898-3.231,1.348-4.259,1.348c-1.265,0-2.911-0.512-4.934-1.533l-1.167-3.063c-0.002-0.006-0.005-0.013-0.008-0.02
				c-0.155-0.377-0.565-0.548-0.914-0.38l-18.15,8.756c-1.447,0.233-3.263,0.495-5.449,0.786c-2.187,0.29-2.773,2.249-1.758,5.88
				c24.586,0,37.603,0,39.051,0c0.416-2.593,0.624-4.563,0.624-5.916c0-1.11-0.387-2.784-1.162-5.022
				C-111.132,281.244-111.145,281.21-111.158,281.178z"/>
		</g>
		<path id="Leg-and-Butt" fill="#2B44FF" d="M113.367,307.615c16.218-3.276,59.887-12.808,68.259-13.778h41.117
			c-0.696,26.24-9.283,40.403-30.04,40.403c-14.392,0-62.387-5.852-63.586-5.184c-0.801,0.445,0.176,21.384,2.926,62.814
			l-18.795-0.017c-0.005-4.382-8.74-50.814-8.74-70.72C104.506,315.652,106.424,309.017,113.367,307.615z"/>
	</g>
	<g id="Body_x2F_Pointing-Forward" transform="translate(22.000000, 82.000000)">
		<path id="Skin_1_" fill="#997659" d="M144.345,362.467l-17.462-17.304c-9.2-2.741-13.406-4.749-12.62-6.02
			c1.178-1.905,3.64-0.303,4.628-1.45c0.987-1.146-0.897-5.156-2.836-8.88c-1.938-3.724,0.135-3.4,1.32-2.863
			c3.879,2.841,7.816,6.83,11.813,11.965l24.032,14.244L144.345,362.467z M114.98,375.64c-4.559-3.561-8.798-5.931-12.72-7.113
			c-7.5-2.263-10.534-3.992-14.199-9.046c-1.961-2.703-3.625-8.139-1.758-9.909c1.261-1.196,8.584,4.696,11.583,5.365
			c3,0.669,0.245-7.039,1.827-6.242c2.06,0.039,3.831,3.107,5.311,9.206l10.558,6.276L114.98,375.64z"/>
		<path id="Sleeve" fill="#2026A2" d="M158.636,365.943c-10.158,0.308-21.774-6.98-30.036-15.854l4.703-11.352
			c11.977,8.228,23.202,10.151,31.621,10.247C170.73,355.222,166.64,365.699,158.636,365.943z"/>
		<path id="Clothes" fill="#1F28CF" d="M164.363,320.165h19.212c2.106,0,16.424,29.702,16.437,48.999
			c0.013,17.62,15.163,28.814,7.327,56.35c-12.513-2.663-49.727,10.88-56.083-3.746c-3.092-7.112-4.012-14.898-3.607-23.078
			c-12.742-0.302-28.208-4.849-46.253-15.049c-0.393-4.976,2.019-13.303,7.236-24.983c21.035,8.1,36.021,10.943,44.956,8.532
			C157.968,351.144,163.303,334.901,164.363,320.165z"/>
	</g>
	<g id="Head_x2F_Front_x2F_Turban-1">
		<g id="Turban_1_" transform="translate(31.000000, 23.000000)">
			<g>
				<path id="path-1_4_" fill="#86BFB7" d="M149.666,344.501c0.146-0.94-0.145-1.403,3.522-4.055
					c3.666-2.649,9.585-5.776,15.547-4.416c7.737,1.767,10.811,7.033,13.793,9.593c2.691,2.309,5.39,2.577,6.989,5.44
					c1.597,2.863,2.45,11.104,1.061,14.38c-1.92,4.519-5.704,5.736-8.465,7.038c-4.736,2.232-11.432-0.126-11.594-0.517
					c-1.255-3.021-8.008-11.545-12.067-15.125C155.465,354.206,148.975,348.916,149.666,344.501z"/>
			</g>
			<defs>
				<filter id="Adobe_OpacityMaskFilter" filterUnits="userSpaceOnUse">
					<feColorMatrix  type="matrix" values="1 0 0 0 0  0 1 0 0 0  0 0 1 0 0  0 0 0 1 0"/>
				</filter>
			</defs>
			<mask maskUnits="userSpaceOnUse" id="mask-2_1_">
				<g filter="url(#Adobe_OpacityMaskFilter)">
					<path id="path-1_1_" fill="#FFFFFF" d="M149.666,344.501c0.146-0.94-0.145-1.403,3.522-4.055
						c3.666-2.649,9.585-5.776,15.547-4.416c7.737,1.767,10.811,7.033,13.793,9.593c2.691,2.309,5.39,2.577,6.989,5.44
						c1.597,2.863,2.45,11.104,1.061,14.38c-1.92,4.519-5.704,5.736-8.465,7.038c-4.736,2.232-11.432-0.126-11.594-0.517
						c-1.255-3.021-8.008-11.545-12.067-15.125C155.465,354.206,148.975,348.916,149.666,344.501z"/>
				</g>
			</mask>
			<path id="SHade_1_" mask="url(#mask-2_1_)" fill-opacity="0.2" d="M182.587,343.819c-1.259,8.204-4.56,15.707-9.906,22.509
				c6.233-4.992,10.34-11.968,12.321-20.933L182.587,343.819z M185.7,346.95c-2.062,8.813-7.42,17.142-16.069,24.984
				c10.008-6.234,16.298-14.279,18.865-24.135L185.7,346.95z"/>
		</g>
	</g>
</g>
<title>humaaans/sitting-5</title>
<desc>Created with Sketch.</desc>
</svg>
