<?xml version="1.0" encoding="utf-8"?>
<!-- Generator: Adobe Illustrator 15.1.0, SVG Export Plug-In . SVG Version: 6.00 Build 0)  -->
<!DOCTYPE svg PUBLIC "-//W3C//DTD SVG 1.1//EN" "http://www.w3.org/Graphics/SVG/1.1/DTD/svg11.dtd">
<svg version="1.1" id="Layer_1" xmlns="http://www.w3.org/2000/svg" xmlns:xlink="http://www.w3.org/1999/xlink" x="0px" y="0px"
	 width="678px" height="429.5px" viewBox="29 201 678 429.5" enable-background="new 29 201 678 429.5" xml:space="preserve">
<title>Scene/Home</title>
<desc>Created with Sketch.</desc>
<g id="Scene_x2F_Home">
	<g id="Clock" transform="translate(505.000000, 85.000000)">
		<circle id="Clock-Frame" fill="#F2F2F2" cx="52" cy="169" r="53"/>
		<circle id="Time" fill-opacity="0.1" cx="52" cy="127" r="3"/>
		<circle id="Time_1_" fill-opacity="0.1" cx="10" cy="169" r="3"/>
		<circle id="Time_2_" fill-opacity="0.1" cx="94" cy="169" r="3"/>
		<circle id="Time_3_" fill-opacity="0.1" cx="52" cy="211" r="3"/>
		<polygon id="Hand" fill="#AFB9C5" points="52,133 54,168 50,168 		"/>
		<polygon id="Hand_1_" fill="#AFB9C5" points="69.698,186.698 51.313,171.142 54.143,168.313 		"/>
		<circle id="Time_4_" fill="#C5CFD6" cx="52" cy="169" r="4"/>
	</g>
	<g id="Background-Shape-2" transform="translate(29.000000, 244.000000)" opacity="0.3459">
		<path id="Background-Shape" fill="#F2F2F2" d="M472.794,172.385C465.898,95.336,95.964-53.376,27.287,19.603
			c-68.677,72.979-2.652,209.942,141.27,245.014C312.478,299.689,479.688,249.434,472.794,172.385z"/>
		<path id="Background-Shape_1_" fill="#DDE3E9" d="M244.145,222.447C250.32,156.992,581.692,30.655,643.21,92.653
			c61.519,61.999,45.947,192.405-82.972,222.201C431.318,344.65,237.968,287.903,244.145,222.447z"/>
	</g>
	<g id="Table" transform="translate(135.000000, 353.000000)">
		<path fill="#F2F2F2" d="M14.156,143.806h409.687H527.5V277.5h-26.532V172.087H-63.356V277.5H-89.5V143.806H14.156z"/>
	</g>
</g>
<g>
	<g id="Objects_x2F_Seat_x2F_Cube_1_" transform="translate(10.000000, 42.000000)">
		<g id="Seat_1_" transform="translate(55.000000, 0.000000)">
			<polygon id="Seat-Stuff_3_" fill="#C5CFD6" points="346.196,498.138 288.753,498.138 281.229,588.5 366.735,588.5 			"/>
			<polygon id="Seat-Stuff_2_" fill-opacity="0.1" points="346.196,498.138 328.53,498.138 317.958,588.5 366.735,588.5 			"/>
		</g>
	</g>
	<path id="Skin_3_" fill="#F2CABB" d="M291.239,524.657c-6.124-3.604-16.398,1.023-16.391,6.182
		c0.022,15.422,14.383,88.111,15.133,92.707c0.749,4.594,8.781,5.808,9.251,0.016c0.744-9.22,2.125-41.133,0.742-55.904
		c-0.571-6.099-1.185-11.905-1.791-17.084c7.534,13.338,19.189,32.433,34.965,57.289l8.563-3.836
		c-6.725-21.713-12.238-37.041-16.542-45.985c-7.367-15.315-14.28-28.433-17.186-33.052
		C303.408,517.722,295.446,520.258,291.239,524.657z"/>
	<path id="LegLower_1_" fill="#7C7F84" d="M341.098,591.968l-29.392-68.235c-7.04-11.101-26.782,2.258-24.381,8.696
		c5.449,14.617,33.176,61.938,34.799,66.289L341.098,591.968z"/>
	
		<g id="Accessories_x2F_Shoe_x2F_Flat-Sneaker_3_" transform="translate(215.500000, 133.000000) rotate(30.000000) translate(-215.500000, -133.000000) translate(185.000000, 113.000000)">
		<path id="shoe_3_" fill="#E4E4E4" d="M374.044,360.58c2.326,0.366,3.961,0.812,4.905,1.349c1.151,0.65,2.715,1.792,4.695,3.422
			c-0.787,1.334-7.843,13.32-21.178,35.956c-3.639-0.814-4.989-2.297-4.051-4.448c0.94-2.151,1.702-3.951,2.289-5.396l2.392-20.928
			c0.048-0.403,0.412-0.699,0.82-0.658c0.007-0.001,0.012,0.001,0.02,0.001l3.238,0.4c1.966-1.372,3.294-2.64,3.979-3.805
			c0.558-0.948,0.945-2.471,1.164-4.57l0,0c0.083-0.807,0.81-1.403,1.623-1.335C373.975,360.57,374.013,360.574,374.044,360.58z"/>
	</g>
	<g id="Accessories_x2F_Shoe_x2F_Flat-Sneaker_2_" transform="translate(242.000000, 126.000000)">
		<path id="shoe_2_" fill="#E4E4E4" d="M59.112,493.861c0.83,2.177,1.247,3.804,1.247,4.885c0,1.315-0.225,3.234-0.67,5.754
			c-1.555,0-15.535,0-41.938,0c-1.089-3.531-0.46-5.438,1.887-5.719c2.348-0.28,4.3-0.535,5.852-0.764l19.492-8.516
			c0.375-0.162,0.816,0.001,0.982,0.368c0.002,0.007,0.006,0.013,0.009,0.019l1.253,2.98c2.173,0.992,3.941,1.491,5.298,1.491
			c1.104,0,2.628-0.439,4.574-1.312l0,0c0.747-0.336,1.63-0.015,1.973,0.716C59.084,493.798,59.099,493.829,59.112,493.861z"/>
	</g>
	<path id="Leg-and-Butt_1_" fill="#8F919B" d="M272.786,536.081c0,19.358,9.383,64.519,9.388,68.782l20.185,0.015
		c-2.954-40.296-4.003-60.659-3.143-61.093c1.288-0.65,52.827,5.043,68.286,5.043c22.29,0,31.513-13.776,32.26-39.297h-44.158
		c-8.989,0.942-55.884,10.214-73.3,13.4C274.848,524.296,272.786,530.748,272.786,536.081z"/>
	<g id="humaaans_x2F_sitting-8">
		
			<g id="A-Human_x2F_Sitting_1_" transform="translate(206.000000, 200.500000) scale(-1, 1) translate(-206.000000, -200.500000) translate(56.000000, 24.000000)">
			<g id="Head_x2F_Front_x2F_Short-2" transform="translate(82.000000, 0.000000)">
				<g id="Head_1_" transform="translate(54.000000, 31.000000)">
					<path fill="#EFC1AB" d="M-156.519,348.314c-3.425-4.426-5.746-9.849-5.357-15.927c1.118-17.506,23.268-13.654,27.576-4.819
						c4.31,8.837,3.796,31.252-1.772,32.832c-2.219,0.629-6.951-0.913-11.765-4.108l3.021,23.526h-17.845L-156.519,348.314z"/>
				</g>
				<path id="Hair" fill="#774738" d="M-103.89,383.255c-2.238-10.965-8.619-18.438-7.646-23.339
					c0.652-3.266,2.383-5.298,5.196-6.095c1.454-6.477,6.147-9.23,14.077-8.265c11.897,1.451,19.157,6.888,16.021,18.85
					c-2.88,0-6.361-1.147-11.17,0.818c-1.528,0.62-2.624,2.556-3.277,5.8h-2.174c-2.111-3.85-4.191-5.265-6.243-4.244
					c-2.051,1.02-2.519,3.498-1.398,7.435l-1.071,9.04H-103.89z"/>
			</g>
			<g id="Body_x2F_Hoodie" transform="translate(22.000000, 82.000000)">
				<path id="Skin_2_" fill="#EFC1AB" d="M8.429,386.26l23.718,19.164c6.433,1.912,11.805,4.287,16.123,7.128
					c1.019,1.023,2.251,3.094-1.976,2.735c-4.229-0.355-8.692-0.524-9.275,1.06c-0.583,1.59,1.978,3.485,0.796,5.628
					c-0.785,1.427-4.501-2.152-11.143-10.736L3.186,400.521L8.429,386.26z M-82.634,386.922l15.537,0.066
					c-9.595,34.079-14.774,52.162-15.537,54.246c-1.721,4.691,1.919,11.836,3.476,15.675c-5.071,2.498-4.531-6.749-10.927-3.474
					c-5.839,2.988-10.282,8.403-17.026,3.825c-0.83-0.564-1.737-2.684,0.457-4.341c5.471-4.129,13.355-11.352,14.42-13.732
					C-90.78,435.949-87.583,418.523-82.634,386.922z"/>
				<path id="Coat-Back" fill="#E87613" d="M-38.477,315.184l6.428-1.215c23.855,22.675,33.652,66.235,62.893,89.31l-7.038,9.602
					C-26.919,405.969-39.494,352.834-38.477,315.184z"/>
				<path id="Shirt" fill="#DDE3E9" d="M-66.505,404.087c25.778,0,44.742,0,56.889,0c2.6,0,2.111-4.13,1.733-6.215
					c-4.336-24.054-21.266-49.982-21.266-84.222l-16.412-2.83C-59.133,334.838-63.824,364.41-66.505,404.087z"/>
				<path id="Coat-Front" fill="#FF9B21" d="M-66.05,334.43c-2.382-0.753-4.27-2.512-5.661-5.275
					c-5.997-11.907-3.832-18.463,2.578-20.619c6.41-2.154,12.126,2.285,22.338,2.285c0.557,0,1.064,0.038,1.526,0.114l5.137,0.323
					c14.737,54.961,18.804,91.631,12.194,110.011h-44.775c-2.654,6.807-5.19,12.531-7.617,17.179h-12.199
					C-93.679,397.595-84.851,362.924-66.05,334.43z"/>
				<path id="Shade" fill-opacity="0.1" d="M-62.963,393.04c1.407,12.966,3.695,22.373,6.865,28.229h-16.615
					C-69.619,413.326-66.367,403.919-62.963,393.04z"/>
			</g>
		</g>
	</g>
</g>
<title>humaaans/sitting-5</title>
<desc>Created with Sketch.</desc>
<g id="Bottom_x2F_Sitting_x2F_Skinny-Jeans-1_1_" transform="translate(0.000000, 187.000000)">
	<g id="Objects_x2F_Seat_x2F_Cube_2_" transform="translate(10.000000, 42.000000)">
		<g id="Seat_2_" transform="translate(55.000000, 0.000000)">
			<polygon id="Seat-Stuff_5_" fill="#C5CFD6" points="526.431,306.974 471.119,306.974 463.872,400.857 546.21,400.857 			"/>
			<polygon id="Seat-Stuff_4_" fill-opacity="0.1" points="526.431,306.974 509.422,306.974 499.237,400.857 546.21,400.857 			"/>
		</g>
	</g>
	<path id="Skin_5_" fill="#EFD0B1" d="M473.058,332.89c-5.897-3.744-15.792,1.066-15.786,6.422
		c0.021,16.023,13.851,91.548,14.572,96.321c0.723,4.772,8.457,6.035,8.908,0.015c0.717-9.577,2.049-42.735,0.716-58.081
		c-0.551-6.336-1.143-12.369-1.726-17.753c7.256,13.859,18.479,33.698,33.669,59.522l8.245-3.984
		c-6.475-22.557-11.785-38.485-15.929-47.778c-7.095-15.912-13.749-29.537-16.548-34.338
		C484.775,325.685,477.109,328.319,473.058,332.89z"/>
	<path id="LegLower_2_" fill="#B7C5ED" d="M521.066,402.825l-28.301-70.895c-6.78-11.535-25.789,2.346-23.477,9.036
		c5.249,15.185,31.945,64.348,33.509,68.872L521.066,402.825z"/>
	
		<g id="Accessories_x2F_Shoe_x2F_Flat-Sneaker_5_" transform="translate(215.500000, 133.000000) rotate(30.000000) translate(-215.500000, -133.000000) translate(185.000000, 113.000000)">
		<path id="shoe_5_" fill="#E4E4E4" d="M435.432,107.084c2.293,0.448,3.912,0.959,4.857,1.535c1.153,0.703,2.726,1.917,4.724,3.646
			c-0.728,1.335-7.266,13.328-19.613,35.976c-3.598-0.947-4.972-2.505-4.121-4.669c0.851-2.164,1.54-3.974,2.069-5.426l1.659-21.268
			c0.033-0.409,0.382-0.698,0.784-0.646c0.005,0.001,0.012,0.001,0.019,0.004l3.193,0.513c1.886-1.33,3.147-2.584,3.784-3.749
			c0.517-0.946,0.846-2.489,0.991-4.625l0,0c0.056-0.818,0.749-1.404,1.55-1.308C435.363,107.071,435.396,107.078,435.432,107.084z"
			/>
	</g>
	<g id="Accessories_x2F_Shoe_x2F_Flat-Sneaker_4_" transform="translate(242.000000, 126.000000)">
		<path id="shoe_4_" fill="#E4E4E4" d="M240.563,305.805c0.8,2.263,1.202,3.953,1.202,5.076c0,1.365-0.216,3.356-0.646,5.977
			c-1.498,0-14.961,0-40.384,0c-1.048-3.67-0.444-5.647,1.817-5.941c2.262-0.293,4.138-0.557,5.634-0.791l18.771-8.85
			c0.36-0.171,0.784,0.001,0.945,0.382c0.002,0.007,0.006,0.014,0.01,0.021l1.205,3.094c2.094,1.032,3.794,1.548,5.104,1.548
			c1.063,0,2.53-0.453,4.404-1.362l0,0c0.718-0.346,1.567-0.012,1.898,0.749C240.537,305.738,240.55,305.771,240.563,305.805z"/>
	</g>
	<path id="Leg-and-Butt_2_" fill="#C5D3F9" d="M455.288,344.761c0,20.112,9.033,67.032,9.04,71.461l19.437,0.017
		c-2.846-41.865-3.854-63.023-3.027-63.476c1.241-0.676,50.873,5.239,65.756,5.239c21.465,0,30.344-14.312,31.066-40.826h-42.521
		c-8.658,0.978-53.816,10.611-70.587,13.922C457.271,332.516,455.288,339.219,455.288,344.761z"/>
</g>
<g id="Head_x2F_Front_x2F_Long">
	<path id="Hair-Back" fill="#020202" d="M546.46,383.035h1.433c8.502,0,15.394,7.288,15.394,16.278v15.9
		c0,8.379-5.985,15.276-13.681,16.18c-0.002,0.037-0.005,0.075-0.008,0.115h-20.763c-3.282-3.391-0.065-25.008,2.402-34.627
		C532.347,389.046,538.739,383.035,546.46,383.035z"/>
	<g id="Head_2_" transform="translate(54.000000, 31.000000)">
		<path fill="#EFD0B1" d="M507.138,410.333h-17.184l2.911-21.771c-4.638,2.956-9.193,4.382-11.331,3.8
			c-5.363-1.462-5.855-22.206-1.707-30.384c4.15-8.177,25.479-11.741,26.554,4.461c0.374,5.624-1.859,10.644-5.158,14.737
			L507.138,410.333z"/>
	</g>
	<path id="Hair-Front" fill="#020202" d="M550.756,409.444c2.175,0,3.938-1.864,3.938-4.163c0-2.301-1.764-4.165-3.938-4.165
		c-0.94,0-1.804,0.349-2.48,0.931c-5.746-3.769-12.212-4.665-13.879-10.711c2.229-3.465,4.845-7.545,13.136-7.545
		c5.529,0,10.089,3.895,13.685,11.678l-0.022,0.588c0.652,0.614,1.313,1.328,2.007,2.049c0,20.012,11.183,11.779,10.026,33.035
		h-20.765c-2.359-2.439-2.676-12.706-1.885-21.7C550.637,409.444,550.696,409.444,550.756,409.444z"/>
</g>
<g id="Body_x2F_Long-Sleeve">
	<path id="Skin_4_" fill="#EFD0B1" d="M496.572,506.123l-24.65,1.161c-8.621,5.223-13.079,7.068-13.374,5.533
		c-0.441-2.304,2.46-3.071,2.397-4.676c-0.061-1.605-4.19-3.031-8.162-4.206c-3.97-1.175-2.23-2.566-0.996-3.106
		c4.79-0.981,10.409-1.182,16.856-0.597l27.369-8.523L496.572,506.123z M614.621,545.369c1.026,2.2,8.617,8.886,13.884,12.704
		c2.117,1.534,1.241,3.496,0.441,4.017c-6.496,4.238-10.771-0.773-16.394-3.539c-6.16-3.031-5.64,5.527-10.523,3.216
		c1.501-3.553,5.004-10.165,3.35-14.508c-0.738-1.929-9.702-23.35-26.894-64.26l15.678-0.062
		C606.404,521.558,613.222,542.368,614.621,545.369z"/>
	<path id="Clothes-Back" fill="#78789E" d="M548.562,467.666c-6.194,39.498-36.415,54.089-70.876,49.379l-3.588-32.177
		c36.87,6.185,61.823-17.153,64.846-46.077l12.275-0.864C551.429,446.8,550.165,457.44,548.562,467.666z"/>
	<path id="Clothes_1_" fill="#948FC6" d="M557.285,426.57h1.218c27.454,26.245,45.446,63.343,53.966,111.297h-37.61
		c-0.225-9.072-0.661-17.905-1.368-26.5h-50.231c5.228-24.872,15.417-46.454,15.417-80.28l18.599-4.505L557.285,426.57z"/>
	<path id="Shade_1_" fill-opacity="0.1" d="M573.49,511.367h-10.209c2.817-11.094,3.578-27.181,2.285-48.26
		C569.614,478.258,572.089,494.345,573.49,511.367z"/>
</g>
<g id="A-Human_x2F_Sitting" transform="translate(190.000000, 200.500000) scale(-1, 1) translate(-190.000000, -200.500000) translate(40.000000, 24.000000)">
	<g id="Head_x2F_Front_x2F_Rad" transform="translate(82.000000, 0.000000)">
		<g id="Head" transform="translate(54.000000, 31.000000)">
			<path fill="#B28B67" d="M10.763,358.795c-3.191-4.052-5.352-9.019-4.989-14.583c1.039-16.036,21.666-12.509,25.677-4.416
				c4.012,8.094,3.536,28.624-1.649,30.068c-2.068,0.576-6.474-0.836-10.957-3.76l2.815,21.545H5.042L10.763,358.795z"/>
		</g>
	</g>
	<g id="Bottom_x2F_Sitting_x2F_Skinny-Jeans-1" transform="translate(0.000000, 187.000000)">
		<g id="Objects_x2F_Seat_x2F_Cube" transform="translate(10.000000, 42.000000)">
			<g id="Seat" transform="translate(55.000000, 0.000000)">
				<polygon id="Seat-Stuff" fill="#C5CFD6" points="46.009,283.308 99.497,283.308 106.505,376.215 26.883,376.215 				"/>
				<polygon id="Seat-Stuff_1_" fill-opacity="0.1" points="46.009,283.308 62.46,283.308 72.306,376.215 26.883,376.215 				"/>
			</g>
		</g>
		<path id="Skin" fill="#B28B67" d="M225.479,309.389c5.704-3.706,15.272,1.055,15.265,6.354
			c-0.02,15.858-13.392,90.597-14.09,95.32c-0.699,4.726-8.179,5.973-8.614,0.015c-0.693-9.477-1.98-42.292-0.693-57.479
			c0.532-6.268,1.104-12.238,1.668-17.566c-7.017,13.714-17.87,33.35-32.558,58.904l-7.974-3.942
			c6.262-22.324,11.396-38.085,15.403-47.282c6.861-15.747,13.295-29.231,16.003-33.982
			C214.148,302.26,221.562,304.865,225.479,309.389z"/>
		<path id="LegLower" fill="#1F28CF" d="M179.054,378.597l27.368-70.159c6.557-11.412,24.938,2.324,22.703,8.943
			c-5.076,15.028-30.893,63.681-32.404,68.158L179.054,378.597z"/>
		
			<g id="Accessories_x2F_Shoe_x2F_Flat-Sneaker" transform="translate(215.500000, 133.000000) rotate(30.000000) translate(-215.500000, -133.000000) translate(185.000000, 113.000000)">
			<path id="shoe" fill="#E4E4E4" d="M124.406,258.583c-0.717,2.167-1.058,3.796-1.021,4.886c0.045,1.326,0.322,3.267,0.832,5.826
				c1.478,0.051,14.763,0.516,39.853,1.388c0.916-3.524,0.254-5.469-1.986-5.83c-2.24-0.361-4.104-0.683-5.587-0.966l-18.811-9.234
				c-0.363-0.18-0.773-0.026-0.921,0.34c-0.002,0.006-0.005,0.012-0.007,0.019l-1.091,2.962c-2.031,0.932-3.693,1.374-4.984,1.33
				c-1.05-0.036-2.513-0.528-4.392-1.473l0,0c-0.721-0.363-1.548-0.068-1.849,0.657
				C124.427,258.517,124.416,258.551,124.406,258.583z"/>
		</g>
		<g id="Accessories_x2F_Shoe_x2F_Flat-Sneaker_1_" transform="translate(242.000000, 126.000000)">
			<path id="shoe_1_" fill="#E4E4E4" d="M-25.712,281.276c-0.774,2.238-1.162,3.912-1.162,5.022c0,1.353,0.208,3.323,0.624,5.916
				c1.448,0,14.465,0,39.051,0c1.015-3.631,0.429-5.59-1.758-5.88c-2.186-0.291-4.002-0.553-5.449-0.786l-18.15-8.756
				c-0.349-0.168-0.759,0.003-0.914,0.38c-0.002,0.007-0.006,0.014-0.008,0.02l-1.167,3.063c-2.023,1.021-3.668,1.533-4.934,1.533
				c-1.028,0-2.448-0.449-4.259-1.348l0,0c-0.695-0.346-1.517-0.015-1.836,0.737C-25.688,281.21-25.7,281.244-25.712,281.276z"/>
		</g>
		<path id="Leg-and-Butt" fill="#2B44FF" d="M242.662,321.135c0,19.905-8.735,66.338-8.74,70.72l-18.795,0.017
			c2.75-41.431,3.727-62.369,2.926-62.814c-1.199-0.668-49.194,5.184-63.586,5.184c-20.757,0-29.344-14.163-30.04-40.403h41.117
			c8.372,0.971,52.041,10.502,68.259,13.778C240.744,309.017,242.662,315.652,242.662,321.135z"/>
	</g>
	<g id="Body_x2F_Pointing-Forward" transform="translate(22.000000, 82.000000)">
		<path id="Skin_1_" fill="#997659" d="M149.948,352.159l24.032-14.244c3.996-5.135,7.934-9.124,11.813-11.965
			c1.186-0.537,3.258-0.86,1.32,2.863c-1.938,3.724-3.823,7.733-2.836,8.88c0.988,1.147,3.45-0.455,4.628,1.45
			c0.786,1.271-3.42,3.278-12.62,6.02l-17.462,17.304L149.948,352.159z M187.586,364.177l10.558-6.276
			c1.48-6.099,3.251-9.167,5.311-9.206c1.582-0.797-1.173,6.911,1.827,6.242c3-0.669,10.322-6.562,11.583-5.365
			c1.866,1.771,0.203,7.206-1.758,9.909c-3.666,5.054-6.7,6.783-14.199,9.046c-3.922,1.183-8.161,3.553-12.72,7.113L187.586,364.177
			z"/>
		<path id="Sleeve" fill="#2026A2" d="M138.244,348.985c8.419-0.096,19.644-2.02,31.621-10.247l4.703,11.352
			c-8.261,8.873-19.878,16.161-30.036,15.854C136.528,365.699,132.438,355.222,138.244,348.985z"/>
		<path id="Clothes" fill="#1F28CF" d="M149.58,367.189c8.935,2.411,23.921-0.433,44.956-8.532
			c5.218,11.681,7.629,20.008,7.236,24.983c-18.045,10.2-33.511,14.747-46.253,15.049c0.405,8.18-0.515,15.966-3.607,23.078
			c-6.356,14.626-43.57,1.083-56.083,3.746c-7.836-27.535,7.314-38.729,7.327-56.35c0.013-19.297,14.331-48.999,16.437-48.999
			h19.212C139.865,334.901,145.2,351.144,149.58,367.189z"/>
	</g>
	<g id="Head_x2F_Front_x2F_Turban-1">
		<g id="Turban_1_" transform="translate(31.000000, 23.000000)">
			<g>
				<path id="path-1_4_" fill="#86BFB7" d="M126.716,356.84c-4.06,3.58-10.813,12.104-12.067,15.125
					c-0.162,0.391-6.857,2.749-11.594,0.517c-2.761-1.302-6.545-2.52-8.465-7.038c-1.389-3.275-0.536-11.517,1.061-14.38
					c1.6-2.863,4.298-3.132,6.989-5.44c2.982-2.56,6.056-7.826,13.793-9.593c5.962-1.36,11.881,1.767,15.547,4.416
					c3.667,2.651,3.375,3.114,3.522,4.055C136.193,348.916,129.703,354.206,126.716,356.84z"/>
			</g>
			<defs>
				<filter id="Adobe_OpacityMaskFilter" filterUnits="userSpaceOnUse">
					<feColorMatrix  type="matrix" values="1 0 0 0 0  0 1 0 0 0  0 0 1 0 0  0 0 0 1 0"/>
				</filter>
			</defs>
			<mask maskUnits="userSpaceOnUse" id="mask-2_1_">
				<g filter="url(#Adobe_OpacityMaskFilter)">
					<path id="path-1_1_" fill="#FFFFFF" d="M126.716,356.84c-4.06,3.58-10.813,12.104-12.067,15.125
						c-0.162,0.391-6.857,2.749-11.594,0.517c-2.761-1.302-6.545-2.52-8.465-7.038c-1.389-3.275-0.536-11.517,1.061-14.38
						c1.6-2.863,4.298-3.132,6.989-5.44c2.982-2.56,6.056-7.826,13.793-9.593c5.962-1.36,11.881,1.767,15.547,4.416
						c3.667,2.651,3.375,3.114,3.522,4.055C136.193,348.916,129.703,354.206,126.716,356.84z"/>
				</g>
			</mask>
			<path id="SHade_1_" mask="url(#mask-2_1_)" fill-opacity="0.2" d="M100.166,345.396c1.981,8.965,6.088,15.94,12.321,20.933
				c-5.346-6.802-8.647-14.305-9.906-22.509L100.166,345.396z M96.672,347.8c2.567,9.855,8.857,17.9,18.865,24.135
				c-8.649-7.843-14.008-16.172-16.069-24.984L96.672,347.8z"/>
		</g>
	</g>
</g>
<title>humaaans/sitting-5</title>
<desc>Created with Sketch.</desc>
</svg>
