<?xml version="1.0" encoding="utf-8"?>
<!-- Generator: Adobe Illustrator 15.1.0, SVG Export Plug-In . SVG Version: 6.00 Build 0)  -->
<!DOCTYPE svg PUBLIC "-//W3C//DTD SVG 1.1//EN" "http://www.w3.org/Graphics/SVG/1.1/DTD/svg11.dtd">
<svg version="1.1" id="Layer_1" xmlns="http://www.w3.org/2000/svg" xmlns:xlink="http://www.w3.org/1999/xlink" x="0px" y="0px"
	 width="23px" height="15.12px" viewBox="0 0 23 15.12" enable-background="new 0 0 23 15.12" xml:space="preserve">
<g>
	<path d="M21.25,3.5H1.75C0.784,3.5,0,2.716,0,1.75S0.784,0,1.75,0h19.5C22.217,0,23,0.784,23,1.75S22.217,3.5,21.25,3.5z"/>
</g>
<g>
	<path d="M21.25,9.31H1.75C0.784,9.31,0,8.527,0,7.56s0.784-1.75,1.75-1.75h19.5c0.967,0,1.75,0.783,1.75,1.75
		S22.217,9.31,21.25,9.31z"/>
</g>
<g>
	<path d="M21.25,15.12H1.75C0.784,15.12,0,14.336,0,13.37s0.784-1.75,1.75-1.75h19.5c0.967,0,1.75,0.783,1.75,1.75
		S22.217,15.12,21.25,15.12z"/>
</g>
</svg>
