<svg xmlns="http://www.w3.org/2000/svg" xmlns:xlink="http://www.w3.org/1999/xlink" version="1.1" id="menu-button" x="0px" y="0px" width="23px" height="15.12px" viewBox="0 0 23 15.12" enable-background="new 0 0 23 15.12" xml:space="preserve"><g><path d="M21.25 3.5H1.75C0.784 3.5 0 2.7 0 1.75S0.784 0 1.8 0h19.5C22.217 0 23 0.8 23 1.75S22.217 3.5 21.2 3.5z"/></g><g><path d="M21.25 9.31H1.75C0.784 9.3 0 8.5 0 7.56s0.784-1.75 1.75-1.75h19.5c0.967 0 1.8 0.8 1.8 1.8 S22.217 9.3 21.2 9.31z"/></g><g><path d="M21.25 15.12H1.75C0.784 15.1 0 14.3 0 13.37s0.784-1.75 1.75-1.75h19.5c0.967 0 1.8 0.8 1.8 1.8 S22.217 15.1 21.2 15.12z"/></g></svg>