<?xml version="1.0" encoding="utf-8"?>
<!-- Generator: Adobe Illustrator 15.1.0, SVG Export Plug-In . SVG Version: 6.00 Build 0)  -->
<!DOCTYPE svg PUBLIC "-//W3C//DTD SVG 1.1//EN" "http://www.w3.org/Graphics/SVG/1.1/DTD/svg11.dtd">
<svg version="1.1" id="Layer_1" xmlns="http://www.w3.org/2000/svg" xmlns:xlink="http://www.w3.org/1999/xlink" x="0px" y="0px"
	 width="23px" height="15.12px" viewBox="0 0 23 15.12" enable-background="new 0 0 23 15.12" xml:space="preserve">
<g>
	<path d="M16.297,14.385L4.743,2.897C4.17,2.329,4.168,1.403,4.737,0.83c0.57-0.572,1.495-0.574,2.068-0.005l11.554,11.486
		c0.572,0.57,0.574,1.496,0.008,2.068C17.796,14.952,16.87,14.954,16.297,14.385z"/>
</g>
<g>
	<path d="M4.771,12.35L16.258,0.796c0.568-0.572,1.494-0.575,2.068-0.006c0.572,0.57,0.574,1.495,0.004,2.068L6.845,14.413
		c-0.571,0.572-1.497,0.574-2.068,0.008C4.203,13.85,4.201,12.924,4.771,12.35z"/>
</g>
</svg>
